<svg id="Слой_1" data-name="Слой 1" xmlns="http://www.w3.org/2000/svg" viewBox="0 0 1418.36 1388.9"><defs><style>.cls-1{fill:#2b478b;}.cls-2{fill:#c0d8fb;}.cls-3{fill:#cbe1fd;}.cls-4{fill:#699dee;}.cls-5{fill:#9abff6;}.cls-6{fill:#f99746;}.cls-7{fill:#dfebfd;}.cls-8{fill:#9ec3f6;}.cls-9{fill:#fff;}.cls-10{fill:#ed7d2b;}.cls-11{fill:#2e3192;}</style></defs><rect class="cls-1" x="428.88" y="281.49" width="588.29" height="1107.41" rx="77.49"/><path class="cls-2" d="M1419.76,331.52v930.35c0,31.56-25.64,57.38-57,57.38H946.74c-31.32,0-57-25.82-57-57.38V331.52c0-31.56,25.63-57.38,57-57.38H1362.8C1394.12,274.14,1419.76,300,1419.76,331.52Z" transform="translate(-431.75 34.8)"/><path class="cls-3" d="M1362.8,274.14,951.89,1319.25h-5.15c-31.32,0-57-25.82-57-57.38V331.52c0-31.56,25.63-57.38,57-57.38Z" transform="translate(-431.75 34.8)"/><rect class="cls-1" x="610.33" y="287.98" width="225.4" height="55.56" rx="25.75"/><rect class="cls-4" x="180.59" y="543.35" width="665.93" height="311.29" rx="37.18"/><rect class="cls-5" x="550.83" y="397.8" width="293.75" height="106.12" rx="31.1"/><rect class="cls-5" x="499.14" y="1151.08" width="341.44" height="130.92" rx="37.25"/><path class="cls-6" d="M654.89,908.89H907.08a44.63,44.63,0,0,1,44.63,44.63v98.68a44.63,44.63,0,0,1-44.62,44.63H654.89a44.62,44.62,0,0,1-44.62-44.62V953.52A44.62,44.62,0,0,1,654.89,908.89Z"/><path class="cls-7" d="M802.07-34.8H1091a42,42,0,0,1,41.87,41.88V133.83a38.58,38.58,0,0,1-38.46,38.46H1087l13.92,58.79-87.39-58.79H799.58a42,42,0,0,1-41.84-41.84V9.53A44.46,44.46,0,0,1,802.07-34.8Z" transform="translate(-431.75 34.8)"/><path class="cls-3" d="M794.32,57.21h301.25a7.49,7.49,0,0,0,7.46-7.46h0a7.48,7.48,0,0,0-7.46-7.46H794.32a7.48,7.48,0,0,0-7.46,7.46h0A7.49,7.49,0,0,0,794.32,57.21Z" transform="translate(-431.75 34.8)"/><path class="cls-3" d="M794.32,90.6h301.25a7.49,7.49,0,0,0,7.46-7.46h0a7.49,7.49,0,0,0-7.46-7.46H794.32a7.49,7.49,0,0,0-7.46,7.46h0A7.49,7.49,0,0,0,794.32,90.6Z" transform="translate(-431.75 34.8)"/><path class="cls-3" d="M794.32,124h301.25a7.48,7.48,0,0,0,7.46-7.46h0a7.49,7.49,0,0,0-7.46-7.46H794.32a7.49,7.49,0,0,0-7.46,7.46h0A7.48,7.48,0,0,0,794.32,124Z" transform="translate(-431.75 34.8)"/><path class="cls-3" d="M958.45,5.34h127.88a8.91,8.91,0,0,0,8.89-8.88h0a8.91,8.91,0,0,0-8.89-8.88H958.45a8.91,8.91,0,0,0-8.89,8.88h0A8.91,8.91,0,0,0,958.45,5.34Z" transform="translate(-431.75 34.8)"/><rect class="cls-3" x="841.52" y="-12.42" width="90.99" height="17.76" rx="7.02" transform="translate(1342.28 27.72) rotate(180)"/><polygon class="cls-8" points="1235.29 771.33 1418.36 826.41 1307.02 722.93 1296.59 749.11 1249.84 750.45 1235.29 771.33"/><polygon class="cls-9" points="1418.36 826.41 1274.82 722.5 1123.37 691.68 1418.36 826.41"/><polygon class="cls-9" points="1307.02 722.93 1418.36 826.41 1342.3 679.55 1307.02 722.93"/><polygon class="cls-8" points="169.85 405.45 0 429.68 112.72 352.86 118.45 377.48 159.75 384.96 169.85 405.45"/><polygon class="cls-9" points="0 429.68 141.34 356.81 279.88 349.84 0 429.68"/><polygon class="cls-9" points="112.72 352.86 0 429.68 87.26 309.61 112.72 352.86"/><path class="cls-9" d="M868.27,652.45a96,96,0,0,1-20,58.86,97.09,97.09,0,0,1-14.1,14.77,96.49,96.49,0,1,1,34.13-73.63Z" transform="translate(-431.75 34.8)"/><rect class="cls-9" x="495.69" y="621.53" width="123.43" height="17.12" rx="6.91"/><path class="cls-9" d="M1045.28,665.37H933a5.61,5.61,0,0,1-5.58-5.58h0a5.6,5.6,0,0,1,5.58-5.58h112.27a5.6,5.6,0,0,1,5.58,5.58h0A5.6,5.6,0,0,1,1045.28,665.37Z" transform="translate(-431.75 34.8)"/><rect class="cls-9" x="495.69" y="715.41" width="72.42" height="11.16" rx="4.27"/><rect class="cls-9" x="585.44" y="715.41" width="113.94" height="11.16" rx="5.36"/><path class="cls-9" d="M1222.2,665.37H1075a5.6,5.6,0,0,1-5.58-5.58h0a5.6,5.6,0,0,1,5.58-5.58H1222.2a5.6,5.6,0,0,1,5.58,5.58h0A5.61,5.61,0,0,1,1222.2,665.37Z" transform="translate(-431.75 34.8)"/><path class="cls-9" d="M1045.28,718.18H933a5.6,5.6,0,0,1-5.58-5.58h0A5.6,5.6,0,0,1,933,707h112.27a5.6,5.6,0,0,1,5.58,5.58h0A5.6,5.6,0,0,1,1045.28,718.18Z" transform="translate(-431.75 34.8)"/><path class="cls-9" d="M1222.2,718.18H1075a5.6,5.6,0,0,1-5.58-5.58h0A5.6,5.6,0,0,1,1075,707H1222.2a5.6,5.6,0,0,1,5.58,5.58h0A5.6,5.6,0,0,1,1222.2,718.18Z" transform="translate(-431.75 34.8)"/><rect class="cls-9" x="634.41" y="621.53" width="90.56" height="17.12" rx="5.92"/><rect class="cls-4" x="536.95" y="1176.1" width="87.75" height="12.17" rx="4.91"/><path class="cls-4" d="M1052.48,1184.62H972.66a4,4,0,0,1-4-4h0a4,4,0,0,1,4-4h79.82a4,4,0,0,1,4,4h0A4,4,0,0,1,1052.48,1184.62Z" transform="translate(-431.75 34.8)"/><rect class="cls-4" x="536.95" y="1230.26" width="51.49" height="7.93" rx="3.04"/><rect class="cls-4" x="600.76" y="1230.26" width="81" height="7.93" rx="3.81"/><path class="cls-4" d="M1178.26,1184.62H1073.6a4,4,0,0,1-4-4h0a4,4,0,0,1,4-4h104.66a4,4,0,0,1,4,4h0A4,4,0,0,1,1178.26,1184.62Z" transform="translate(-431.75 34.8)"/><path class="cls-4" d="M1052.48,1222.17H972.66a4,4,0,0,1-4-4h0a4,4,0,0,1,4-4h79.82a4,4,0,0,1,4,4h0A4,4,0,0,1,1052.48,1222.17Z" transform="translate(-431.75 34.8)"/><path class="cls-4" d="M1178.26,1222.17H1073.6a4,4,0,0,1-4-4h0a4,4,0,0,1,4-4h104.66a4,4,0,0,1,4,4h0A4,4,0,0,1,1178.26,1222.17Z" transform="translate(-431.75 34.8)"/><rect class="cls-4" x="635.57" y="1176.1" width="64.38" height="12.17" rx="4.21"/><rect class="cls-4" x="588.65" y="418.28" width="87.75" height="12.17" rx="4.91"/><path class="cls-4" d="M1104.18,426.8h-79.82a4,4,0,0,1-4-4h0a4,4,0,0,1,4-4h79.82a4,4,0,0,1,4,4h0A4,4,0,0,1,1104.18,426.8Z" transform="translate(-431.75 34.8)"/><rect class="cls-4" x="588.65" y="472.44" width="51.49" height="7.93" rx="3.04"/><rect class="cls-4" x="652.46" y="472.44" width="81" height="7.93" rx="3.81"/><path class="cls-4" d="M1230,426.8H1125.3a4,4,0,0,1-4-4h0a4,4,0,0,1,4-4H1230a4,4,0,0,1,4,4h0A4,4,0,0,1,1230,426.8Z" transform="translate(-431.75 34.8)"/><rect class="cls-4" x="687.27" y="418.28" width="64.38" height="12.17" rx="4.21"/><rect class="cls-10" x="649.67" y="943.34" width="96.07" height="13.32" rx="5.38"/><path class="cls-10" d="M1173.15,956h-87.39a4.36,4.36,0,0,1-4.34-4.35h0a4.36,4.36,0,0,1,4.34-4.34h87.39a4.36,4.36,0,0,1,4.34,4.34h0A4.36,4.36,0,0,1,1173.15,956Z" transform="translate(-431.75 34.8)"/><rect class="cls-10" x="649.67" y="1002.63" width="56.37" height="8.69" rx="3.33"/><rect class="cls-10" x="719.53" y="1002.63" width="88.68" height="8.68" rx="4.17"/><path class="cls-10" d="M1310.85,956H1196.27a4.36,4.36,0,0,1-4.34-4.35h0a4.36,4.36,0,0,1,4.34-4.34h114.58a4.36,4.36,0,0,1,4.34,4.34h0A4.36,4.36,0,0,1,1310.85,956Z" transform="translate(-431.75 34.8)"/><path class="cls-10" d="M1173.15,997.07h-87.39a4.35,4.35,0,0,1-4.34-4.34h0a4.35,4.35,0,0,1,4.34-4.34h87.39a4.35,4.35,0,0,1,4.34,4.34h0A4.35,4.35,0,0,1,1173.15,997.07Z" transform="translate(-431.75 34.8)"/><path class="cls-10" d="M1310.85,997.07H1196.27a4.35,4.35,0,0,1-4.34-4.34h0a4.35,4.35,0,0,1,4.34-4.34h114.58a4.35,4.35,0,0,1,4.34,4.34h0A4.35,4.35,0,0,1,1310.85,997.07Z" transform="translate(-431.75 34.8)"/><path class="cls-10" d="M1173.15,1018.47h-87.39a4.35,4.35,0,0,1-4.34-4.34h0a4.35,4.35,0,0,1,4.34-4.34h87.39a4.35,4.35,0,0,1,4.34,4.34h0A4.35,4.35,0,0,1,1173.15,1018.47Z" transform="translate(-431.75 34.8)"/><path class="cls-10" d="M1310.85,1018.47H1196.27a4.35,4.35,0,0,1-4.34-4.34h0a4.35,4.35,0,0,1,4.34-4.34h114.58a4.35,4.35,0,0,1,4.34,4.34h0A4.35,4.35,0,0,1,1310.85,1018.47Z" transform="translate(-431.75 34.8)"/><rect class="cls-10" x="757.65" y="943.34" width="70.49" height="13.32" rx="4.61"/><path class="cls-9" d="M930.8,960.38a37.89,37.89,0,0,0,59.62,31.06c.31-.21.61-.44.92-.66a37.9,37.9,0,1,0-60.54-30.4Z" transform="translate(-431.75 34.8)"/><path class="cls-4" d="M979,984.69l-3.49-3.09-.87.16a23.62,23.62,0,0,0-2-1.27c.23-1.41.42-2.72.58-3.88a62.44,62.44,0,0,0,.59-6.89c1.85-.09,3.1-.29,3.1-.29,3.5-.81,3.67-12.76,2.86-19a4.48,4.48,0,0,0,1.95-.37c2.65-1.17,2.8-5.18,2.8-5.18a4.69,4.69,0,0,1-1.9,1.89s4.43-6.07-.71-10.22-10.35-1.44-13.33-1.26c-6.54.4-10.77.79-12.9,5.09s-1.28,15.9,2.76,20.19c.07.4.14.79.19,1.19a8,8,0,0,0,1.6,3.81,26.73,26.73,0,0,1-4.84,11.26,17.52,17.52,0,0,0-3.48,3.75l-.07,0h0a37.94,37.94,0,0,0-4.89,10.73s0,0,0,.06a35.93,35.93,0,0,0,6.91,3.8l.48.2.11,0,.79.31c.64.25,1.28.48,1.93.69s1.37.42,2.06.6l1,.23c.28.07.56.13.85.18l.12,0,.57.11,1.34.23.31,0,.74.1,1.05.12c.39,0,.79.07,1.19.09s.75,0,1.13.06l1.19,0,1.28,0h.42l.63,0H971c.4,0,.79-.05,1.19-.09a37.65,37.65,0,0,0,14.28-4.32A39.8,39.8,0,0,0,979,984.69Z" transform="translate(-431.75 34.8)"/><path class="cls-9" d="M1302.88,1180.66A38.16,38.16,0,1,0,1341,1142.5,37.95,37.95,0,0,0,1302.88,1180.66Z" transform="translate(-431.75 34.8)"/><path class="cls-6" d="M1360.54,1202.28a1.32,1.32,0,0,0-.19-.29,3,3,0,0,0-.61-.63h0a7.67,7.67,0,0,0-1.88-1l-.08,0a30.73,30.73,0,0,0-7.66-1.92c-1.24-.19-2.22-.31-2.68-.36-1.28-1-3-5.12-3.28-11.39v0s1.43-3.32,3.32-2.28c3,1.61,8.65-4.91,6.83-13.48a23.67,23.67,0,0,0-.7-2.54,5.28,5.28,0,0,0,2,.48c1.71,0,4.3-4.38,4.65-5.85s0-6.3-2.38-7.73-5.92.21-6.08.27c1.17-1.64,5.17-1.31,5.9-1.23-9.34-1.94-11.27,4-11.43,4.59-5.94-5.37-15,3.91-17.24,6.39q-.23.19-.45.42a6.44,6.44,0,0,0-1.68,1.5,7.66,7.66,0,0,0-1.54,5,17.58,17.58,0,0,0,1.18,5.93c.54,5.19,2,11.62,4.44,11.81,0,0,.85,0,2.13-.1,0,.06,0,.11,0,.17,0,.87.07,1.85.08,2.83v.59c0,2.61-.15,5.09-.74,5.4l-.52,0c-.24,0-.69.07-.69.07-2.08.27-3.56.48-4.61.66-2.08.35-2.6.6-3.11,1a4.43,4.43,0,0,0-.36.38,23.78,23.78,0,0,0-6.75,8.86,38.16,38.16,0,0,0,47.45,1.49A51,51,0,0,0,1360.54,1202.28Z" transform="translate(-431.75 34.8)"/><path class="cls-9" d="M1302.88,413.79a38,38,0,0,0,7.92,23.28,38.54,38.54,0,0,0,5.58,5.84,38.15,38.15,0,1,0-13.5-29.12Z" transform="translate(-431.75 34.8)"/><path class="cls-6" d="M1360.54,435.41a1.6,1.6,0,0,0-.19-.29,3,3,0,0,0-.61-.63h0a8.39,8.39,0,0,0-1.88-1.05l-.08,0a31.24,31.24,0,0,0-7.66-1.92h0c-1.24-.2-2.22-.32-2.68-.37a4.29,4.29,0,0,1-1-1.25h0c-1.06-1.86-2.1-5.36-2.31-10.13v0s1.43-3.31,3.32-2.28c3,1.61,8.65-4.9,6.83-13.47a23.24,23.24,0,0,0-.7-2.55,5.28,5.28,0,0,0,2,.48c1.71,0,4.3-4.38,4.65-5.84s0-6.31-2.38-7.74-5.92.21-6.08.28c1.17-1.64,5.18-1.31,5.9-1.24-9.34-1.94-11.27,4.06-11.43,4.59-5.94-5.36-15,3.92-17.24,6.39q-.23.19-.45.42a6.51,6.51,0,0,0-1.68,1.51,7.62,7.62,0,0,0-1.54,4.95,17.5,17.5,0,0,0,1.18,5.93c.54,5.2,2,11.62,4.44,11.81,0,0,.85,0,2.13-.09,0,.05,0,.1,0,.16,0,.87.07,1.85.08,2.84v.59c0,2.61-.15,5.08-.74,5.4l-.52,0-.69.07c-2.08.27-3.56.48-4.61.66-2.08.36-2.6.6-3.11,1l-.36.38a23.84,23.84,0,0,0-6.75,8.87q.54.46,1.11.9l.19.15c.28.22.56.43.85.63s.4.31.61.45.42.29.63.42.61.42.93.61l.64.4.8.47.9.5.08,0,.05,0h0l.13.07.72.37,0,0,.22.11.41.2.4.19.93.41.94.38.43.17.43.16.88.31.92.3.78.24.08,0,.5.14c.91.25,1.84.47,2.78.65.41.08.82.16,1.23.22l.32,0h.11l.8.1.17,0,.12,0c.25,0,.5.06.74.08h.13l.23,0c.45,0,.89.07,1.34.09h.07l.42,0h.26l1.32,0a37.94,37.94,0,0,0,22.79-7.56A51.26,51.26,0,0,0,1360.54,435.41Z" transform="translate(-431.75 34.8)"/><path class="cls-11" d="M797.78,704.27l-9.11-8.06c-.76.15-1.51.28-2.27.41a59.46,59.46,0,0,0-5.32-3.31c.6-3.68,1.09-7.1,1.51-10.13a164,164,0,0,0,1.54-18c4.83-.24,8.09-.76,8.09-.76,9.14-2.11,9.58-33.3,7.47-49.56a11.76,11.76,0,0,0,5.09-1c6.91-3,7.3-13.52,7.3-13.52s-2,3.73-5,4.93c0,0,11.57-15.84-1.85-26.67s-27-3.76-34.79-3.29c-17.07,1-28.11,2.06-33.67,13.29-5.51,11.06-3.34,41.49,7.2,52.69.19,1,.37,2.06.5,3.11a20.87,20.87,0,0,0,4.18,9.94,69.72,69.72,0,0,1-12.64,29.39,45.72,45.72,0,0,0-9.08,9.79l-.18.13.08,0c-5.15,7.3-9.37,16.83-12.77,28a1,1,0,0,1-.05.16,94.27,94.27,0,0,0,18,9.92l1.25.52a2.47,2.47,0,0,0,.29.1c.67.29,1.38.55,2.06.81,1.67.65,3.34,1.26,5,1.8s3.58,1.1,5.38,1.57c.84.21,1.67.42,2.51.6s1.46.34,2.22.47l.31.08,1.49.28c1.14.21,2.32.42,3.49.6l.81.11c.66.1,1.28.18,1.93.26l2.75.31c1,.11,2.06.19,3.1.24s2,.13,2.95.16,2.06,0,3.11,0,2.21,0,3.34,0a.89.89,0,0,0,.28,0,7.22,7.22,0,0,0,.81,0,15.19,15.19,0,0,0,1.65-.08.75.75,0,0,1,.21,0c1,0,2.06-.13,3.1-.24a98.26,98.26,0,0,0,37.27-11.27A103.74,103.74,0,0,0,797.78,704.27Z" transform="translate(-431.75 34.8)"/></svg>