<svg id="Layer_1" data-name="Layer 1" xmlns="http://www.w3.org/2000/svg" viewBox="0 0 456.81 656.02"><defs><style>.cls-1,.cls-27,.cls-28{fill:aqua;}.cls-2{fill:#fdc88a;}.cls-3{fill:#eda96a;}.cls-4{fill:#b76b41;}.cls-5{fill:#1f232e;}.cls-6{fill:#564a63;}.cls-7{fill:#181d26;}.cls-8{fill:#d0e2f4;}.cls-26,.cls-9{fill:#fff;}.cls-10{fill:#d22940;}.cls-11{fill:#98460e;}.cls-12{fill:#6d320a;}.cls-13{fill:#e96a19;}.cls-14{fill:#6f310a;}.cls-15{fill:#e06b1c;}.cls-16{fill:#6d330e;}.cls-17{fill:#df6c11;}.cls-18{fill:#693311;}.cls-19{fill:#e26a14;}.cls-20{fill:#f907ef;}.cls-21{fill:#d00ac1;}.cls-22{fill:#d76a25;}.cls-23{fill:#9e005d;}.cls-24{fill:#93278f;}.cls-25,.cls-29{fill:none;}.cls-25,.cls-26,.cls-29{stroke:#000;}.cls-25{stroke-miterlimit:10;}.cls-26,.cls-29{stroke-linejoin:round;stroke-width:2px;}.cls-26{opacity:0.32;}.cls-27{opacity:0.2;}.cls-28{opacity:0.1;}</style></defs><path class="cls-1" d="M496.12,749.09a6,6,0,0,0,9.78-3.46l3.35-18.07,3.35-18.06a6,6,0,0,0-7.89-6.74l-17.32,6.13L470.07,715a6,6,0,0,0-1.89,10.2l.17.15a6,6,0,0,1,.67,8.44l-28.09,32.87a6,6,0,0,0,.67,8.45l9.55,8.16a6,6,0,0,0,8.44-.67l28.09-32.87a6,6,0,0,1,8.44-.66Z" transform="translate(-232.71 -231.98)"/><path class="cls-2" d="M362.83,425.66a20.07,20.07,0,0,1-19.1,21.66l-11.16-9.84,19.1-21.66Z" transform="translate(-232.71 -231.98)"/><path class="cls-3" d="M332.57,437.48l2.28,2a23.63,23.63,0,0,0,9.64-4.73c7.7-6.37,8.56-15.67,8.7-17.69l-3.73-3.2Z" transform="translate(-232.71 -231.98)"/><path class="cls-2" d="M334.59,377c13.7,12.08,22.87,39.9,10.79,53.61s-40.84,8.09-54.54-4A33.08,33.08,0,1,1,334.59,377Z" transform="translate(-232.71 -231.98)"/><path class="cls-4" d="M285.61,408.66s37.72.74,30.56-34.67c0,0,14.71,10,18.49,3.77,0,0,.25-3.26-9.45-10.06,0,0-34.74,7.74-33.72,16.49s-14.74,23.64-12.23,26.72,1.44,8.26,1.44,8.26,9.88,9.57,12.1,8S295.16,420.58,285.61,408.66Z" transform="translate(-232.71 -231.98)"/><path class="cls-5" d="M235.93,413.12l-3.22-2.83,23.43-61.41,55.5-27,2.66,2.34-8.73,15.33L295.51,351,285,362.89,272.6,378.77l-5.35,8.78-2.39,9Z" transform="translate(-232.71 -231.98)"/><path class="cls-6" d="M264.43,398.36l-28.5,14.77q12.47-30,24.92-60.1l53.36-28.86q-4.2,13.63-8.41,27.27Z" transform="translate(-232.71 -231.98)"/><path class="cls-7" d="M326.65,368.31a73.88,73.88,0,0,0-45.46,51.55l-22.86-20.15c0-3,.45-26.42,19.5-40.74a49,49,0,0,1,27.42-9.53Z" transform="translate(-232.71 -231.98)"/><path class="cls-7" d="M371.1,420.65c15.86-14.9,23.79-22.35,30.35-24.85,34.35-13.13,82.08,37.15,89.07,44.66-17.62,19.79-32.35,36.56-43.44,49.25-11.93,13.67-17.17,19.52-27.81,31.66C402,541,387.7,557.34,377,569.23c-2.91-1.53-60.47-32.77-57.11-72,1.09-12.73,8.42-24.29,16.85-37.57C347,443.39,358.24,432.72,371.1,420.65Z" transform="translate(-232.71 -231.98)"/><polygon class="cls-8" points="114.24 225.72 186.46 289.4 214.36 257.76 150.77 200.99 140.01 191.5 114.24 225.72"/><path class="cls-9" d="M341.5,449.75s-3.66,7.07,4.19,23l20.19-5.37-3.54-18.62,3-3.4,18.05,2.17,3.82-21.86s-20.15-4.89-23.26.09S341.5,449.75,341.5,449.75Z" transform="translate(-232.71 -231.98)"/><path class="cls-10" d="M354.62,453.33S348,434,369.05,437c0,0,8.5,14.23,7.2,15.71l40.17,26.06,11.7,24.86L402,495.1l-31-36.51S358.32,456.6,354.62,453.33Z" transform="translate(-232.71 -231.98)"/><rect class="cls-1" x="145.29" y="181.02" width="81" height="475" rx="40.5"/><path class="cls-10" d="M619.36,405.58c.53-2.85,18.77-2.39,18.77-2.39-6.27-27.73-21.22-33.48-21.22-33.48L564.14,492.62c1.75-2.24,43.71-56,45.44-58.26,0,0,2.76-3.53,2.77-3.54l13.19-9.33C626.61,415.79,619.36,405.58,619.36,405.58Z" transform="translate(-232.71 -231.98)"/><path class="cls-10" d="M548.83,377.42s15.68,9.32,14.61,12c0,0-11.58,4.78-13.71,10.17q3.09,7.47,6.19,14.93l.45,4.47c.29,2.81,7.13,70.69,7.42,73.51q10.41-66.06,20.83-132.13S568.9,357.29,548.83,377.42Z" transform="translate(-232.71 -231.98)"/><path class="cls-2" d="M584.62,360.39q-2.08,10.64-4.18,21.26l3,11.27,17.07,2,7.8-5.24,8.61-20-17.16-4.47Z" transform="translate(-232.71 -231.98)"/><path class="cls-8" d="M608.3,389.69h0L564.14,492.62l-.35-.1,16.65-110.87a20.51,20.51,0,0,0,27.86,8Z" transform="translate(-232.71 -231.98)"/><path class="cls-2" d="M616.22,370.59a22.91,22.91,0,0,1-31.68-9.14l4.71-16.32,31.68,9.14Z" transform="translate(-232.71 -231.98)"/><path class="cls-3" d="M589.25,345.13l-1,3.34a27,27,0,0,0,9.58,7.64c10.34,4.84,20.36,1.19,22.51.35l1.48-5.41Z" transform="translate(-232.71 -231.98)"/><path class="cls-2" d="M652.64,317.72c-5.78,20-30,43.07-50.07,37.29s-28.28-38.2-22.5-58.24a37.77,37.77,0,1,1,72.57,21Z" transform="translate(-232.71 -231.98)"/><circle class="cls-11" cx="435.63" cy="21.17" r="21.17"/><path class="cls-12" d="M654.47,237.11c-3.65,10.72-.54,22.14,7.43,28.31,8.17,6.34,18,4.5,19.62,4.17a19.09,19.09,0,0,1-5.74,3.63c-9,3.6-17.77-1.16-19.38-2.07a24.66,24.66,0,0,1-5-5,20.57,20.57,0,0,1-4.09-8.23,19.45,19.45,0,0,1,.18-8.77A24.14,24.14,0,0,1,654.47,237.11Z" transform="translate(-232.71 -231.98)"/><path class="cls-13" d="M678.08,238.44s-8-1.93-12.86,4.39c0,0-5.57,9.83-4.29,14.44,0,0-.72-9.49,2.34-12.95S671.76,233.57,678.08,238.44Z" transform="translate(-232.71 -231.98)"/><path class="cls-14" d="M675.05,240.69s-3,0-4.19,1.4a9.64,9.64,0,0,1-3.36,2.08,2,2,0,0,0-1.14,1.21l-3.07,8.9S664.68,246.49,675.05,240.69Z" transform="translate(-232.71 -231.98)"/><path class="cls-15" d="M675.57,243.08l-.13.08-6.2,3.76s-2.94,5-2.73,5.6c0,0,0,0,0,0,.24.14,2.05-3.11,4.1-5.44A19.77,19.77,0,0,1,675.57,243.08Z" transform="translate(-232.71 -231.98)"/><path class="cls-16" d="M673.66,246.88s-2.65,1.62-3,2.25-1.22,2-1.08,2.21S670.69,249.13,673.66,246.88Z" transform="translate(-232.71 -231.98)"/><path class="cls-17" d="M676.75,243.69s-.8,5.75-3.35,7.57a55.35,55.35,0,0,0-4.71,3.79S675.86,248.48,676.75,243.69Z" transform="translate(-232.71 -231.98)"/><path class="cls-18" d="M678.54,243s1.22,6.92-.16,8.41-5,4.24-5.39,5.55-4.69,1.49-4.69,1.49a20.16,20.16,0,0,0,5.57-4.55A20.55,20.55,0,0,0,678.54,243Z" transform="translate(-232.71 -231.98)"/><path class="cls-19" d="M682.44,242.92l1.61,9.77s-.58,3.9-6.59,7.48-8.24,1.17-9.1,2.1S684.72,258.35,682.44,242.92Z" transform="translate(-232.71 -231.98)"/><path class="cls-18" d="M685.7,244.35s1.15,16.9-3.67,19.15-13.61,1.27-14.89-.9c0,0,7.68,7.37,17.2,1.24C684.34,263.84,692.94,247.7,685.7,244.35Z" transform="translate(-232.71 -231.98)"/><path class="cls-18" d="M671.38,235.27s-9.62,1-11.41,5.18-5,5-.75,16.83c0,0-4.09-4.12-3.61-9.86s4.38-10.89,4.92-10.83S667.2,233.22,671.38,235.27Z" transform="translate(-232.71 -231.98)"/><path class="cls-20" d="M646,257.88l-2.59,3.87s20.49,9.77,21.38,17.29l3.81-2.24S658.08,261,646,257.88Z" transform="translate(-232.71 -231.98)"/><path class="cls-21" d="M645.18,259.1a78.44,78.44,0,0,1,11,7.73,79.55,79.55,0,0,1,10.68,10.86l-2.26,1.7L643.16,262Z" transform="translate(-232.71 -231.98)"/><path class="cls-11" d="M620.07,256.55a28.85,28.85,0,0,0-13.72-3.37c-12.71.23-24.64,9.7-31.13,23.92A51.58,51.58,0,0,0,578.8,326a33.25,33.25,0,0,1,.61-23.76,32.74,32.74,0,0,1,13-14.91s9.24-5.56,12.88-3.92c0,0-2.19,7.6-8.94,8.59,0,0,8.14,2.34,19.87-7.78,0,0-4.44,9.29-9.41,10.21,0,0,4.48,4.84,15.29-4.1l12-6.84s-3.45,16,.5,16.59c0,0,3-4.48,6.75-4.07,1,.11,2.7.63,4.79,3.57.92,1.29,4.81,7.1,3.91,17.82-1,11.42-6.63,19.85-10.09,24.15a59.25,59.25,0,0,0,21.34-19.86,45.52,45.52,0,0,0,7.19-17.7,37.74,37.74,0,0,0-2.28-21.81,35,35,0,0,0-7.81-11.12C645.41,258.54,627.78,256.82,620.07,256.55Z" transform="translate(-232.71 -231.98)"/><path class="cls-22" d="M623.15,262.15c-2.91.77-5.78,1.48-8.61,2.3a84.41,84.41,0,0,0-8.58,1.46,41.76,41.76,0,0,0-8.11,2.61c-.61.32-1.21.63-1.81,1s-1.19.74-1.76,1.16A29.46,29.46,0,0,0,591,273.3a37.23,37.23,0,0,0-5.39,6.56,58.91,58.91,0,0,0-4.31,7.47,48.82,48.82,0,0,0-3,8.05,68,68,0,0,0-3,8.3,40.1,40.1,0,0,1,.12-9.09,51.13,51.13,0,0,1,3.14-8.54,61.69,61.69,0,0,1,4.52-7.84,39.29,39.29,0,0,1,5.83-7.08,30.57,30.57,0,0,1,3.58-2.94c.63-.46,1.29-.86,1.94-1.28s1.4-.75,2.1-1.11a44.54,44.54,0,0,1,8.7-2.81c2.94-.67,5.9-1.14,8.86-1.55A66,66,0,0,1,623.15,262.15Z" transform="translate(-232.71 -231.98)"/><path class="cls-12" d="M625.28,266c-4.18,1.08-8.38,2-12.55,3-1,.24-2.08.49-3.1.82a8.88,8.88,0,0,0-1.46.58,1.71,1.71,0,0,0-.57.43l-.29.34c-.11.1-.25.17-.37.26a4,4,0,0,1-1.66.25l-1.62,0a7,7,0,0,0-3.06.58c-.23.11-.44.25-.66.38l-.61.47c-.36.35-.71.72-1.08,1.14-.74.81-1.53,1.57-2.33,2.29a49.46,49.46,0,0,0-4.53,4.51,78,78,0,0,0-7.3,10.56l-.09,0a45.39,45.39,0,0,1,6.58-11.21,37.24,37.24,0,0,1,4.72-4.52c.81-.7,1.62-1.4,2.38-2.14a14.88,14.88,0,0,1,1.22-1.12l.72-.47c.26-.12.51-.25.77-.35a8.39,8.39,0,0,1,3.28-.43c1.07,0,2.21.26,3.12-.15a3.06,3.06,0,0,0,.29-.21l.21-.29a2.22,2.22,0,0,1,.67-.6,10.28,10.28,0,0,1,1.48-.75c1-.42,2-.77,3.07-1.09a72,72,0,0,1,12.76-2.33Z" transform="translate(-232.71 -231.98)"/><path class="cls-22" d="M637,268.73c-2.3.76-4.59,1.5-6.85,2.33s-4.52,1.64-6.73,2.54c-1.09.46-2.17,1-3.23,1.5s-2.12,1-3.19,1.43-2.13.86-3.17,1.34a9,9,0,0,0-2.83,1.87l-.28-.1a5.6,5.6,0,0,1,1.88-3.48,15.79,15.79,0,0,1,3.07-2.32,27.46,27.46,0,0,1,7-2.51c2.35-.68,4.73-1.24,7.11-1.72s4.77-.88,7.19-1.17Z" transform="translate(-232.71 -231.98)"/><path class="cls-12" d="M647.64,269.35a8.7,8.7,0,0,1,.57,2.71,9,9,0,0,1-.19,2.69c-.22.88-.66,1.72-.86,2.59a11.45,11.45,0,0,0-.27,2.68,13.1,13.1,0,0,1-.27,2.73,14.15,14.15,0,0,1-.73,2.64,10.75,10.75,0,0,1-3.3,4.43l-.17-.11c.44-1.83.94-3.43,1.47-5.06.25-.82.62-1.6.91-2.42l.47-1.22c.16-.41.38-.8.55-1.22a7.8,7.8,0,0,0,.7-2.55,19.93,19.93,0,0,0-.16-2.67,13.38,13.38,0,0,1,.29-2.61,13.18,13.18,0,0,1,.79-2.61Z" transform="translate(-232.71 -231.98)"/><path class="cls-22" d="M656.43,274.2c.23,1.22.36,2.44.52,3.67l-.05,3.67q-.07,3.66-.3,7.34c-.15,2.44-.37,4.88-.69,7.32-.15,1.22-.37,2.43-.6,3.65l-.64,1.75c-.25.57-.52,1.13-.79,1.68.08-.62.18-1.22.28-1.82l.17-1.81c.22-1.19.44-2.38.59-3.58.32-2.41.54-4.83.68-7.26s.25-4.86.3-7.29c0-1.22.05-2.44.05-3.66C656.12,276.65,656.24,275.43,656.43,274.2Z" transform="translate(-232.71 -231.98)"/><path class="cls-12" d="M664.32,287.81a38.11,38.11,0,0,1,.14,10.56,49,49,0,0,1-.88,5.24c-.4,1.72-.91,3.43-1.45,5.11a50.45,50.45,0,0,1-4.49,9.62,38.9,38.9,0,0,1-6.57,8.27l-.17-.12a74.09,74.09,0,0,0,13.22-38.69Z" transform="translate(-232.71 -231.98)"/><path class="cls-23" d="M634,453.5h0A40.5,40.5,0,0,1,593.5,494H378V453.5A40.5,40.5,0,0,1,418.5,413h175A40.5,40.5,0,0,1,634,453.5Z" transform="translate(-232.71 -231.98)"/><path class="cls-23" d="M634,847.5h0A40.5,40.5,0,0,1,593.5,888h-175A40.5,40.5,0,0,1,378,847.5V807H593.5A40.5,40.5,0,0,1,634,847.5Z" transform="translate(-232.71 -231.98)"/><path class="cls-24" d="M524.86,592.25c.9-2.76,18.92,0,18.92,0C541.1,564,527,556.36,527,556.36l-68,115.2c2-2,50.48-50,52.49-52l3.19-3.16L529,608.82C530.76,603.3,524.86,592.25,524.86,592.25Z" transform="translate(-232.71 -231.98)"/><path class="cls-24" d="M458.49,555.35s14.36,11.24,13,13.78c0,0-12.09,3.27-14.89,8.35q2.12,7.78,4.24,15.59l-.12,4.49c-.07,2.83-1.92,71-2,73.86q18.74-64.2,37.46-128.41S481,537.94,458.49,555.35Z" transform="translate(-232.71 -231.98)"/><path class="cls-2" d="M496.15,543q-3.42,10.28-6.85,20.56.76,5.77,1.54,11.56l16.67,4.16,8.41-4.2L527,556.36l-16.46-6.62Z" transform="translate(-232.71 -231.98)"/><path class="cls-8" d="M515.92,575.09h0L459,671.56l-.33-.14Q474,617.5,489.3,563.57a20.53,20.53,0,0,0,26.62,11.52Z" transform="translate(-232.71 -231.98)"/><path class="cls-2" d="M526.2,557.15a22.91,22.91,0,0,1-30.26-13.1l6.75-15.58L533,541.56Z" transform="translate(-232.71 -231.98)"/><path class="cls-3" d="M502.69,528.47l-1.38,3.19a27,27,0,0,0,8.53,8.79c9.64,6.12,20,3.77,22.28,3.21l2.16-5.18Z" transform="translate(-232.71 -231.98)"/><path class="cls-2" d="M569.05,509.34c-8.28,19.14-35.26,38.91-54.41,30.62s-23.19-41.48-14.91-60.63a37.77,37.77,0,0,1,69.32,30Z" transform="translate(-232.71 -231.98)"/><circle class="cls-11" cx="360.12" cy="215.32" r="21.17"/><path class="cls-12" d="M581.11,429.61c-5,10.18-3.34,21.9,3.77,29,7.3,7.31,17.29,6.74,18.94,6.62a18.94,18.94,0,0,1-6.17,2.87c-9.37,2.43-17.47-3.41-19-4.51a24.86,24.86,0,0,1-4.35-5.58,20.65,20.65,0,0,1-3-8.68,19.52,19.52,0,0,1,1.29-8.67A24.22,24.22,0,0,1,581.11,429.61Z" transform="translate(-232.71 -231.98)"/><path class="cls-13" d="M604.37,433.94s-7.68-2.93-13.32,2.72c0,0-6.77,9-6.09,13.78,0,0,.49-9.51,4-12.55S598.72,428.3,604.37,433.94Z" transform="translate(-232.71 -231.98)"/><path class="cls-14" d="M601.07,435.78s-3-.38-4.34.86a9.54,9.54,0,0,1-3.59,1.64,2,2,0,0,0-1.28,1.05l-4.18,8.43S590.05,440.22,601.07,435.78Z" transform="translate(-232.71 -231.98)"/><path class="cls-15" d="M601.28,438.22l-.14.06-6.63,3s-3.54,4.59-3.41,5.21c0,0,0,0,0,0,.22.17,2.43-2.81,4.76-4.87A19.92,19.92,0,0,1,601.28,438.22Z" transform="translate(-232.71 -231.98)"/><path class="cls-16" d="M598.9,441.75s-2.83,1.26-3.22,1.86-1.47,1.78-1.36,2.05S595.68,443.61,598.9,441.75Z" transform="translate(-232.71 -231.98)"/><path class="cls-17" d="M602.38,439s-1.53,5.6-4.29,7.08a56.2,56.2,0,0,0-5.16,3.16S600.88,443.61,602.38,439Z" transform="translate(-232.71 -231.98)"/><path class="cls-18" d="M604.25,438.48s.33,7-1.23,8.32-5.51,3.57-6,4.82-4.85.88-4.85.88a20,20,0,0,0,6.11-3.8A20.61,20.61,0,0,0,604.25,438.48Z" transform="translate(-232.71 -231.98)"/><path class="cls-19" d="M608.12,438.93l.35,9.9s-1.07,3.8-7.48,6.58-8.33.11-9.3.93S608.42,454.53,608.12,438.93Z" transform="translate(-232.71 -231.98)"/><path class="cls-18" d="M611.17,440.77s-1,16.91-6.08,18.53-13.65-.47-14.65-2.79c0,0,6.68,8.29,16.9,3.42C607.34,459.93,617.93,445,611.17,440.77Z" transform="translate(-232.71 -231.98)"/><path class="cls-18" d="M598.12,429.94s-9.67-.23-12,3.69-5.57,4.36-2.88,16.6c0,0-3.54-4.61-2.33-10.24s5.74-10.25,6.26-10.12S594.24,427.37,598.12,429.94Z" transform="translate(-232.71 -231.98)"/><path class="cls-20" d="M570.08,449.15l-3.06,3.5s19.08,12.29,19,19.87l4.06-1.73S581.66,453.79,570.08,449.15Z" transform="translate(-232.71 -231.98)"/><path class="cls-21" d="M569.11,450.25a78.93,78.93,0,0,1,19.12,21.19l-2.45,1.4-19-19.93Z" transform="translate(-232.71 -231.98)"/><path class="cls-11" d="M544.52,444.53a28.66,28.66,0,0,0-13.18-5.09c-12.63-1.39-25.68,6.48-33.91,19.77a51.54,51.54,0,0,0-2.68,49,33.27,33.27,0,0,1,3.63-23.5,32.63,32.63,0,0,1,14.76-13.13s9.87-4.34,13.28-2.25c0,0-3.14,7.25-10,7.37,0,0,7.77,3.37,20.7-5.19,0,0-5.59,8.66-10.63,8.93,0,0,3.82,5.38,15.68-2.12L554.94,473s-5.47,15.47-1.61,16.52c0,0,3.55-4.06,7.21-3.18,1,.24,2.6,1,4.3,4.15.74,1.39,3.86,7.66,1.61,18.18-2.41,11.2-9.11,18.84-13.08,22.66a59.17,59.17,0,0,0,23.69-17,45.54,45.54,0,0,0,9.38-16.64,37.66,37.66,0,0,0,.51-21.93,35,35,0,0,0-6.33-12C569.4,449.72,552.14,445.77,544.52,444.53Z" transform="translate(-232.71 -231.98)"/><path class="cls-22" d="M546.87,450.47c-3,.4-5.93.74-8.84,1.18a83.72,83.72,0,0,0-8.69.37,41.92,41.92,0,0,0-8.38,1.55c-.64.24-1.28.47-1.92.73s-1.27.58-1.89.92a28.64,28.64,0,0,0-3.56,2.23,36.54,36.54,0,0,0-6.18,5.82,59.77,59.77,0,0,0-5.23,6.86,48,48,0,0,0-3.95,7.6,66.06,66.06,0,0,0-4.05,7.86,40.69,40.69,0,0,1,1.27-9,51.62,51.62,0,0,1,4.2-8.08,62.11,62.11,0,0,1,5.49-7.2,38.68,38.68,0,0,1,6.68-6.28,30.09,30.09,0,0,1,3.93-2.46c.68-.38,1.38-.69,2.08-1s1.48-.57,2.22-.83a45.12,45.12,0,0,1,9-1.69c3-.29,6-.38,9-.41A66.73,66.73,0,0,1,546.87,450.47Z" transform="translate(-232.71 -231.98)"/><path class="cls-12" d="M548.49,454.6c-4.29.54-8.58.93-12.84,1.41-1.07.11-2.13.22-3.18.41a10.59,10.59,0,0,0-1.52.4,1.68,1.68,0,0,0-.62.35l-.33.31c-.12.08-.27.13-.4.2a4,4,0,0,1-1.68,0l-1.6-.25a7.07,7.07,0,0,0-3.11.19c-.24.08-.47.2-.71.29l-.66.39c-.4.31-.79.62-1.22,1-.83.7-1.71,1.35-2.59,2A52,52,0,0,0,513,465.2a80.56,80.56,0,0,0-8.58,9.55l-.08-.05a45.39,45.39,0,0,1,7.94-10.28,38.09,38.09,0,0,1,5.26-3.88c.9-.6,1.79-1.18,2.64-1.82a12.92,12.92,0,0,1,1.35-1l.77-.37c.27-.09.54-.19.81-.26a8.57,8.57,0,0,1,3.31,0,7.83,7.83,0,0,0,3.12.25c.1-.06.21-.11.31-.18l.25-.26a2.12,2.12,0,0,1,.73-.5,11.65,11.65,0,0,1,1.56-.56c1.06-.29,2.13-.51,3.2-.7a71.86,71.86,0,0,1,12.94-.68Z" transform="translate(-232.71 -231.98)"/><path class="cls-22" d="M559.75,458.76c-2.37.45-4.74.9-7.09,1.44s-4.68,1.05-7,1.66c-1.15.32-2.28.67-3.39,1.08s-2.23.71-3.35,1-2.23.59-3.31.92a9,9,0,0,0-3,1.5l-.27-.14a5.67,5.67,0,0,1,2.31-3.21,15.91,15.91,0,0,1,3.34-1.91,27.66,27.66,0,0,1,7.23-1.6c2.42-.38,4.85-.63,7.27-.8s4.85-.27,7.28-.25Z" transform="translate(-232.71 -231.98)"/><path class="cls-22" d="M563.41,461a20.4,20.4,0,0,1-4.31,6.71,12,12,0,0,1-3.23,2.46,5.67,5.67,0,0,1-4,.62,7.15,7.15,0,0,0,3.57-1.3,16.33,16.33,0,0,0,2.91-2.48A72.26,72.26,0,0,0,563.41,461Z" transform="translate(-232.71 -231.98)"/><path class="cls-12" d="M570.24,460.72a8.69,8.69,0,0,1,.22,2.76,8.79,8.79,0,0,1-.53,2.65c-.33.85-.88,1.63-1.19,2.46a12.12,12.12,0,0,0-.6,2.63,12.32,12.32,0,0,1-.62,2.67,14.68,14.68,0,0,1-1,2.53,10.85,10.85,0,0,1-3.85,4l-.14-.14c.66-1.75,1.36-3.27,2.1-4.83.35-.78.81-1.5,1.2-2.28l.63-1.15c.21-.38.47-.75.69-1.14a7.58,7.58,0,0,0,1-2.44,18.24,18.24,0,0,0,.19-2.67,12.49,12.49,0,0,1,.62-2.55A13,13,0,0,1,570,460.7Z" transform="translate(-232.71 -231.98)"/><path class="cls-22" d="M578.34,466.66c.08,1.24,0,2.47,0,3.7l-.51,3.63c-.36,2.42-.78,4.84-1.24,7.24s-1,4.8-1.61,7.18c-.31,1.19-.68,2.37-1.06,3.54l-.86,1.65c-.32.54-.66,1.06-1,1.58.17-.61.34-1.19.51-1.77l.41-1.78c.37-1.15.73-2.3,1-3.48.62-2.34,1.15-4.72,1.6-7.11s.87-4.79,1.23-7.2c.18-1.2.35-2.4.51-3.61C577.72,469,578,467.85,578.34,466.66Z" transform="translate(-232.71 -231.98)"/><path class="cls-12" d="M584.44,481.16a38.3,38.3,0,0,1-1.21,10.49,47.18,47.18,0,0,1-1.54,5.08c-.62,1.66-1.33,3.29-2.09,4.89a49.58,49.58,0,0,1-5.68,9,39,39,0,0,1-7.56,7.36l-.15-.13a74,74,0,0,0,18-36.7Z" transform="translate(-232.71 -231.98)"/><path class="cls-25" d="M527.1,499.57s3.1,4.11,7.57,3.34" transform="translate(-232.71 -231.98)"/><rect class="cls-26" x="498.53" y="483.81" width="29.71" height="20.08" rx="7.36" transform="translate(10.57 -397.3) rotate(23.83)"/><polygon class="cls-27" points="272.17 268.21 264.82 264.96 278.89 250.99 286.24 254.23 272.17 268.21"/><path class="cls-28" d="M517.15,505.6l-7.35-3.24,14.08-14,4,1.75a2.53,2.53,0,0,1,.76,4.11Z" transform="translate(-232.71 -231.98)"/><rect class="cls-29" x="498.53" y="483.81" width="29.71" height="20.08" rx="7.36" transform="translate(10.57 -397.3) rotate(23.83)"/><rect class="cls-26" x="533.4" y="498.88" width="29.71" height="20.08" rx="7.36" transform="translate(19.63 -410.1) rotate(23.83)"/><polygon class="cls-27" points="307.04 283.27 299.69 280.03 313.77 266.05 321.11 269.3 307.04 283.27"/><path class="cls-28" d="M552,520.67l-7.35-3.24,14.08-14,4,1.75a2.53,2.53,0,0,1,.76,4.11Z" transform="translate(-232.71 -231.98)"/><rect class="cls-29" x="533.4" y="498.88" width="29.71" height="20.08" rx="7.36" transform="translate(19.63 -410.1) rotate(23.83)"/><path class="cls-23" d="M634,650.5h0A40.5,40.5,0,0,1,593.5,691H378V610H593.5A40.5,40.5,0,0,1,634,650.5Z" transform="translate(-232.71 -231.98)"/><path class="cls-23" d="M598.82,781.89a6,6,0,0,0,2.73-10l-12.92-13.06-12.91-13.06a6,6,0,0,0-10,2.63l-4.85,17.72L556,783.83a6,6,0,0,0,7.29,7.37l.22-.06a6,6,0,0,1,7.31,4.28l11,41.82a6,6,0,0,0,7.31,4.28l12.15-3.19A6,6,0,0,0,605.5,831l-11-41.82a6,6,0,0,1,4.28-7.31Z" transform="translate(-232.71 -231.98)"/><path class="cls-23" d="M599.23,584.94a6,6,0,0,0,3.57-9.74L591,561.1,579.26,547A6,6,0,0,0,569,548.77L562.71,566l-6.33,17.25a6,6,0,0,0,6.64,8l.23,0a6,6,0,0,1,6.92,4.87l7.39,42.6a6,6,0,0,0,6.93,4.88l12.38-2.15a6,6,0,0,0,4.87-6.92l-7.39-42.6a6,6,0,0,1,4.87-6.93Z" transform="translate(-232.71 -231.98)"/></svg>