<svg id="Icons" xmlns="http://www.w3.org/2000/svg" viewBox="0 0 552 566.29"><defs><style>.cls-1{fill:none;stroke:#9e005d;stroke-linecap:square;stroke-linejoin:round;stroke-width:30px;}</style></defs><path class="cls-1" d="M673.08,450.88l-194,81a66.93,66.93,0,0,0-41.14,61.76V915.08A66.92,66.92,0,0,0,504.83,982h25.52a66.92,66.92,0,0,0,66.92-66.92V800.5A102.51,102.51,0,0,1,699.78,698h0a102.5,102.5,0,0,1,102.5,102.5V915.08A66.92,66.92,0,0,0,869.21,982H893a66.92,66.92,0,0,0,66.92-66.92V593.68a66.92,66.92,0,0,0-41.14-61.76l-194.11-81A66.92,66.92,0,0,0,673.08,450.88Z" transform="translate(-422.9 -430.71)"/></svg>