<svg id="Layer_5" data-name="Layer 5" xmlns="http://www.w3.org/2000/svg" viewBox="0 0 1576.21 820.47"><defs><style>.cls-1{fill:#2e5bbf;}.cls-2{fill:#2a53ad;}.cls-3{fill:#fffffd;}.cls-4{fill:#99e7ff;}.cls-5{fill:#bf3426;}.cls-6{fill:#ebebeb;}.cls-7{fill:#ffae84;}.cls-8{fill:#ffc3a8;}.cls-9{fill:#ff9566;}.cls-10{fill:#fe9126;}.cls-11{fill:#fff;}.cls-12{fill:#00bffb;}.cls-13{fill:#002169;}.cls-14{fill:#fffbff;}.cls-15{fill:#ffd24c;}.cls-16{fill:#203f85;}.cls-17{fill:#99e6fd;}.cls-18{fill:#21428a;}.cls-19{fill:#59d9fd;}.cls-20{fill:#0a81d1;}.cls-21{fill:#58d7fc;}.cls-22{fill:#ff8570;}.cls-23{fill:#fdc242;}.cls-24{fill:#a66e6e;}.cls-25{fill:#ffe8e8;}.cls-26{fill:#fd7d42;}.cls-27{fill:#7964ff;}.cls-28{fill:#0057c2;}.cls-29{fill:none;stroke:#db6856;stroke-linecap:round;stroke-linejoin:round;stroke-width:4px;}.cls-30{fill:#9e9e9e;}</style></defs><path class="cls-1" d="M1304.31,487.69c-20.71-12.44-33.7-37-32.32-61.13l6.29.36c-1.25,21.85,10.52,44.1,29.28,55.37Z" transform="translate(-258.11 -100.52)"/><path class="cls-2" d="M1225,850.64l-29.41-.1c1.88,12.74,9.91,60.89,11.33,70.45h29.4C1234.88,911.3,1226.86,863.23,1225,850.64Z" transform="translate(-258.11 -100.52)"/><path class="cls-3" d="M599.33,499.26A82.41,82.41,0,0,0,567,517c-13.13,11.89-21.67,28.17-26.92,45.09-4.77,15.32-7,31.27-9,47.21l-57,.26c0-.62-.08-1.23-.11-1.85q-1.28-21.52-2.55-43.08l-3.12-52.7L464.81,454q-1.74-29.37-3.48-58.76-1.62-27.6-3.26-55.22-1.41-23.62-2.8-47.26c-.38-6.52-2.46-14.93,3.28-19.71,5.13-4.27,13-3.52,19.15-3.55l20.61-.08,22.76-.08,24.6-.1,26.19-.09q13.74,0,27.48-.11l28.52-.1,29.27-.11,29.74-.11,29.94-.11,29.85-.11,29.5-.11,28.86-.11,28-.11,26.76-.09,25.3-.1,23.56-.09,21.54-.07,19.23-.08c5.55,0,11.14.18,16.68-.06,3.15-.14,5.17,2.91,5.62,5.69.65,4,.55,8.18.79,12.19q.76,12.71,1.5,25.42c0,.76.1,1.52.14,2.28q.72,12.33,1.46,24.64.78,13.47,1.6,26.94.83,14.31,1.69,28.63.87,14.88,1.76,29.76.9,15.12,1.79,30.26t1.78,30.18q.89,14.78,1.75,29.53.84,14.15,1.67,28.28.79,13.22,1.57,26.41.71,12,1.42,24l.9,15.34L812.2,608q4.13-15,7.7-30.18,3.75-15.85,6.9-31.87,1.38-7.08,2.65-14.18c.12-.61.23-1.23.34-1.84.92-5.24,1.47-10.65,2.67-15.84a6.73,6.73,0,0,1,2.49-3.49,21.93,21.93,0,0,0,3.22-3.65,21.21,21.21,0,0,0,3.61-9.08,11.74,11.74,0,0,0,8.36-8.63,11.34,11.34,0,0,0-4.45-11.37c2.77-2.84,4.46-7.19,3.49-11a9.82,9.82,0,0,0-8.47-7.17,10.62,10.62,0,0,0,.92-10.13,9.2,9.2,0,0,0-8.47-5c6.55-7.4,12.27-14.34,17.68-21.5,2.09-2.76,4.18-6.55,2.25-9.42a5.74,5.74,0,0,0-5.82-2,15.45,15.45,0,0,0-5.78,2.9c-11.09,7.83-20.75,17.47-30.15,27.29a42.72,42.72,0,0,0-21.06,53.55,38.75,38.75,0,0,1,1.63,3.84c.67,2.6-.64,5.53-1.43,7.94q-1.49,4.53-3,9L786.9,518l-5.37,16.25-11.94,36.18q-2.93,8.91-5.87,17.8l-65.74-76a74.23,74.23,0,0,0-15.34-9.61,75.08,75.08,0,0,0-23.49-6.76l-.27,0a8.17,8.17,0,0,0-.22-1c-.06-1.13-.14-2.37-.22-3.65,0-.68-.09-1.36-.13-2h11.24c8.42,0,16.23.55,24.22-2.82,12.39-5.22,21.62-17.59,22.48-31a34.66,34.66,0,0,0-10.7-26.8c-1.11-1.05-2.59-1.87-3.58-3a8.88,8.88,0,0,1-1.79-4.9c-.14-1.59.51-2.56,1-4a32.39,32.39,0,0,0,1.33-5c.2-1.11,0-2.68.39-3.71.9-2.58,5.09-3.92,7.23-5.14a47.24,47.24,0,0,0,7.91-5.62,39.94,39.94,0,0,0,11-15.54c4.79-12.46,1.81-28-8.48-36.53-6.91-5.71-16.26-7.83-25.21-7.36-2.87.16-6.27.28-9,1.24a20.08,20.08,0,0,1-6.51,1.49,25,25,0,0,1-14.26-4c-6.26-4.05-12.3-7.52-19.6-9.44-11.68-3.07-24.11-2.65-35.88,0-22.58,5.12-43.35,18.86-55.74,38.42a79.2,79.2,0,0,0-12.05,37.24c-.65,10.37.75,21.43-4.14,31s-11.91,15.95-12.9,27.22c-1.22,13.84,6.44,28.24,18.93,34.33,11.86,5.78,27.36,3.23,36.46-6.21h37c.21,2.19.43,4.38.64,6.57l-.16,0c-2.85.23-5.7.59-8.52,1.08A92.53,92.53,0,0,0,599.33,499.26Z" transform="translate(-258.11 -100.52)"/><polygon class="cls-4" points="726.28 376.89 506.31 376.75 487.1 167.8 460.8 167.45 482.06 400.25 727.38 400.78 726.28 376.89"/><path class="cls-5" d="M1602.89,767.22a21.59,21.59,0,0,1-7.23-17.85q.27-3.18.64-6.34c13.49,9.59,27.2,19.09,42.11,26.09a40.06,40.06,0,0,1-9,3.75,31.68,31.68,0,0,1-11.3,1.06A26,26,0,0,1,1602.89,767.22Z" transform="translate(-258.11 -100.52)"/><path class="cls-6" d="M1241.76,815.53v12.83l-239,.48-.08-34.37.88.07c18.34-20.39,48.25-29.39,74.86-23q14.74,6.72,29.87,12.53c23.18,9,46.88,16.48,70.78,23.28q9.32,2.64,18.67,5.15c13.79,3.71,28.37,7.25,42.18,3.59C1240.56,815.9,1241.16,815.72,1241.76,815.53Z" transform="translate(-258.11 -100.52)"/><path class="cls-7" d="M689.5,421.73c0-1.54-.07-3.06-.12-4.58a5.67,5.67,0,0,1-.2.67c-2.25,6.94-7.76,13.33-15,14.45s-14.57-3.46-18.25-9.81-4.25-14-3.42-21.22a14.28,14.28,0,0,0-12.26.44c.83,7.26.26,14.95-3.41,21.26s-11,10.95-18.25,9.81-12.71-7.5-15-14.45c-2.14-6.59-1.93-13.69-2.16-20.29q-3.72,1-7.49,1.8l0,.18a54.62,54.62,0,0,1-5.78,17.54q-1.12,2.1-2.42,4.1a39.23,39.23,0,0,0-2.58,3.67c-1,2.12-.84,5.7-.2,7.91.77,2.66,2,5.23,2.82,7.87a79.82,79.82,0,0,1,3.8,16.43,49.46,49.46,0,0,1,.11,10.18,110.95,110.95,0,0,0,49.55,11.49,83.82,83.82,0,0,0,18.12-2c9.45-2.14,18.34-6.19,25.3-12.83C694.08,453.54,698.44,434.6,689.5,421.73Z" transform="translate(-258.11 -100.52)"/><path class="cls-8" d="M1001.44,754.44c-.67.27-1.36.51-2.06.74-4.11,1.26-9.11,1-12.47-1.38a8.53,8.53,0,0,1-2.57-2.8,9.18,9.18,0,0,1-1.17-4.34A9.53,9.53,0,0,1,972,749c-4.44-2.13-6.89-7.24-7-12.17s1.86-9.66,4.27-14a61.42,61.42,0,0,1,74.4-27.69c11,3.87,21.86,7.74,33.23,10.06,6.52,1.33,14,.66,20.64.93,7.07.3,14.12.61,21.19.95,28.14,1.32,56.28,2.93,84.41,4.54l5.9.34c8.57-11.11,15.4-20.08,21.31-28l70,87.8-28.7,24.43c-9.09,7.75-18.6,15.71-30,19.24-.6.19-1.2.37-1.81.52-13.81,3.66-28.39.12-42.18-3.59q-9.36-2.51-18.67-5.15c-23.9-6.8-47.6-14.32-70.78-23.28q-15.12-5.84-29.87-12.53l-4.34-2q-8.41-3.94-16.67-8.2c-4.41-2.29-10.27-4.5-15.3-4.56a55.17,55.17,0,0,1-9.59-.66,46.46,46.46,0,0,1-6.26-1.64,42.41,42.41,0,0,1-11.52-5.94C1010.06,749.79,1006,752.63,1001.44,754.44Z" transform="translate(-258.11 -100.52)"/><path class="cls-4" d="M659.15,495.8a74.91,74.91,0,0,1,14.23,3.09,25.09,25.09,0,0,1-1.29,13.74c-2,4.75-6.37,8.7-11.51,9.34-6.82.86-13.49-4.61-15.07-11.31l0-.09a17.63,17.63,0,0,0,10.29-5.14,11.73,11.73,0,0,0,3.1-9.59Z" transform="translate(-258.11 -100.52)"/><path class="cls-9" d="M658.31,489.17c0,.68.09,1.36.13,2A61,61,0,0,1,617,481.11c-.13-1.4-.27-2.8-.4-4.21a108.7,108.7,0,0,0,22.76,2.28,83.82,83.82,0,0,0,18.12-2C657.58,478.71,658,484,658.31,489.17Z" transform="translate(-258.11 -100.52)"/><path class="cls-10" d="M1009,599.7c.15,2.46.29,4.93.43,7.38l-18,.09-.9-15.34q-.72-12-1.42-24-.79-13.2-1.57-26.41-.83-14.14-1.67-28.28-.87-14.76-1.75-29.53-.88-15.08-1.78-30.18t-1.79-30.26q-.89-14.9-1.76-29.76-.86-14.32-1.69-28.63-.81-13.47-1.6-26.94-.72-12.32-1.46-24.64c0-.76-.09-1.52-.14-2.28q-.75-12.71-1.5-25.42c-.24-4-.14-8.22-.79-12.19-.45-2.78-2.47-5.83-5.62-5.69-5.54.24-11.13,0-16.68.06l-19.23.08-21.54.07-23.56.09-25.3.1-26.76.09-28,.11-28.86.11-29.5.11-29.85.11-29.94.11-29.74.11-29.27.11-28.52.1q-13.74.08-27.48.11l-26.19.09-24.6.1-22.76.08-20.61.08c-6.16,0-14-.72-19.15,3.55-5.74,4.78-3.66,13.19-3.28,19.71q1.41,23.63,2.8,47.26,1.64,27.61,3.26,55.22,1.76,29.38,3.48,58.76l3.43,57.93,3.12,52.7q1.27,21.54,2.55,43.08c0,.62.08,1.23.11,1.85l-18.5.08q-1.44-24.86-2.9-49.71-1.62-28-3.27-56-1.69-29.31-3.41-58.6-1.67-28.8-3.35-57.57-1.54-26.49-3.09-52.94-1.31-22.33-2.6-44.69c-.22-3.8-1.24-8.19-.73-11.88a29.12,29.12,0,0,1,8.9-17.07c10.05-9.31,23.3-7.51,35.91-7.55l33.24-.13,37.85-.14q20.71-.09,41.45-.15l44-.17,45.59-.17q23.07-.09,46.13-.18l45.68-.16,44.18-.17q20.85-.06,41.7-.15,19.08-.07,38.18-.15l33.67-.12,28.12-.11c2.6,0,5.34-.28,7.89-.12,5.63.33,11.43,3.89,15.05,8.05,5.68,6.51,6.27,15.17,6.75,23.39q.43,7.56.88,15.1,1,17.85,2.09,35.7l2.43,41.43q1.32,22.59,2.65,45.19,1.38,23.47,2.75,47l2.74,46.84q1.34,22.36,2.63,44.73Q1007.84,579.38,1009,599.7Z" transform="translate(-258.11 -100.52)"/><path class="cls-11" d="M652.54,401.24c0-.05,0-.1,0-.16a28.5,28.5,0,0,1,18.78-9.82,30,30,0,0,1,17,3.37c.43,7.43.82,14.9,1,22.52a5.67,5.67,0,0,1-.2.67c-2.25,6.94-7.76,13.33-15,14.45s-14.57-3.46-18.25-9.81S651.71,408.5,652.54,401.24Z" transform="translate(-258.11 -100.52)"/><path class="cls-12" d="M582.33,609l-51.29.23c2-15.94,4.25-31.89,9-47.21,5.25-16.92,13.79-33.2,26.92-45.09a82.41,82.41,0,0,1,32.35-17.69c-3.2,5-2.87,11.91-.33,17.39,2.86,6.16,8,10.93,13.77,15.19a289.41,289.41,0,0,1,10.23,77Z" transform="translate(-258.11 -100.52)"/><path class="cls-11" d="M640.28,401.68c.83,7.26.26,14.95-3.41,21.26s-11,10.95-18.25,9.81-12.71-7.5-15-14.45c-2.14-6.59-1.93-13.69-2.16-20.29a106.32,106.32,0,0,0,18.16-6.39c.61,0,1.23.06,1.84.12a28.46,28.46,0,0,1,18.78,9.84S640.28,401.65,640.28,401.68Z" transform="translate(-258.11 -100.52)"/><path class="cls-7" d="M688.11,390.7c.08,1.31.16,2.61.23,3.93a30,30,0,0,0-17-3.37,28.5,28.5,0,0,0-18.78,9.82c0,.06,0,.11,0,.16a14.28,14.28,0,0,0-12.26.44s0-.07,0-.1a28.46,28.46,0,0,0-18.78-9.84c-.61-.06-1.23-.11-1.84-.12,1.13-.52,2.24-1.08,3.34-1.66,13-6.88,24.39-18.51,27.33-32.93l.08,0a33.06,33.06,0,0,1,26.18,8.16C683.59,371.54,687.61,381,688.11,390.7Z" transform="translate(-258.11 -100.52)"/><path class="cls-11" d="M601.44,397a30,30,0,0,1,18.21-5.36A106.32,106.32,0,0,1,601.49,398C601.48,397.66,601.46,397.32,601.44,397Z" transform="translate(-258.11 -100.52)"/><path class="cls-11" d="M691.39,396.5c-.31,6.67,0,13.9-2,20.65-.22-7.62-.61-15.09-1-22.52A27.39,27.39,0,0,1,691.39,396.5Z" transform="translate(-258.11 -100.52)"/><path class="cls-13" d="M594,399.81l0,.18a54.62,54.62,0,0,1-5.78,17.54q-1.12,2.1-2.42,4.1a39.23,39.23,0,0,0-2.58,3.67c-1,2.12-.84,5.7-.2,7.91.77,2.66,2,5.23,2.82,7.87a79.82,79.82,0,0,1,3.8,16.43,49.46,49.46,0,0,1,.11,10.18c-.65,7.27-3,14.33-7.63,19.9-.46.55-.93,1.07-1.42,1.58-9.1,9.44-24.6,12-36.46,6.21-12.49-6.09-20.15-20.49-18.93-34.33,1-11.27,8.08-17.78,12.9-27.22s3.49-20.65,4.14-31a79.2,79.2,0,0,1,12.05-37.24c12.39-19.56,33.16-33.3,55.74-38.42,11.77-2.67,24.2-3.09,35.88,0,7.3,1.92,13.34,5.39,19.6,9.44a25,25,0,0,0,14.26,4,20.08,20.08,0,0,0,6.51-1.49c2.73-1,6.13-1.08,9-1.24,9-.47,18.3,1.65,25.21,7.36,10.29,8.5,13.27,24.07,8.48,36.53a39.94,39.94,0,0,1-11,15.54,47.24,47.24,0,0,1-7.91,5.62c-2.14,1.22-6.33,2.56-7.23,5.14-.36,1-.19,2.6-.39,3.71a32.39,32.39,0,0,1-1.33,5c-.53,1.44-1.18,2.41-1,4a8.88,8.88,0,0,0,1.79,4.9c1,1.1,2.47,1.92,3.58,3a34.66,34.66,0,0,1,10.7,26.8c-.86,13.42-10.09,25.79-22.48,31-8,3.37-15.8,2.82-24.22,2.82H658.31c-.34-5.15-.73-10.46-.85-12,9.45-2.14,18.34-6.19,25.3-12.83,11.32-10.83,15.68-29.77,6.74-42.64,0-1.54-.07-3.06-.12-4.58,2-6.75,1.7-14,2-20.65a27.39,27.39,0,0,0-3-1.87c-.07-1.32-.15-2.62-.23-3.93-.5-9.67-4.52-19.16-11.53-25.49a33.06,33.06,0,0,0-26.18-8.16l-.08,0C647.38,371.45,636,383.08,623,390c-1.1.58-2.21,1.14-3.34,1.66A30,30,0,0,0,601.44,397c0,.34,0,.68,0,1Q597.77,399,594,399.81Z" transform="translate(-258.11 -100.52)"/><path class="cls-7" d="M811.34,441.76c9.4-9.82,19.06-19.46,30.15-27.29a15.45,15.45,0,0,1,5.78-2.9,5.74,5.74,0,0,1,5.82,2c1.93,2.87-.16,6.66-2.25,9.42-5.41,7.16-11.13,14.1-17.68,21.5a9.2,9.2,0,0,1,8.47,5,10.62,10.62,0,0,1-.92,10.13,9.82,9.82,0,0,1,8.47,7.17c1,3.83-.72,8.18-3.49,11a11.34,11.34,0,0,1,4.45,11.37,11.74,11.74,0,0,1-8.36,8.63,21.21,21.21,0,0,1-3.61,9.08,21.93,21.93,0,0,1-3.22,3.65,6.73,6.73,0,0,0-2.49,3.49c-1.2,5.19-1.75,10.6-2.67,15.84-.11.61-.22,1.23-.34,1.84L786.9,518l.59-1.83q1.5-4.51,3-9c.79-2.41,2.1-5.34,1.43-7.94a38.75,38.75,0,0,0-1.63-3.84,42.72,42.72,0,0,1,21.06-53.55Z" transform="translate(-258.11 -100.52)"/><path class="cls-13" d="M617,481.11c.27,2.69.52,5.37.78,8.06h-37c.49-.51,1-1,1.42-1.58,4.62-5.57,7-12.63,7.63-19.9a109.74,109.74,0,0,0,26.79,9.21C616.71,478.31,616.85,479.71,617,481.11Z" transform="translate(-258.11 -100.52)"/><path class="cls-7" d="M617.76,489.17c-.26-2.69-.51-5.37-.78-8.06a61,61,0,0,0,41.46,10.1c.08,1.28.16,2.52.22,3.65a8.17,8.17,0,0,1,.22,1,11.73,11.73,0,0,1-3.1,9.59,17.63,17.63,0,0,1-10.29,5.14l-.44.07a26,26,0,0,1-26.75-14.79l-.06-.07.16,0C618.19,493.55,618,491.36,617.76,489.17Z" transform="translate(-258.11 -100.52)"/><path class="cls-4" d="M645.05,510.64l.44-.07,0,.09c-.39,6.49-6.24,12.56-13,13.75s-14-2.11-18.15-7.58-5.58-12.79-4.54-19.61l-.06-.36c2.82-.49,5.67-.85,8.52-1.08l.06.07A26,26,0,0,0,645.05,510.64Z" transform="translate(-258.11 -100.52)"/><path class="cls-14" d="M682.64,502.56c1.48,4.78.66,10.19-1.38,14.82-2.36,5.33-6.18,9.84-8.48,13.39a622.19,622.19,0,0,0,2.4,77.83l-52.18.24a289.41,289.41,0,0,0-10.23-77c-5.76-4.26-10.91-9-13.77-15.19-2.54-5.48-2.87-12.41.33-17.39a92.53,92.53,0,0,1,10.39-2.4l.06.36c-1,6.82.35,14.13,4.54,19.61s11.36,8.76,18.15,7.58,12.65-7.26,13-13.75c1.58,6.7,8.25,12.17,15.07,11.31,5.14-.64,9.47-4.59,11.51-9.34a25.09,25.09,0,0,0,1.29-13.74A75.56,75.56,0,0,1,682.64,502.56Z" transform="translate(-258.11 -100.52)"/><path class="cls-12" d="M714.94,608.42l-39.76.18a622.19,622.19,0,0,1-2.4-77.83c2.3-3.55,6.12-8.06,8.48-13.39,2-4.63,2.86-10,1.38-14.82A74.23,74.23,0,0,1,698,512.17l65.74,76q2.94-8.9,5.87-17.8l11.94-36.18L786.9,518l42.55,13.79q-1.28,7.1-2.65,14.18-3.15,16-6.9,31.87Q816.33,593,812.2,608Z" transform="translate(-258.11 -100.52)"/><path class="cls-15" d="M582.33,609l40.67-.18,52.18-.24,39.76-.18L812.2,608l179.29-.81,18-.09q.81,13.63,1.6,27.26c0,10,4,20.83-2.9,29.56-9.22,11.63-26.2,10.38-39.53,10.44l-32.62.12-38.36.14-42.85.17-46.14.16q-22.53.11-45,.17h-3.16l-49.05.18-35.77.14-12.9.05-47.06.17-44.24.17-40.21.14q-17.46.09-34.94.14c-13.21,0-23.93-3.36-31.74-15.11-8.94-13.44-9-35.72-9-51.27a.57.57,0,0,0,0-.13l18.5-.08,57-.26Z" transform="translate(-258.11 -100.52)"/><path class="cls-8" d="M1490,501.88q-.54,11.65-1.09,23.32a53.65,53.65,0,0,1-37,22.62c-15.29,1.91-38.83-4.06-42.35-15.3a.13.13,0,0,0,0-.06A124,124,0,0,0,1490,501.88Z" transform="translate(-258.11 -100.52)"/><path class="cls-1" d="M1365,500.52a198.8,198.8,0,0,0-26.54,56.32c-4.91,3.3-9.7,6.87-14.42,10.71-5.32,4.35-10.39,9-15.24,13.8a224.27,224.27,0,0,1,34.57-90.63A155.48,155.48,0,0,0,1365,500.52Z" transform="translate(-258.11 -100.52)"/><path class="cls-11" d="M676.17,827.58A24.58,24.58,0,0,1,655,814.64c-4.34-8.2-3.74-18.63,1-26.59A33.6,33.6,0,0,1,676.73,773q26.71.12,53.63.42,32.42.4,65.16,1.14l-.29,39.8-.1,14.92-119,.24Z" transform="translate(-258.11 -100.52)"/><path class="cls-16" d="M372.72,649.64l3.06,6.85c-1.56.18-3.11.38-4.66.58Z" transform="translate(-258.11 -100.52)"/><path class="cls-17" d="M375.78,656.49l4.7,10.52-11.69.9,2.33-10.84C372.67,656.87,374.22,656.67,375.78,656.49Z" transform="translate(-258.11 -100.52)"/><path class="cls-11" d="M1002.71,794.47c-53.66-4.64-113-4.84-165.69-2.4,0-.22,0-.44,0-.65,12.26-22.9,38.14-36.93,64.73-41.93s54.06-1.93,80.67,3c1.74.32,2.65,1.11,4.37,1.5l.14-.2c3.36,2.38,8.36,2.64,12.47,1.38.7-.23,1.39-.47,2.06-.74h24.85a46.46,46.46,0,0,0,6.26,1.64,55.17,55.17,0,0,0,9.59.66c5,.06,10.89,2.27,15.3,4.56q8.25,4.26,16.67,8.2l4.34,2c-26.61-6.35-56.52,2.65-74.86,23Z" transform="translate(-258.11 -100.52)"/><polygon class="cls-16" points="193.15 550.08 194.48 556.81 189.68 555.99 193.15 550.08"/><path class="cls-18" d="M702.65,854.16q-2.79,18.89-5.59,37.77H322.21q2.7-18.23,5.39-36.46Z" transform="translate(-258.11 -100.52)"/><path class="cls-2" d="M322.21,891.93q-2.15,14.54-4.3,29.06h-29.4q4.85-32.72,9.68-65.41l29.41-.11Q324.91,873.7,322.21,891.93Z" transform="translate(-258.11 -100.52)"/><path class="cls-12" d="M644.17,772.92q16.23,0,32.56.06a33.6,33.6,0,0,0-20.66,15.07c-4.77,8-5.37,18.39-1,26.59a24.58,24.58,0,0,0,21.13,12.94v1.92l-121.2.25v-2.17a24.57,24.57,0,0,1-21.13-12.94c-4.34-8.2-3.74-18.63,1-26.59a32,32,0,0,1,22.55-14.69Q600.51,773,644.17,772.92Z" transform="translate(-258.11 -100.52)"/><polygon class="cls-17" points="194.48 556.81 196.3 565.93 184.91 564.13 189.68 555.99 194.48 556.81"/><path class="cls-19" d="M340.5,660.39q5.7,25.56,11.42,51.12h-12q-5.41-24.27-10.85-48.55Z" transform="translate(-258.11 -100.52)"/><path class="cls-15" d="M837.3,829.18l-42.17.08.1-14.92h42C837.25,819.31,837.25,824.3,837.3,829.18Z" transform="translate(-258.11 -100.52)"/><path class="cls-20" d="M380.48,667q1.68,22.25,3.35,44.5H372.06l-3.27-43.6Z" transform="translate(-258.11 -100.52)"/><path class="cls-2" d="M697.06,891.93q2.81-18.88,5.59-37.77l29.41-.11q-2.8,19.13-5.65,38.23-2.11,14.36-4.25,28.71h-29.4Q694.91,906.46,697.06,891.93Z" transform="translate(-258.11 -100.52)"/><path class="cls-21" d="M392.3,711.41c1.58-46.18,3-100.4,4.69-140.77h22.54c-1.26,29.7-2.35,66.89-3.46,102.87v.25l-4.57-.18q-.78,18.95-1.54,37.88v0H392.3Z" transform="translate(-258.11 -100.52)"/><path class="cls-20" d="M423.21,674q-.76,18.74-1.54,37.47H410v0q.76-18.94,1.54-37.88l4.57.18Z" transform="translate(-258.11 -100.52)"/><path class="cls-6" d="M837.25,814.34c0-7.63,0-15.21-.23-22.27,52.67-2.44,112-2.24,165.69,2.4l.08,34.37-165.49.34C837.25,824.3,837.25,819.31,837.25,814.34Z" transform="translate(-258.11 -100.52)"/><path class="cls-19" d="M454.4,666.45q-4.09,22.41-8.18,44.84v.12c-.55,0-1.07.1-1.46.1H434.48v-.1Q438.74,688,443,664.65Z" transform="translate(-258.11 -100.52)"/><path class="cls-12" d="M351.92,711.51h92.85c.39,0,.91-.06,1.46-.1,1.54-.1,3.4-.1,3.74,1.44.22.94-.26,2.46-.37,3.42q-.45,3.93-.91,7.84-1.11,9.78-2.25,19.56-1.31,11.28-2.6,22.54l-2.64,22.88-2.37,20.58q-.91,7.82-1.8,15.62c-.19,1.57-.37,3.13-.54,4.7l-86.7.17-.16-1.39c-.52-4.5-1.05-9-1.56-13.52q-1.12-9.66-2.23-19.31-1.29-11.24-2.59-22.45-1.32-11.49-2.65-23-1.19-10.39-2.39-20.77c-.62-5.34-1.21-10.66-1.85-16-.25-2.16,1-2.27,2.71-2.27h12.85Z" transform="translate(-258.11 -100.52)"/><path class="cls-22" d="M1490,500.28c0,.53,0,1.07-.07,1.6a124,124,0,0,1-80.46,30.58c.73-7,1.48-14.22,2.23-21.41,22.58,2.25,45.55.58,67-6.51C1482.6,503.28,1486.36,501.85,1490,500.28Z" transform="translate(-258.11 -100.52)"/><path class="cls-23" d="M1763.08,415.2l17.62,35.35a54.68,54.68,0,0,0-12.23,9l-18.81-37.7,0-.52a102.06,102.06,0,0,0,13.06-5.89Z" transform="translate(-258.11 -100.52)"/><path class="cls-10" d="M1645,619l-60-47c-28.06-22-60.28-47.11-96-46.53l-.23-.16v0a53.63,53.63,0,0,1-37,22.62c-15.29,1.91-38.83-4.06-42.35-15.3,0,0,0,0,0-.06-.89,0-1.79,0-2.68,0-27.14,2.8-48.77,11.31-68.35,24.39-4.91,3.3-9.7,6.87-14.42,10.71-5.32,4.35-10.39,9-15.24,13.8-17.13,17-31.63,36.76-45.44,56.66-12,17.36-20.43,29.29-33,46l70,87.8c1.22,1.51,2.42,3,3.63,4.55q.7-4.44,1.43-8.87,5.54-34,11.76-67.86c7.57-57.53,40-112.24,87.53-147a63,63,0,0,0,43.17,15.68,62.19,62.19,0,0,0,27.1-7.29c17,80.87,67.25,148.39,105.21,186a263.09,263.09,0,0,0,22.65,20.17,21.59,21.59,0,0,1-7.23-17.85q.27-3.18.64-6.34c2.42-20.79,8.27-41.25,18.21-59.65,10.92-20.28,28.34-38.83,48.14-50.58Z" transform="translate(-258.11 -100.52)"/><path class="cls-8" d="M1827.14,489.13a28.77,28.77,0,0,1,.73,10.75,6.92,6.92,0,0,0-1.37-.14,16.31,16.31,0,0,0-6.4,1.58,48.34,48.34,0,0,0-21.82,18.43l-.49.8c-3.73,1.35-8.3-.27-10.77-3.46-2.68-3.47-3.1-8.32-1.88-12.52a20.5,20.5,0,0,1,1.22-3.13,31.07,31.07,0,0,1,5.75-7.84,49.79,49.79,0,0,1,16.9-11.35,18.35,18.35,0,0,1,9-1.67,9.93,9.93,0,0,1,2.14.5C1823.57,482.33,1826,485.6,1827.14,489.13Z" transform="translate(-258.11 -100.52)"/><path class="cls-8" d="M1768.47,459.51a54.68,54.68,0,0,1,12.23-9c1.44-.78,2.91-1.51,4.4-2.17a30,30,0,0,1,11.4-3,15.14,15.14,0,0,1,10.9,3.84c2.84,2.75,4.15,7.19,2.65,10.84v.13a22.74,22.74,0,0,0-6.14,1.41,59.43,59.43,0,0,0-22.59,14.55,33.2,33.2,0,0,0-5.15,6.61,6.79,6.79,0,0,1-2.57-1,38.38,38.38,0,0,0,3.3-2.82c2.87-2.75,5.33-6.23,5.67-10.2s-2.1-8.32-6-9.07c-2.88-.54-5.72.88-8.35,2.18-1,.48-2,.95-3,1.4l0-.12A44.57,44.57,0,0,1,1768.47,459.51Z" transform="translate(-258.11 -100.52)"/><path class="cls-1" d="M1565.68,149c-.36-.75-.8-1.53-1.3-2.35,23.3,7.4,33.6,21.9,38.55,33.07a76.24,76.24,0,0,1,3.85,11.05c11.61,42,11.68,85.75,8.51,129.43q-.81,11.31-1.88,22.6c-5.12,44.62-23.79,34.65-25.94,28.61s-1.69-12.66-1.31-19.07q1.14-19.49,1-39c0-1.37,0-2.74,0-4.1-.63-47.88-6.68-95.71-15.73-142.79A68.62,68.62,0,0,0,1565.68,149Z" transform="translate(-258.11 -100.52)"/><path class="cls-10" d="M1280.64,394.55a164.75,164.75,0,0,0,9.06,35.62l-.44.17c-11.15,2.09-23.45-1.45-31.2-9.83-8-8.62-10.82-20.77-12-32.45a149.28,149.28,0,0,1,2.76-46.85c2-9.11,5.1-18.41,11.69-25,4.83-4.82,12-7.74,18.58-7.05-.49,18.32-1.43,36.65-1,55A253.21,253.21,0,0,0,1280.64,394.55Z" transform="translate(-258.11 -100.52)"/><path class="cls-15" d="M1602.71,425a45.88,45.88,0,0,1-15.28,9.36h0c-13.24,1.65-23.32-9.53-28.53-20.54-5.75-12.13-6.72-26-5.87-39.36,1-16,4.78-32.42,14.53-45.16,5.28-6.89,12-12.71,19.59-16q.15,19.5-1,39c-.38,6.41-.84,13,1.31,19.07s20.82,16,25.94-28.61q1-11.28,1.88-22.6h.2a39,39,0,0,1,8.38,12,54.83,54.83,0,0,1,4.21,14.25c2,12.68-.4,25.66-3.83,38a133.26,133.26,0,0,1-6.45,18.6,70.09,70.09,0,0,1-10.89,17.69A45.93,45.93,0,0,1,1602.71,425Z" transform="translate(-258.11 -100.52)"/><path class="cls-24" d="M1409.51,532.46a.13.13,0,0,1,0,.06s0,0,0-.06Z" transform="translate(-258.11 -100.52)"/><path class="cls-8" d="M1776.18,482.77a33.2,33.2,0,0,1,5.15-6.61,59.43,59.43,0,0,1,22.59-14.55,22.74,22.74,0,0,1,6.14-1.41,9.67,9.67,0,0,1,6.48,1.59c2.64,1.92,3.8,5.38,3.74,8.64s-1.14,6.4-2.22,9.49l-.1.66a18.35,18.35,0,0,0-9,1.67,49.79,49.79,0,0,0-16.9,11.35,31.07,31.07,0,0,0-5.75,7.84c-3.58,1.59-8.15-.05-10.46-3.25-2.4-3.35-2.61-7.92-1.33-11.83A19.53,19.53,0,0,1,1776.18,482.77Z" transform="translate(-258.11 -100.52)"/><path class="cls-13" d="M1607.71,432.68c2.24,4,3.69,8.21,2.43,12.45-1.41,4.78-6.22,8.09-11.17,8.58a17.21,17.21,0,0,1-13.43-4.85c-1.21,9.55-10.5,16.44-20,18.08-8.08,1.4-16.29-.16-24.3-2.15l-.23-.22a193.39,193.39,0,0,0,23.7-29.77l0,0a31.82,31.82,0,0,0,6.51,1.54,34.8,34.8,0,0,0,16.18-1.92h0a45.88,45.88,0,0,0,15.28-9.36c.38.59.77,1.16,1.16,1.71A66.39,66.39,0,0,1,1607.71,432.68Z" transform="translate(-258.11 -100.52)"/><path class="cls-8" d="M1541,412.36c-5.74-12.12-6.72-26-5.87-39.36a107.49,107.49,0,0,1,3.84-23.31l-.8-.23a90,90,0,0,1-8.88-14.86,99.24,99.24,0,0,1-5.79-16.06c-1.35-4.94-4.64-7.26-8.68-10.14a68.64,68.64,0,0,1-21.47-25.15c-6.37-12.84-8.82-27.2-8.3-41.58A127.94,127.94,0,0,1,1411.64,270c-18.65.94-38.14-2.59-53.22-13.59a53.65,53.65,0,0,1-9.66-9.09c-17.76,14.22-38,25.21-60.32,28.9a90.74,90.74,0,0,1-9.31,1c.39,10.61.26,21.25,0,31.89-.49,18.32-1.43,36.65-1,55a253.21,253.21,0,0,0,2.5,30.44,164.75,164.75,0,0,0,9.06,35.62,116.28,116.28,0,0,0,14.93,27.51,106.13,106.13,0,0,0,7.23,8.72,122.94,122.94,0,0,0,31.51,24.32,155.48,155.48,0,0,0,21.63,9.8,185.28,185.28,0,0,0,29.88,8.12q8.36,1.55,16.86,2.41c22.58,2.25,45.55.58,67-6.51,3.82-1.26,7.58-2.69,11.26-4.26,1.11-.49,2.2-1,3.3-1.48A160.5,160.5,0,0,0,1541,464.57a193.39,193.39,0,0,0,23.7-29.77l0,0C1554.33,431.15,1545.78,422.44,1541,412.36Z" transform="translate(-258.11 -100.52)"/><path class="cls-16" d="M1629.37,772.87l.05.13-12.48,148h-50c4.18-56.77,9.21-117.4,13.33-173.94a263.09,263.09,0,0,0,22.65,20.17,26,26,0,0,0,15.18,6.71A31.68,31.68,0,0,0,1629.37,772.87Z" transform="translate(-258.11 -100.52)"/><path class="cls-1" d="M1656.54,776,1643.6,921h-26.66l12.48-148-.05-.13a40.06,40.06,0,0,0,9-3.75c3.39,1.58,6.83,3,10.35,4.35Q1652.59,774.88,1656.54,776Z" transform="translate(-258.11 -100.52)"/><path class="cls-24" d="M1493.34,498.8q-1.66,1.59-3.37,3.08c0-.53,0-1.07.07-1.6C1491.15,499.79,1492.24,499.31,1493.34,498.8Z" transform="translate(-258.11 -100.52)"/><circle class="cls-8" cx="1196.82" cy="256.21" r="14.44"/><path class="cls-24" d="M1409.49,532.46c-.89,0-1.79,0-2.68,0,.86-.11,1.73-.19,2.6-.26A2.76,2.76,0,0,0,1409.49,532.46Z" transform="translate(-258.11 -100.52)"/><path class="cls-10" d="M1587.1,309.22c0,1.36,0,2.73,0,4.1-7.56,3.3-14.31,9.12-19.59,16-9.75,12.74-13.51,29.14-14.53,45.16-.85,13.38.12,27.23,5.87,39.36,5.21,11,15.29,22.19,28.53,20.54a34.8,34.8,0,0,1-16.18,1.92,31.82,31.82,0,0,1-6.51-1.54c-10.4-3.62-19-12.33-23.72-22.41-5.74-12.12-6.72-26-5.87-39.36a107.49,107.49,0,0,1,3.84-23.31,65.91,65.91,0,0,1,10.69-21.85C1558.86,315.84,1572.52,307.1,1587.1,309.22Z" transform="translate(-258.11 -100.52)"/><path class="cls-1" d="M1260.52,316.2c-6.59,6.6-9.68,15.9-11.69,25a151.34,151.34,0,0,0-3.15,22h-.07a225.2,225.2,0,0,1,23.66-85.93,87.66,87.66,0,0,0,9.86,0c.39,10.61.26,21.25,0,31.89C1272.5,308.46,1265.35,311.38,1260.52,316.2Z" transform="translate(-258.11 -100.52)"/><path class="cls-16" d="M1406.81,532.45c-27.14,2.8-48.77,11.31-68.35,24.39A198.8,198.8,0,0,1,1365,500.52a185.28,185.28,0,0,0,29.88,8.12q8.36,1.55,16.86,2.41c-.75,7.19-1.5,14.42-2.23,21.41h0a2.76,2.76,0,0,1-.08-.27C1408.54,532.26,1407.67,532.34,1406.81,532.45Z" transform="translate(-258.11 -100.52)"/><path class="cls-16" d="M1585.07,571.92c-28.06-22-60.28-47.11-96-46.53l-.23-.16v0q.55-11.66,1.09-23.32,1.71-1.49,3.37-3.08A160.5,160.5,0,0,0,1541,464.57l.23.22c8,2,16.22,3.55,24.3,2.15,9.5-1.64,18.79-8.53,20-18.08a17.21,17.21,0,0,0,13.43,4.85c5-.49,9.76-3.8,11.17-8.58,1.26-4.24-.19-8.48-2.43-12.45,9.85-1.93,19.79-3.09,29.72-1.91,15,1.78,30.09,10,35.85,23.93,6,14.4.81,30.7-3.72,45.61C1657.76,539,1650.34,578.81,1645,619Z" transform="translate(-258.11 -100.52)"/><path class="cls-8" d="M1638.41,769.12c-14.91-7-28.62-16.5-42.11-26.09,2.42-20.79,8.27-41.25,18.21-59.65,10.92-20.28,28.34-38.83,48.14-50.58l8,6.31,9,7.1.21.11c21-38.65,42.22-77.55,64.41-117.91-5.56-13.56-10.73-28.88-5.31-42.49a38,38,0,0,1,11.49-15c2.47-2,4.1-3.45,7.13-4.6,2.55-1,5.08-2,7.57-3.14,1-.45,2-.92,3-1.4,2.63-1.3,5.47-2.72,8.35-2.18,3.91.75,6.35,5.12,6,9.07s-2.8,7.45-5.67,10.2a38.38,38.38,0,0,1-3.3,2.82,6.79,6.79,0,0,0,2.57,1,19.53,19.53,0,0,0-1.61,3.59c-1.28,3.91-1.07,8.48,1.33,11.83,2.31,3.2,6.88,4.84,10.46,3.25a20.5,20.5,0,0,0-1.22,3.13c-1.22,4.2-.8,9.05,1.88,12.52,2.47,3.19,7,4.81,10.77,3.46l.49-.8a48.34,48.34,0,0,1,21.82-18.43,16.31,16.31,0,0,1,6.4-1.58,6.92,6.92,0,0,1,1.37.14c4.16.87,6.38,5.58,6.44,9.72a25.85,25.85,0,0,1-1.9,9.09c-4.58,12.94-11.84,26.28-21.08,36.47-5.56,6.12-8.6,13.09-10.21,21.21q-2,10.18-4.13,20.34c-2.83,13.38-5.85,26.71-9.3,39.94-7.85,30.24-17.89,60.05-32.2,87.89-10.19,19.8-23.5,39.44-43.63,49-17.07,8.07-37,7.72-55.32,2.49q-4-1.12-7.78-2.54C1645.24,772.16,1641.8,770.7,1638.41,769.12Z" transform="translate(-258.11 -100.52)"/><path class="cls-1" d="M1662.65,632.8,1645,619c5.32-40.15,12.74-79.92,24.54-118.65,4.53-14.91,9.68-31.21,3.72-45.61-5.76-13.93-20.89-22.15-35.85-23.93-9.93-1.18-19.87,0-29.72,1.91a66.39,66.39,0,0,0-3.84-5.94c-.39-.55-.78-1.12-1.16-1.71a45.93,45.93,0,0,0,4.2-4.29,70.09,70.09,0,0,0,10.89-17.69l.5.21c13.44-1.57,26.91-2,40.15.49,21.85,4.09,43.3,17.79,50.2,38.91s-2,44-9.25,65.18c-14.57,42.13-23.23,87-28.71,131.27Z" transform="translate(-258.11 -100.52)"/><path class="cls-14" d="M1475,561.07a62.19,62.19,0,0,1-27.1,7.29,63,63,0,0,1-43.17-15.68c-47.51,34.76-80,89.47-87.53,147q-6.24,33.87-11.76,67.86-.72,4.43-1.43,8.87-4.14,25.89-7.86,51.83-1.73,11.93-3.33,23.85-2.74,20.08-5.22,40.19-1.79,14.36-3.42,28.71h228l27.84-220.66C1512.59,663.16,1486.39,615.11,1475,561.07Z" transform="translate(-258.11 -100.52)"/><path class="cls-25" d="M1580.24,747.05a406.83,406.83,0,0,1-40.18-46.72L1512.22,921h54.69C1571.09,864.22,1576.12,803.59,1580.24,747.05Z" transform="translate(-258.11 -100.52)"/><path class="cls-13" d="M1641.38,246.77c0-.12,0-.24,0-.36-1.71-26.73-15.42-54.33-38.43-66.71a76.24,76.24,0,0,1,3.85,11.05,290.08,290.08,0,0,1,9.59,60.22c1.37,22.91.6,46.08-1.08,69.21h.2a39,39,0,0,1,8.38,12C1633.7,304.52,1643.17,276,1641.38,246.77Z" transform="translate(-258.11 -100.52)"/><path class="cls-13" d="M1571.37,166.43a68.62,68.62,0,0,0-5.69-17.45c-.36-.75-.8-1.53-1.3-2.35-13.15-21-77.69-64.23-188-37.81a376.56,376.56,0,0,0-43.4,13.31,121.47,121.47,0,0,1-30.1,7c-19.5,2-39.09,3.67-56.87,11.57-19.23,8.55-35.3,24.54-42.7,44.24s-5.62,42.92,5.81,60.58c12.85,19.86,36.31,30.55,60.16,31.81a87.66,87.66,0,0,0,9.86,0,90.74,90.74,0,0,0,9.31-1c22.28-3.69,42.56-14.68,60.32-28.9a53.65,53.65,0,0,0,9.66,9.09c15.08,11,34.57,14.53,53.22,13.59a127.94,127.94,0,0,0,73.42-28.35c-.52,14.38,1.93,28.74,8.3,41.58a68.64,68.64,0,0,0,21.47,25.15c4,2.88,7.33,5.2,8.68,10.14a99.24,99.24,0,0,0,5.79,16.06,90,90,0,0,0,8.88,14.86l.8.23a65.91,65.91,0,0,1,10.69-21.85c9.19-12,22.85-20.74,37.43-18.62-.3-23-1.87-46.06-4.41-69C1580,215.49,1576.07,190.86,1571.37,166.43Z" transform="translate(-258.11 -100.52)"/><path class="cls-26" d="M1762.93,414.9l-7.68-7.35-6.36,2.87.74,10.87a102.06,102.06,0,0,0,13.06-5.89l.39-.2Z" transform="translate(-258.11 -100.52)"/><polygon class="cls-13" points="1490.14 300.32 1490.78 309.87 1490.78 309.89 1497.15 307.02 1490.14 300.32"/><path class="cls-10" d="M763.61,675.34v-.24h-3.16l-49.05.18-35.77.14v.51l-10.37,32h87.31Z" transform="translate(-258.11 -100.52)"/><path class="cls-15" d="M665.26,707.9l-21.09,65q16.23,0,32.56.06,26.71.12,53.63.42,11.1-32.74,22.21-65.5Z" transform="translate(-258.11 -100.52)"/><path class="cls-18" d="M732.06,854.05q-2.8,19.13-5.65,38.23h505.22l-6.39-40Z" transform="translate(-258.11 -100.52)"/><polygon class="cls-1" points="987.32 727.83 983.65 727.84 744.68 728.32 579.19 728.66 537.02 728.74 418.07 728.98 296.87 729.22 178.38 729.46 91.69 729.63 0 729.82 0 755.19 40.09 755.05 69.5 754.95 444.55 753.63 473.96 753.53 987.32 751.73 987.32 727.83"/><path class="cls-12" d="M1600.67,181.32c1.18.61,2.52,1.31,3.79.9,2.18-.69,2.24-3.74,1.7-6-4.18-17-19.24-30.83-36.55-33.52-2.34-.36-5.35-.18-6.24,2s1.23,4.49,2.73,6.43c2.78,3.59,3.66,8.27,4.46,12.75.55,3.1.42,9.33,2.1,11.92s4.86.91,8.11.85A41.69,41.69,0,0,1,1600.67,181.32Z" transform="translate(-258.11 -100.52)"/><path class="cls-1" d="M1298.85,487.86a30.18,30.18,0,0,0,15.74,13,12.79,12.79,0,0,0,7.61.72c2.49-.7,4.7-2.93,4.64-5.52,0-2.28-1.76-4.2-3.68-5.43s-4.12-2-6-3.19c-4.73-3-8-10-14-10.94C1296.25,475.43,1296.41,483.72,1298.85,487.86Z" transform="translate(-258.11 -100.52)"/><path class="cls-27" d="M682.46,248.52v.21h2.69A16.94,16.94,0,0,1,682.46,248.52Z" transform="translate(-258.11 -100.52)"/><path class="cls-11" d="M685.15,218.41a12.53,12.53,0,0,0,0,25.06h32.28a12.53,12.53,0,0,0,0-25.06Z" transform="translate(-258.11 -100.52)"/><path class="cls-1" d="M667.37,213.14a17.8,17.8,0,1,0,0,35.59h15.09v-.21a17.79,17.79,0,0,1,2.69-35.38Z" transform="translate(-258.11 -100.52)"/><path class="cls-12" d="M730,230.94a12.56,12.56,0,0,0-12.53-12.53H685.15a12.53,12.53,0,0,0,0,25.06h32.28A12.57,12.57,0,0,0,730,230.94Zm-37.24,17.79h-7.57a16.94,16.94,0,0,1-2.69-.21,17.79,17.79,0,0,1,2.69-35.38h32.28a17.8,17.8,0,1,1,0,35.59H692.72Z" transform="translate(-258.11 -100.52)"/><path class="cls-1" d="M682.46,248.73v4.44h21v-4.44h-21Z" transform="translate(-258.11 -100.52)"/><path class="cls-1" d="M713.28,230.92a3.48,3.48,0,1,0,3.48-3.48A3.48,3.48,0,0,0,713.28,230.92Z" transform="translate(-258.11 -100.52)"/><circle class="cls-12" cx="692.09" cy="230.92" r="9.14" transform="translate(-189.11 509.97) rotate(-49.8)"/><path class="cls-1" d="M688.63,230.92a3.46,3.46,0,1,0,3.46-3.46A3.45,3.45,0,0,0,688.63,230.92Z" transform="translate(-258.11 -100.52)"/><path class="cls-22" d="M1769.44,522.14a2,2,0,0,1-.72-.13,2.09,2.09,0,0,1-1.25-2.69,30,30,0,0,0-.8-22.06,29.05,29.05,0,0,0-2.68-4.87c-.21-.31-.42-.59-.61-.83-.72-1-1.54-2.06-1.26-3.53a4.66,4.66,0,0,1,2.46-2.87,60.47,60.47,0,0,0,10.88-7.77c3.09-3,4.79-6,5-8.86s-1.47-6.3-4.31-6.83c-2.15-.41-4.56.78-6.9,1.92l-.15.07a2.1,2.1,0,1,1-1.84-3.77l.14-.07c2.82-1.38,6-3,9.53-2.28,5.27,1,8.11,6.65,7.72,11.31-.34,3.95-2.46,7.83-6.31,11.54a64,64,0,0,1-11.62,8.34l-.15.09.14.18c.22.3.46.62.71,1a33.92,33.92,0,0,1,3.08,5.58,34.27,34.27,0,0,1,.88,25.17A2.11,2.11,0,0,1,1769.44,522.14Z" transform="translate(-258.11 -100.52)"/><path class="cls-22" d="M1783.42,504.13a11.54,11.54,0,0,1-9.22-4.72c-2.64-3.65-3.24-8.78-1.63-13.7,1.21-3.66,3.51-7.16,7.25-11a61.78,61.78,0,0,1,23.39-15.06,24,24,0,0,1,7.24-1.55,2.06,2.06,0,0,1,2.17,2,2.11,2.11,0,0,1-2,2.18,20.42,20.42,0,0,0-6,1.3,57.64,57.64,0,0,0-21.79,14c-3.28,3.38-5.27,6.37-6.27,9.4-1.18,3.6-.78,7.4,1,9.94s5.68,3.76,8.22,2.42a2.1,2.1,0,1,1,2,3.71A9.28,9.28,0,0,1,1783.42,504.13Z" transform="translate(-258.11 -100.52)"/><path class="cls-22" d="M1803.61,534.12c-3.85,0-7.66-1.55-9.13-5.08-1.23-2.93-.56-6.33,2-10.41a50.6,50.6,0,0,1,22.77-19.25,18.58,18.58,0,0,1,7.16-1.74h.07a2.1,2.1,0,1,1,0,4.2h0a14.66,14.66,0,0,0-5.52,1.41,46.34,46.34,0,0,0-20.87,17.64c-1.8,2.82-2.35,5-1.7,6.53,1,2.38,4.67,2.92,7.62,2.22,7.08-1.66,12.74-7.7,17.29-12.55a2.1,2.1,0,1,1,3.06,2.87c-4.93,5.26-11.07,11.81-19.38,13.77A14.3,14.3,0,0,1,1803.61,534.12Z" transform="translate(-258.11 -100.52)"/><path class="cls-28" d="M578.94,551.39a28.91,28.91,0,0,0-18.16-12.77l.66-3.09a32.12,32.12,0,0,1,20.17,14.2Z" transform="translate(-258.11 -100.52)"/><rect class="cls-28" x="568.49" y="589.82" width="34.48" height="3.15" transform="translate(-343.03 983.88) rotate(-81.6)"/><rect class="cls-28" x="709.68" y="556.21" width="3.15" height="51.4" transform="translate(-342.5 21.56) rotate(-9.26)"/><path class="cls-22" d="M809.92,480.78a2.05,2.05,0,0,1-1-.25,2.1,2.1,0,0,1-.86-2.84,21.73,21.73,0,0,0,1.07-18,2.12,2.12,0,0,1,.9-2.58,33.53,33.53,0,0,0,12.4-12.85c1-1.8,1-2.63.76-3-.45-.85-2.45-.79-4.2-.29a39.14,39.14,0,0,0-6.31,2.44,2.1,2.1,0,1,1-1.84-3.78,43.06,43.06,0,0,1,7-2.69c4.26-1.23,7.65-.35,9.08,2.36s-.23,6-.8,7a38,38,0,0,1-12.48,13.54,26,26,0,0,1-1.87,19.8A2.09,2.09,0,0,1,809.92,480.78Z" transform="translate(-258.11 -100.52)"/><path class="cls-13" d="M672.05,434c-6.72,0-13.64-4.17-17.46-10.76-3.43-5.92-4.64-13.44-3.6-22.34l.06-.49.31-.36a30.13,30.13,0,0,1,19.82-10.37,31.73,31.73,0,0,1,21.11,5.52l.71.49,0,.87c-.06,1.41-.1,2.86-.13,4.32-.15,5.75-.29,11.69-2.15,17.42-2.71,8.32-9.08,14.41-16.23,15.52A16.06,16.06,0,0,1,672.05,434Zm-18-32.25c-.86,8,.23,14.7,3.26,19.91,3.64,6.28,10.49,10,16.65,9,6-.93,11.37-6.18,13.71-13.38,1.72-5.28,1.86-11,2-16.52,0-1.18.05-2.35.1-3.5a28.53,28.53,0,0,0-18.28-4.49A27,27,0,0,0,654.06,401.76Z" transform="translate(-258.11 -100.52)"/><path class="cls-13" d="M620.78,434.5a14.75,14.75,0,0,1-2.4-.19c-7.16-1.11-13.52-7.2-16.23-15.52-1.86-5.72-2-11.67-2.15-17.42,0-1.46-.07-2.9-.13-4.32l0-.86.71-.5a31.77,31.77,0,0,1,21.1-5.52,30.15,30.15,0,0,1,19.82,10.37l.32.37.06.48c1,8.91-.17,16.43-3.61,22.35C634.41,430.32,627.49,434.5,620.78,434.5Zm-17.73-36.71c0,1.16.07,2.33.1,3.5.14,5.53.28,11.24,2,16.53,2.34,7.2,7.72,12.45,13.71,13.38,6.16,1,13-2.76,16.65-9,3-5.21,4.12-11.91,3.25-19.92a27,27,0,0,0-17.43-8.93A28.58,28.58,0,0,0,603.05,397.79Z" transform="translate(-258.11 -100.52)"/><path class="cls-13" d="M640.69,403.25l-1.56-2.74a15.88,15.88,0,0,1,14.21-.64l-1.3,2.87A12.68,12.68,0,0,0,640.69,403.25Z" transform="translate(-258.11 -100.52)"/><path class="cls-22" d="M1795,523.12a12.37,12.37,0,0,1-9.64-4.75c-2.92-3.78-3.75-9.16-2.23-14.38,1.16-4,3.61-7.89,7.48-11.86a52.21,52.21,0,0,1,17.61-11.83c3.21-1.3,8-2.84,12.58-1.2a2.1,2.1,0,0,1-1.41,4c-2.47-.88-5.51-.52-9.59,1.13a48,48,0,0,0-16.19,10.88c-3.37,3.46-5.48,6.76-6.45,10.09-1.13,3.88-.55,8,1.53,10.64,2.18,2.83,6.25,3.94,9.07,2.48a2.1,2.1,0,1,1,1.93,3.73A10.15,10.15,0,0,1,1795,523.12Z" transform="translate(-258.11 -100.52)"/><path class="cls-29" d="M1812.74,514.85" transform="translate(-258.11 -100.52)"/><rect class="cls-30" x="1000.7" y="795.12" width="4.2" height="33.56" transform="translate(-263.66 -93.61) rotate(-0.39)"/><path class="cls-22" d="M983.16,748.28h0a2.1,2.1,0,0,1-2.08-2.12,14.92,14.92,0,0,1,1.28-5.75,25.81,25.81,0,0,1,6.83-8.55,56.11,56.11,0,0,1,38.14-13.58,2.1,2.1,0,0,1-.13,4.2A52,52,0,0,0,991.93,735c-2.94,2.56-4.71,4.74-5.75,7.08a10.7,10.7,0,0,0-.92,4.1A2.09,2.09,0,0,1,983.16,748.28Z" transform="translate(-258.11 -100.52)"/><path class="cls-4" d="M823.88,371a2.09,2.09,0,0,1-1.86-1.14l-12.39-24.06a2.1,2.1,0,1,1,3.74-1.92l9,17.48,2.27-29.12a2.1,2.1,0,0,1,2.06-1.94l59.2-.9a2.13,2.13,0,0,1,2.13,2.07,2.1,2.1,0,0,1-2.07,2.13l-57.28.87L826,369a2.08,2.08,0,0,1-1.68,1.89A2,2,0,0,1,823.88,371Z" transform="translate(-258.11 -100.52)"/><path class="cls-4" d="M850.42,367.45a2.13,2.13,0,0,1-1.56-.68,102,102,0,0,1-13.94-19.62,2.1,2.1,0,1,1,3.69-2A97.43,97.43,0,0,0,852,363.94a2.09,2.09,0,0,1-1.55,3.51Z" transform="translate(-258.11 -100.52)"/><path class="cls-4" d="M836.76,371.12a2.1,2.1,0,0,1-1.73-3.29c2.22-3.21,4.76-7.58,7.22-11.8s5.08-8.72,7.38-12.07a2.1,2.1,0,1,1,3.46,2.39c-2.21,3.21-4.75,7.57-7.21,11.79s-5.08,8.73-7.39,12.07A2.1,2.1,0,0,1,836.76,371.12Z" transform="translate(-258.11 -100.52)"/><path class="cls-4" d="M870.61,356.7h-.06l-12.25-.35a2.1,2.1,0,0,1-2-2.16,2.13,2.13,0,0,1,2.16-2l12.25.35a2.1,2.1,0,0,1-.06,4.2Z" transform="translate(-258.11 -100.52)"/><path class="cls-4" d="M887,367.83A13.44,13.44,0,1,1,897.15,346a10.68,10.68,0,0,1,2.5,6.63,7.86,7.86,0,0,1-3.66,6.68,6.51,6.51,0,0,1-5.83.38,5.42,5.42,0,0,1-2,1.07,5.52,5.52,0,0,1-5.2-1,5.79,5.79,0,0,1-1.94-4.07,6.51,6.51,0,0,1,1.59-4.76,8,8,0,0,1,8.16-2.09,2.1,2.1,0,0,1-1.2,4,3.78,3.78,0,0,0-3.82.84,2.46,2.46,0,0,0-.54,1.71,1.74,1.74,0,0,0,.5,1.17,1.4,1.4,0,0,0,1.24.16,1,1,0,0,0,.65-.5,2.09,2.09,0,0,1,3.6-.82,2.25,2.25,0,0,0,2.65.26,3.62,3.62,0,0,0,1.58-3.07,6.47,6.47,0,0,0-1.57-4,9.27,9.27,0,1,0-3.33,14.25,2.1,2.1,0,0,1,1.76,3.81A12.76,12.76,0,0,1,887,367.83Z" transform="translate(-258.11 -100.52)"/><path class="cls-4" d="M918.56,407.32H881.37a2.1,2.1,0,0,1,0-4.2h37.19a2.1,2.1,0,1,1,0,4.2Z" transform="translate(-258.11 -100.52)"/><path class="cls-4" d="M892.53,391.76a2.09,2.09,0,0,1-1.83-1.08,2.11,2.11,0,0,1,0-2.13l8.1-13.05a2.1,2.1,0,0,1,3.57,2.22l-6.09,9.81,10-.08h0a2.1,2.1,0,0,1,0,4.2l-13.81.11Z" transform="translate(-258.11 -100.52)"/><path class="cls-4" d="M907.45,397.89a2.1,2.1,0,0,1-2.1-2.1V383.58a2.1,2.1,0,1,1,4.2,0v12.21A2.1,2.1,0,0,1,907.45,397.89Z" transform="translate(-258.11 -100.52)"/><path class="cls-4" d="M900.8,436h-.75c-4.82,0-7.75-1.51-8.74-4.38a2.1,2.1,0,0,1,4-1.36c.45,1.32,3.19,1.53,4.79,1.54a12.06,12.06,0,0,0,5.17-.67c1-.49,2-1.65,1.72-2.59a2.62,2.62,0,0,0-1.9-1.59,12.27,12.27,0,0,0-4-.13,2.1,2.1,0,0,1-1-4,12.41,12.41,0,0,0,4.27-2.76,2.8,2.8,0,0,0,.56-3,2.74,2.74,0,0,0-2.66-.75,12.38,12.38,0,0,0-4.06,1.94,2.1,2.1,0,1,1-2.24-3.55,15.57,15.57,0,0,1,5.54-2.52,6.32,6.32,0,0,1,6.09,10.61,5.92,5.92,0,0,1-.41.45,6.48,6.48,0,0,1,4,4.33c.79,3.21-1.41,6.14-4,7.37A14.2,14.2,0,0,1,900.8,436Z" transform="translate(-258.11 -100.52)"/><path class="cls-4" d="M804.57,405.88a2.24,2.24,0,0,1-.67-.11,43.71,43.71,0,0,1-18.57-12.1,2.1,2.1,0,1,1,3.11-2.82,39.45,39.45,0,0,0,16.79,10.93,2.1,2.1,0,0,1-.66,4.1Z" transform="translate(-258.11 -100.52)"/><path class="cls-4" d="M786.78,411.57a2,2,0,0,1-1.18-.36,2.1,2.1,0,0,1-.56-2.92L798.11,389a2.1,2.1,0,1,1,3.47,2.35l-13.06,19.27A2.1,2.1,0,0,1,786.78,411.57Z" transform="translate(-258.11 -100.52)"/></svg>