<svg id="Icons" xmlns="http://www.w3.org/2000/svg" viewBox="0 0 708.19 638"><defs><style>.cls-1{fill:none;stroke:#9e005d;stroke-linecap:round;stroke-miterlimit:10;stroke-width:16px;}.cls-2{fill:#9e005d;}</style></defs><path class="cls-1" d="M258.19,597.32V388.22A79.22,79.22,0,0,1,337.41,309H822a79.22,79.22,0,0,1,79.22,79.22V692.78A79.22,79.22,0,0,1,822,772H337.41a79,79,0,0,1-56-23.2" transform="translate(-201 -301)"/><rect class="cls-2" x="263.19" y="488" width="231" height="69" rx="34.5"/><rect class="cls-2" x="190.68" y="569" width="376.02" height="69" rx="34.5"/><circle class="cls-2" cx="59.29" cy="341.14" r="31.14"/><path class="cls-2" d="M201,735.88a56,56,0,0,1,56-56h0a56,56,0,0,1,56,56" transform="translate(-201 -301)"/><circle class="cls-2" cx="378.69" cy="162.79" r="76.82"/><path class="cls-2" d="M441.55,695A138.13,138.13,0,0,1,579.69,556.87h0A138.13,138.13,0,0,1,717.82,695" transform="translate(-201 -301)"/></svg>