<svg id="Layer_2" data-name="Layer 2" xmlns="http://www.w3.org/2000/svg" viewBox="0 0 176.83 236.5"><defs><style>.cls-1{fill:#fdc88a;}.cls-2{fill:#eda96a;}.cls-3{fill:#b76b41;}.cls-4{fill:#1f232e;}.cls-5{fill:#564a63;}.cls-6{fill:#181d26;}.cls-7{fill:#d0e2f4;}.cls-8{fill:#fff;}.cls-9{fill:#d22940;}</style></defs><path class="cls-1" d="M1017.52,756.78a20.08,20.08,0,0,1-28.88,0V741.9h28.88Z" transform="translate(-915.15 -625.97)"/><path class="cls-2" d="M988.64,741.9V745a23.6,23.6,0,0,0,9.92,4.09c9.88,1.57,17.42-3.94,19-5.17l-.06-4.91Z" transform="translate(-915.15 -625.97)"/><path class="cls-1" d="M1035.33,703.43c0,18.27-14.81,43.55-33.08,43.55s-33.08-25.28-33.08-43.55a33.08,33.08,0,1,1,66.16,0Z" transform="translate(-915.15 -625.97)"/><path class="cls-3" d="M979.2,687.61s24.39,28.79,46.22,0c0,0,2.2,17.67,9.4,16.36,0,0,2.61-2,1.31-13.74,0,0-28.79-20.94-34.68-14.39s-27.48,4.58-28.13,8.5-5.24,6.54-5.24,6.54-.65,13.74,2,14.4S976.59,702.66,979.2,687.61Z" transform="translate(-915.15 -625.97)"/><path class="cls-4" d="M943,653.3V649l61.55-23,57,23.78v3.55l-17.27,3.6h-31.08L993,658.09l-10.12,1.79L974.56,664Z" transform="translate(-915.15 -625.97)"/><path class="cls-5" d="M972.93,664.91,943,653.31l61.55-21.06,57,20.94-26,11.72Z" transform="translate(-915.15 -625.97)"/><path class="cls-6" d="M1036.62,691.71a73.93,73.93,0,0,0-68.74,0V661.23c2.24-2,20.11-17.13,43.45-12.32a49.08,49.08,0,0,1,25.29,14.27Z" transform="translate(-915.15 -625.97)"/><path class="cls-6" d="M1026.75,759.66c21.66,2.05,32.49,3.07,38.72,6.33,32.55,17.09,26.41,86.14,25.4,96.35-26.49-.12-48.81-.08-65.67,0-18.15.08-26,0-42.14.07-26.14.08-47.86.11-63.87-.07-.77-3.2-15.4-67,16.25-90.47,10.27-7.6,23.79-9.74,39.33-12.21C993.78,756.65,1009.19,758,1026.75,759.66Z" transform="translate(-915.15 -625.97)"/><polygon class="cls-7" points="67.84 140.09 67.84 236.37 110.03 236.37 110.55 151.13 110.55 136.78 67.84 140.09"/><path class="cls-8" d="M985.35,756.71s-7.73,1.94-14.49,18.35l17.39,11.59,11.62-15h4.53l10.31,15,18.93-11.59s-9.66-18.35-15.46-17.38S985.35,756.71,985.35,756.71Z" transform="translate(-915.15 -625.97)"/><path class="cls-9" d="M991.34,768.92s10.1-17.76,21.82,0c0,0-5,15.79-7,15.79l7,47.36-10.91,25.22-10.91-25.22,6.9-47.36S991.34,773.85,991.34,768.92Z" transform="translate(-915.15 -625.97)"/></svg>