<svg id="Layer_2" data-name="Layer 2" xmlns="http://www.w3.org/2000/svg" viewBox="0 0 103.67 280.62"><defs><style>.cls-1{fill:#d22940;}.cls-2{fill:#fdc88a;}.cls-3{fill:#d0e2f4;}.cls-4{fill:#eda96a;}.cls-5{fill:#98460e;}.cls-6{fill:#6d320a;}.cls-7{fill:#e96a19;}.cls-8{fill:#6f310a;}.cls-9{fill:#e06b1c;}.cls-10{fill:#6d330e;}.cls-11{fill:#df6c11;}.cls-12{fill:#693311;}.cls-13{fill:#e26a14;}.cls-14{fill:#f907ef;}.cls-15{fill:#d00ac1;}.cls-16{fill:#d76a25;}</style></defs><path class="cls-1" d="M1016,525.87c-.32-2.88,17.26-7.76,17.26-7.76-14.08-24.7-30.06-25.84-30.06-25.84q-7.32,66.48-14.63,133c1-2.65,25.46-66.34,26.48-69,0,0,1.6-4.19,1.61-4.2l9.9-12.77C1026,533.52,1016,525.87,1016,525.87Z" transform="translate(-935.96 -344.62)"/><path class="cls-1" d="M940.37,519.5s17.71,4.35,17.48,7.24c0,0-9.68,7.94-10.15,13.73q5.14,6.22,10.28,12.47l1.73,4.14c1.09,2.61,27.44,65.54,28.53,68.16l-18.6-132.46S953.7,494.39,940.37,519.5Z" transform="translate(-935.96 -344.62)"/><path class="cls-2" d="M969.64,492.78q1.1,10.77,2.2,21.55l6.15,9.91,16.91-3,5.93-7.29,2.41-21.63-17.72.73Z" transform="translate(-935.96 -344.62)"/><path class="cls-3" d="M1000.83,513.9h0L988.61,625.23h-.37q-8.21-55.46-16.4-110.91a20.49,20.49,0,0,0,29-.43Z" transform="translate(-935.96 -344.62)"/><path class="cls-2" d="M1002.84,493.32a22.92,22.92,0,0,1-33,.49l-.25-17,33-.49Z" transform="translate(-935.96 -344.62)"/><path class="cls-4" d="M969.62,476.83l0,3.48a27,27,0,0,0,11.4,4.5c11.3,1.63,19.81-4.79,21.62-6.22l-.15-5.61Z" transform="translate(-935.96 -344.62)"/><path class="cls-2" d="M1022.26,432.12c.31,20.86-16.16,50-37,50.28s-38.19-28.29-38.5-49.15a37.76,37.76,0,0,1,75.52-1.13Z" transform="translate(-935.96 -344.62)"/><circle class="cls-5" cx="82.5" cy="21.17" r="21.17"/><path class="cls-6" d="M1000.5,354.48c-.36,11.32,5.94,21.34,15.36,24.92,9.66,3.68,18.54-.95,20-1.73a19,19,0,0,1-4.44,5.14c-7.55,6.07-17.33,4.08-19.14,3.68a25,25,0,0,1-6.26-3.3,20.36,20.36,0,0,1-6.31-6.68,19.3,19.3,0,0,1-2.38-8.43A24.11,24.11,0,0,1,1000.5,354.48Z" transform="translate(-935.96 -344.62)"/><path class="cls-7" d="M1023.48,348.88s-8.21.48-11,7.95c0,0-2.46,11,.11,15.06,0,0-3.46-8.87-1.54-13.07S1016,346.05,1023.48,348.88Z" transform="translate(-935.96 -344.62)"/><path class="cls-8" d="M1021.22,351.91s-2.86.87-3.59,2.56a9.76,9.76,0,0,1-2.6,3,2,2,0,0,0-.74,1.49l-.34,9.4S1013,360.48,1021.22,351.91Z" transform="translate(-935.96 -344.62)"/><path class="cls-9" d="M1022.42,354l-.1.12-4.83,5.41s-1.35,5.64-1,6.15l0,0c.27.06,1.06-3.57,2.34-6.4A19.63,19.63,0,0,1,1022.42,354Z" transform="translate(-935.96 -344.62)"/><path class="cls-10" d="M1021.7,358.24s-2.06,2.31-2.17,3-.61,2.23-.4,2.42S1019.53,361.26,1021.7,358.24Z" transform="translate(-935.96 -344.62)"/><path class="cls-11" d="M1023.74,354.28s.91,5.74-1,8.22a55.18,55.18,0,0,0-3.4,5S1024.27,359.12,1023.74,354.28Z" transform="translate(-935.96 -344.62)"/><path class="cls-12" d="M1025.24,353.06s3.17,6.26,2.29,8.1S1024,366.67,1024,368s-4,2.8-4,2.8a20.05,20.05,0,0,0,4-6A20.71,20.71,0,0,0,1025.24,353.06Z" transform="translate(-935.96 -344.62)"/><path class="cls-13" d="M1029,351.88l4.39,8.89s.58,3.89-4.12,9.07-7.55,3.52-8.1,4.66S1035.63,366,1029,351.88Z" transform="translate(-935.96 -344.62)"/><path class="cls-12" d="M1032.48,352.31s6,15.82,2.08,19.38-12.65,5.19-14.51,3.48c0,0,9.5,4.81,16.82-3.82C1036.87,371.35,1040.39,353.4,1032.48,352.31Z" transform="translate(-935.96 -344.62)"/><path class="cls-12" d="M1016.14,347.79s-8.91,3.77-9.41,8.29-3.29,6.26,4.2,16.31c0,0-5.12-2.74-6.34-8.37s1-11.7,1.56-11.79S1011.54,347.05,1016.14,347.79Z" transform="translate(-935.96 -344.62)"/><path class="cls-14" d="M998.47,376.82l-1.35,4.46s22.44,3.36,25.49,10.3l3-3.25S1010.93,376.31,998.47,376.82Z" transform="translate(-935.96 -344.62)"/><path class="cls-15" d="M998,378.23a79,79,0,0,1,26.14,11.47l-1.66,2.28L997,381.63Z" transform="translate(-935.96 -344.62)"/><path class="cls-5" d="M973.26,383.12a28.81,28.81,0,0,0-14.1.77c-12.09,3.93-20.75,16.46-22.8,32a51.54,51.54,0,0,0,17.69,45.74,33.18,33.18,0,0,1-6.35-22.91,32.72,32.72,0,0,1,8.06-18s7.22-8,11.18-7.5c0,0,.12,7.9-6.05,10.81,0,0,8.47-.12,16.74-13.23,0,0-1.54,10.18-6,12.51,0,0,5.69,3.32,13.42-8.38l9.45-10s1.37,16.35,5.31,15.73c0,0,1.58-5.17,5.28-5.87,1-.19,2.76-.18,5.62,2,1.25,1,6.67,5.39,8.93,15.91,2.41,11.2-.55,20.92-2.61,26a59.34,59.34,0,0,0,14.63-25.22,45.61,45.61,0,0,0,1.71-19,37.73,37.73,0,0,0-8.54-20.2,35.18,35.18,0,0,0-10.71-8.36C998.08,377.63,980.72,381.12,973.26,383.12Z" transform="translate(-935.96 -344.62)"/><path class="cls-16" d="M977.85,387.57c-2.56,1.59-5.1,3.1-7.58,4.71a86.72,86.72,0,0,0-7.77,3.9,42.2,42.2,0,0,0-7,4.86c-.49.48-1,.95-1.46,1.45s-.92,1.06-1.34,1.62a28.44,28.44,0,0,0-2.34,3.5,36.56,36.56,0,0,0-3.24,7.84,58.58,58.58,0,0,0-1.94,8.4,48.06,48.06,0,0,0-.49,8.56,69.33,69.33,0,0,0-.46,8.83,40.37,40.37,0,0,1-2.53-8.73,51.19,51.19,0,0,1,.51-9.09,61.13,61.13,0,0,1,2-8.82,39,39,0,0,1,3.51-8.48,30.7,30.7,0,0,1,2.57-3.85c.46-.62,1-1.2,1.48-1.79s1.12-1.12,1.68-1.67a45,45,0,0,1,7.51-5.23c2.61-1.5,5.31-2.81,8-4.06A65.21,65.21,0,0,1,977.85,387.57Z" transform="translate(-935.96 -344.62)"/><path class="cls-6" d="M981,390.67c-3.69,2.25-7.44,4.37-11.12,6.56-.93.53-1.85,1.08-2.73,1.68a10.87,10.87,0,0,0-1.23,1,1.71,1.71,0,0,0-.42.58l-.17.41c-.08.13-.19.23-.28.35a3.93,3.93,0,0,1-1.52.72l-1.56.44a6.87,6.87,0,0,0-2.75,1.45c-.19.17-.36.37-.53.55l-.44.62c-.25.45-.47.9-.71,1.42-.47,1-1,1.94-1.55,2.87a49.48,49.48,0,0,0-3,5.63,80.28,80.28,0,0,0-3.9,12.23l-.1,0a45.9,45.9,0,0,1,3-12.64,37.22,37.22,0,0,1,3.21-5.69c.57-.91,1.14-1.81,1.65-2.75a13.59,13.59,0,0,1,.84-1.43l.55-.65c.21-.19.41-.39.63-.56a8.33,8.33,0,0,1,3-1.37,8,8,0,0,0,2.94-1.05,1.94,1.94,0,0,0,.21-.29l.12-.34a2.27,2.27,0,0,1,.46-.76,10.83,10.83,0,0,1,1.2-1.15c.84-.7,1.73-1.34,2.62-2A72.62,72.62,0,0,1,981,390.58Z" transform="translate(-935.96 -344.62)"/><path class="cls-16" d="M993,389.83c-2,1.39-4,2.77-5.87,4.23s-3.84,2.88-5.69,4.38c-.92.77-1.81,1.56-2.66,2.38s-1.73,1.57-2.63,2.3-1.79,1.45-2.64,2.2a9.1,9.1,0,0,0-2.17,2.62H971a5.66,5.66,0,0,1,.79-3.88,15.39,15.39,0,0,1,2.26-3.11A27.73,27.73,0,0,1,980,396.5c2.05-1.33,4.15-2.56,6.29-3.71s4.31-2.24,6.54-3.22Z" transform="translate(-935.96 -344.62)"/><path class="cls-6" d="M1003.37,387.32a8.46,8.46,0,0,1,1.33,2.42,8.84,8.84,0,0,1,.61,2.63c0,.91-.13,1.84-.07,2.73a11.62,11.62,0,0,0,.52,2.65,11.8,11.8,0,0,1,.54,2.68,14.77,14.77,0,0,1,.08,2.74,10.84,10.84,0,0,1-1.87,5.2l-.19-.06c-.12-1.88-.1-3.55-.07-5.27,0-.85.12-1.7.16-2.57l.09-1.31c0-.43.13-.88.17-1.32a7.85,7.85,0,0,0-.07-2.65,21.05,21.05,0,0,0-.93-2.51,12.62,12.62,0,0,1-.48-2.58,13.09,13.09,0,0,1,0-2.73Z" transform="translate(-935.96 -344.62)"/><path class="cls-16" d="M1013.19,389.4c.58,1.09,1.06,2.22,1.57,3.35l1,3.52q1,3.54,1.85,7.11c.58,2.38,1.08,4.78,1.48,7.21.21,1.21.35,2.43.49,3.66l-.11,1.86c-.06.62-.16,1.24-.26,1.84-.1-.61-.18-1.22-.26-1.82l-.36-1.79c-.14-1.2-.28-2.4-.49-3.59-.39-2.39-.89-4.77-1.46-7.14s-1.17-4.72-1.84-7.07c-.33-1.17-.67-2.34-1-3.5C1013.6,391.82,1013.37,390.62,1013.19,389.4Z" transform="translate(-935.96 -344.62)"/><path class="cls-6" d="M1024.71,400.11a38.1,38.1,0,0,1,3.21,10.06,49,49,0,0,1,.69,5.27c.11,1.77.13,3.54.1,5.31a50.25,50.25,0,0,1-1.49,10.51,38.59,38.59,0,0,1-3.88,9.83l-.19-.07a74.06,74.06,0,0,0,1.37-40.86Z" transform="translate(-935.96 -344.62)"/></svg>