<svg id="Layer_2" data-name="Layer 2" xmlns="http://www.w3.org/2000/svg" viewBox="0 0 104.65 280.05"><defs><style>.cls-1{fill:#93278f;}.cls-2{fill:#fdc88a;}.cls-3{fill:#d0e2f4;}.cls-4{fill:#eda96a;}.cls-5{fill:#98460e;}.cls-6{fill:#6d320a;}.cls-7{fill:#e96a19;}.cls-8{fill:#6f310a;}.cls-9{fill:#e06b1c;}.cls-10{fill:#6d330e;}.cls-11{fill:#df6c11;}.cls-12{fill:#693311;}.cls-13{fill:#e26a14;}.cls-14{fill:#f907ef;}.cls-15{fill:#d00ac1;}.cls-16{fill:#d76a25;}.cls-17,.cls-21{fill:none;}.cls-17,.cls-18,.cls-21{stroke:#000;}.cls-17{stroke-miterlimit:10;}.cls-18{fill:#fff;opacity:0.32;}.cls-18,.cls-21{stroke-linejoin:round;stroke-width:2px;}.cls-19,.cls-20{fill:aqua;}.cls-19{opacity:0.2;}.cls-20{opacity:0.1;}</style></defs><path class="cls-1" d="M1097.35,523.25c-.27-2.89,17.39-7.46,17.39-7.46-13.64-24.94-29.6-26.36-29.6-26.36l-17,132.69,27.68-68.51,1.68-4.16,10.12-12.6C1107.13,531.07,1097.35,523.25,1097.35,523.25Z" transform="translate(-1019.07 -342.06)"/><path class="cls-1" d="M1021.8,515.56s17.64,4.66,17.35,7.54c0,0-9.81,7.78-10.38,13.55q5,6.33,10.06,12.65s1.65,4.17,1.66,4.18l27.33,68.64-16.29-132.77S1035.57,490.69,1021.8,515.56Z" transform="translate(-1019.07 -342.06)"/><path class="cls-2" d="M1051.53,489.35l1.83,21.59,6,10,17-2.76,6.07-7.19,2.78-21.58-17.73.42Z" transform="translate(-1019.07 -342.06)"/><path class="cls-3" d="M1082.36,511h0l-14.17,111.11h-.37l-14.46-111.18a20.5,20.5,0,0,0,29,.07Z" transform="translate(-1019.07 -342.06)"/><path class="cls-2" d="M1084.72,490.47a22.9,22.9,0,0,1-33-.08l0-17,33,.08Z" transform="translate(-1019.07 -342.06)"/><path class="cls-4" d="M1051.79,473.41v3.47a26.93,26.93,0,0,0,11.32,4.71c11.27,1.82,19.89-4.45,21.73-5.85l-.06-5.61Z" transform="translate(-1019.07 -342.06)"/><path class="cls-2" d="M1105.2,429.62c0,20.86-17,49.68-37.89,49.62s-37.69-28.95-37.64-49.8a37.77,37.77,0,1,1,75.53.18Z" transform="translate(-1019.07 -342.06)"/><circle class="cls-5" cx="83.48" cy="21.17" r="21.17"/><path class="cls-6" d="M1084.8,351.61c-.56,11.32,5.57,21.44,14.93,25.19,9.59,3.84,18.54-.63,20-1.39a19.21,19.21,0,0,1-4.53,5.07c-7.66,5.94-17.4,3.77-19.2,3.34a24.48,24.48,0,0,1-6.2-3.4,20.52,20.52,0,0,1-6.2-6.79,19.43,19.43,0,0,1-2.23-8.48A24.12,24.12,0,0,1,1084.8,351.61Z" transform="translate(-1019.07 -342.06)"/><path class="cls-7" d="M1107.87,346.41s-8.21.34-11.17,7.76c0,0-2.65,11-.15,15.06,0,0-3.3-8.93-1.31-13.09S1100.45,343.46,1107.87,346.41Z" transform="translate(-1019.07 -342.06)"/><path class="cls-8" d="M1105.56,349.4s-2.87.83-3.64,2.5a9.62,9.62,0,0,1-2.65,2.93,2,2,0,0,0-.76,1.47l-.51,9.4S1097.19,357.83,1105.56,349.4Z" transform="translate(-1019.07 -342.06)"/><path class="cls-9" d="M1106.72,351.56l-.1.11L1101.7,357s-1.45,5.61-1.09,6.13l0,0c.27.07,1.12-3.55,2.45-6.36A19.71,19.71,0,0,1,1106.72,351.56Z" transform="translate(-1019.07 -342.06)"/><path class="cls-10" d="M1105.93,355.74s-2.1,2.28-2.23,3-.64,2.22-.43,2.42S1103.7,358.72,1105.93,355.74Z" transform="translate(-1019.07 -342.06)"/><path class="cls-11" d="M1108,351.82s.82,5.75-1.14,8.2a55.38,55.38,0,0,0-3.49,4.94S1108.49,356.67,1108,351.82Z" transform="translate(-1019.07 -342.06)"/><path class="cls-12" d="M1109.55,350.63s3.07,6.31,2.16,8.13-3.65,5.45-3.66,6.81-4.1,2.72-4.1,2.72a19.94,19.94,0,0,0,4.11-5.9A20.53,20.53,0,0,0,1109.55,350.63Z" transform="translate(-1019.07 -342.06)"/><path class="cls-13" d="M1113.29,349.51l4.23,9s.51,3.91-4.28,9-7.6,3.39-8.17,4.52S1119.72,363.73,1113.29,349.51Z" transform="translate(-1019.07 -342.06)"/><path class="cls-12" d="M1116.81,350s5.76,15.92,1.74,19.42-12.73,5-14.56,3.22c0,0,9.41,5,16.87-3.53C1120.86,369.11,1124.7,351.23,1116.81,350Z" transform="translate(-1019.07 -342.06)"/><path class="cls-12" d="M1100.55,345.2s-9,3.61-9.55,8.12-3.4,6.21,3.91,16.38c0,0-5.07-2.83-6.18-8.48s1.22-11.68,1.75-11.76S1096,344.37,1100.55,345.2Z" transform="translate(-1019.07 -342.06)"/><path class="cls-14" d="M1082.38,373.92l-1.43,4.43s22.38,3.75,25.31,10.74l3-3.19S1094.85,373.62,1082.38,373.92Z" transform="translate(-1019.07 -342.06)"/><path class="cls-15" d="M1081.92,375.32a79.24,79.24,0,0,1,12.69,4.4,78.39,78.39,0,0,1,13.24,7.52l-1.69,2.25-25.38-10.79Z" transform="translate(-1019.07 -342.06)"/><path class="cls-5" d="M1057.07,379.77a28.72,28.72,0,0,0-14.12.53c-12.15,3.72-21,16.09-23.35,31.56a51.57,51.57,0,0,0,16.89,46,33.24,33.24,0,0,1-6-23,32.69,32.69,0,0,1,8.37-17.89s7.36-7.89,11.31-7.32c0,0,0,7.91-6.24,10.72,0,0,8.47,0,17-12.95,0,0-1.72,10.16-6.24,12.41,0,0,5.64,3.42,13.57-8.14l9.62-9.87s1.09,16.37,5,15.82c0,0,1.67-5.14,5.38-5.77,1-.17,2.76-.14,5.58,2.11,1.23,1,6.57,5.51,8.66,16.06,2.21,11.24-.92,20.91-3.07,26a59.19,59.19,0,0,0,15.06-25,45.56,45.56,0,0,0,2-19,37.79,37.79,0,0,0-8.19-20.35,34.93,34.93,0,0,0-10.57-8.54C1082,374.71,1064.56,377.9,1057.07,379.77Z" transform="translate(-1019.07 -342.06)"/><path class="cls-16" d="M1061.57,384.3c-2.58,1.55-5.15,3-7.65,4.58a83.13,83.13,0,0,0-7.84,3.77,42.19,42.19,0,0,0-7.08,4.73c-.5.48-1,.94-1.48,1.43s-.94,1-1.37,1.59a27.69,27.69,0,0,0-2.4,3.46,36.46,36.46,0,0,0-3.37,7.78,60.29,60.29,0,0,0-2.1,8.37,49,49,0,0,0-.63,8.55,67.09,67.09,0,0,0-.61,8.82,40.12,40.12,0,0,1-2.39-8.78,52,52,0,0,1,.67-9.07,63.8,63.8,0,0,1,2.19-8.79,39.84,39.84,0,0,1,3.66-8.41,31.94,31.94,0,0,1,2.64-3.81c.48-.61,1-1.18,1.52-1.76s1.13-1.1,1.7-1.64a44.69,44.69,0,0,1,7.6-5.1c2.64-1.46,5.36-2.72,8.09-3.92A65.48,65.48,0,0,1,1061.57,384.3Z" transform="translate(-1019.07 -342.06)"/><path class="cls-6" d="M1064.69,387.46c-3.73,2.19-7.51,4.24-11.24,6.36-.93.52-1.87,1.05-2.75,1.64a10.88,10.88,0,0,0-1.25,1,1.82,1.82,0,0,0-.43.57l-.18.41a3.17,3.17,0,0,1-.29.35,3.86,3.86,0,0,1-1.52.69l-1.57.41a7.09,7.09,0,0,0-2.78,1.4c-.19.17-.36.37-.54.55l-.45.61c-.25.45-.49.89-.73,1.4-.48,1-1,1.93-1.6,2.85a51.23,51.23,0,0,0-3.13,5.57,79.88,79.88,0,0,0-4.11,12.17l-.1,0a45.7,45.7,0,0,1,3.24-12.59,38.91,38.91,0,0,1,3.3-5.64c.59-.9,1.18-1.79,1.7-2.71a14.68,14.68,0,0,1,.87-1.42l.56-.64c.22-.19.42-.38.65-.55a8.44,8.44,0,0,1,3-1.32,7.52,7.52,0,0,0,3-1,3,3,0,0,0,.22-.28l.13-.34a2,2,0,0,1,.47-.75,10.82,10.82,0,0,1,1.22-1.13c.85-.68,1.75-1.31,2.65-1.9a71.38,71.38,0,0,1,11.63-5.74Z" transform="translate(-1019.07 -342.06)"/><path class="cls-16" d="M1076.68,386.83c-2,1.35-4,2.7-5.94,4.12s-3.89,2.82-5.77,4.29c-.93.74-1.83,1.52-2.69,2.33s-1.77,1.54-2.68,2.25-1.81,1.42-2.68,2.16a9.08,9.08,0,0,0-2.21,2.58l-.3,0a5.72,5.72,0,0,1,.86-3.87,15.63,15.63,0,0,1,2.31-3.07,27.6,27.6,0,0,1,6-4.33c2.07-1.3,4.2-2.49,6.36-3.6s4.34-2.17,6.58-3.11Z" transform="translate(-1019.07 -342.06)"/><path class="cls-16" d="M1080.93,387.45a20.61,20.61,0,0,1-1.3,7.87,12.24,12.24,0,0,1-2,3.53,5.64,5.64,0,0,1-3.4,2.13,7.16,7.16,0,0,0,2.78-2.59,16.29,16.29,0,0,0,1.68-3.43A71.81,71.81,0,0,0,1080.93,387.45Z" transform="translate(-1019.07 -342.06)"/><path class="cls-6" d="M1087.09,384.49a8.37,8.37,0,0,1,1.29,2.45,8.91,8.91,0,0,1,.57,2.64c0,.91-.17,1.84-.12,2.73a11.54,11.54,0,0,0,.48,2.65,12,12,0,0,1,.48,2.7,13.93,13.93,0,0,1,0,2.74,10.8,10.8,0,0,1-2,5.17l-.19-.07c-.07-1.88,0-3.55,0-5.27,0-.85.15-1.7.2-2.57l.12-1.3c0-.44.14-.88.19-1.32a7.86,7.86,0,0,0,0-2.65,21.1,21.1,0,0,0-.89-2.53,12.53,12.53,0,0,1-.44-2.59,13.81,13.81,0,0,1,0-2.72Z" transform="translate(-1019.07 -342.06)"/><path class="cls-16" d="M1096.88,386.75c.56,1.1,1,2.24,1.51,3.37l1,3.55c.63,2.36,1.2,4.74,1.73,7.13s1,4.81,1.35,7.24c.19,1.21.31,2.44.43,3.67l-.15,1.86c-.07.62-.18,1.23-.29,1.83-.09-.61-.16-1.22-.23-1.82l-.33-1.8c-.12-1.2-.24-2.4-.42-3.6q-.54-3.6-1.34-7.16c-.52-2.38-1.09-4.74-1.72-7.1-.31-1.18-.62-2.35-1-3.52C1097.25,389.18,1097,388,1096.88,386.75Z" transform="translate(-1019.07 -342.06)"/><path class="cls-6" d="M1108.21,397.66a38.81,38.81,0,0,1,3,10.11,49.28,49.28,0,0,1,.59,5.28c.08,1.77.07,3.55,0,5.32a50.23,50.23,0,0,1-1.68,10.48,38.92,38.92,0,0,1-4,9.75l-.19-.06A74,74,0,0,0,1108,397.7Z" transform="translate(-1019.07 -342.06)"/><path class="cls-17" d="M1062.81,437.22s4.47,2.55,8.27.08" transform="translate(-1019.07 -342.06)"/><rect class="cls-18" x="1033.09" y="427.34" width="29.71" height="20.08" rx="7.36" transform="translate(-1014.7 -352.41) rotate(0.57)"/><polygon class="cls-19" points="23.56 104.5 15.53 104.42 22.94 86.02 30.97 86.1 23.56 104.5"/><path class="cls-20" d="M1056.05,446.69l-8-.08,7.41-18.4,4.32.05a2.53,2.53,0,0,1,2.32,3.48Z" transform="translate(-1019.07 -342.06)"/><rect class="cls-21" x="1033.09" y="427.34" width="29.71" height="20.08" rx="7.36" transform="translate(-1014.7 -352.41) rotate(0.57)"/><rect class="cls-18" x="1071.08" y="427.41" width="29.71" height="20.08" rx="7.36" transform="translate(-1014.69 -352.78) rotate(0.57)"/><polygon class="cls-19" points="61.55 104.57 53.52 104.49 60.93 86.09 68.96 86.17 61.55 104.57"/><path class="cls-20" d="M1094,446.76l-8-.08,7.41-18.39,4.32,0a2.54,2.54,0,0,1,2.33,3.48Z" transform="translate(-1019.07 -342.06)"/><rect class="cls-21" x="1071.08" y="427.41" width="29.71" height="20.08" rx="7.36" transform="translate(-1014.69 -352.78) rotate(0.57)"/></svg>