<svg xmlns="http://www.w3.org/2000/svg" xmlns:xlink="http://www.w3.org/1999/xlink" viewBox="0 0 2820.42 2857.94"><defs><style>.cls-1,.cls-2{opacity:0.7;}.cls-1{fill:url(#linear-gradient);}.cls-2{fill:url(#linear-gradient-2);}.cls-3{isolation:isolate;}.cls-4{fill:#f4f7fa;}.cls-5{clip-path:url(#clip-path);}.cls-50,.cls-6{opacity:0.5;mix-blend-mode:soft-light;}.cls-39,.cls-42,.cls-50,.cls-7{fill:#fff;}.cls-8{clip-path:url(#clip-path-2);}.cls-9{fill:#97a6b7;}.cls-10{fill:#d8dee8;}.cls-11{fill:url(#linear-gradient-5);}.cls-12{fill:url(#linear-gradient-6);}.cls-13{fill:url(#linear-gradient-7);}.cls-14{fill:url(#linear-gradient-8);}.cls-15{fill:#fdc88a;}.cls-16{fill:#eda96a;}.cls-17{fill:#b76b41;}.cls-18{fill:#1f232e;}.cls-19{fill:#564a63;}.cls-20{fill:#181d26;}.cls-21{fill:#d0e2f4;}.cls-22{fill:#d22940;}.cls-23,.cls-40{fill:aqua;}.cls-24{fill:#98460e;}.cls-25{fill:#6d320a;}.cls-26{fill:#e96a19;}.cls-27{fill:#6f310a;}.cls-28{fill:#e06b1c;}.cls-29{fill:#6d330e;}.cls-30{fill:#df6c11;}.cls-31{fill:#693311;}.cls-32{fill:#e26a14;}.cls-33{fill:#f907ef;}.cls-34{fill:#d00ac1;}.cls-35{fill:#d76a25;}.cls-36{fill:#9e005d;}.cls-37{fill:#93278f;}.cls-38,.cls-41{fill:none;}.cls-38,.cls-39,.cls-41,.cls-42{stroke:#000;}.cls-38{stroke-miterlimit:10;}.cls-39,.cls-41,.cls-42{stroke-linejoin:round;}.cls-39,.cls-42{opacity:0.32;}.cls-40{opacity:0.1;}.cls-41,.cls-42{stroke-width:0.75px;}.cls-43{fill:url(#linear-gradient-9);}.cls-44{fill:url(#linear-gradient-10);}.cls-45{fill:url(#linear-gradient-11);}.cls-46{fill:url(#linear-gradient-12);}.cls-47{fill:url(#linear-gradient-13);}.cls-48{fill:url(#linear-gradient-14);}.cls-49{fill:url(#linear-gradient-15);}.cls-51{fill:url(#linear-gradient-16);}.cls-52{fill:url(#linear-gradient-17);}.cls-53{fill:url(#linear-gradient-18);}.cls-54{opacity:0.62;}.cls-55{fill:url(#linear-gradient-19);}.cls-56{fill:url(#linear-gradient-20);}.cls-57{fill:#26264f;}.cls-58{fill:url(#linear-gradient-21);}.cls-59{fill:url(#linear-gradient-22);}.cls-60{fill:url(#linear-gradient-23);}.cls-61{opacity:0.25;fill:url(#linear-gradient-24);}.cls-61,.cls-68{mix-blend-mode:multiply;}.cls-62{fill:#444b8c;}.cls-63{fill:url(#linear-gradient-25);}.cls-64{fill:url(#linear-gradient-26);}.cls-65{fill:url(#linear-gradient-27);}.cls-66{fill:url(#linear-gradient-28);}.cls-67{fill:url(#linear-gradient-29);}.cls-68{opacity:0.3;fill:url(#linear-gradient-30);}</style><linearGradient id="linear-gradient" x1="728.35" y1="1131.73" x2="1560.04" y2="1131.73" gradientUnits="userSpaceOnUse"><stop offset="0" stop-color="#ff9085"/><stop offset="1" stop-color="#fb6fbb"/></linearGradient><linearGradient id="linear-gradient-2" x1="1327.62" y1="1124.11" x2="995.49" y2="2015.63" xlink:href="#linear-gradient"/><clipPath id="clip-path" transform="translate(-435.8 -397.06)"><path class="cls-1" d="M1560,1796c-64.21-60.26-148.94-158.12-187.28-296.5-50.28-181.47,23.41-273.18,15.1-580.42C1382.6,724.83,1377,589.3,1279,516.82c-76.75-56.81-201-68.1-276.41-15.45-62.7,43.78-99,136.89-110,203.36-9,54.17-1.77,93.5-33,122-31.91,29.16-66.36,12.65-96.2,34.25-60.51,43.81-25.47,188.9-19.81,212.35,63,260.85,303.35,436.78,409.12,512.25C1240.14,1648,1375.42,1731.18,1560,1796Z"/></clipPath><clipPath id="clip-path-2" transform="translate(-435.8 -397.06)"><path class="cls-2" d="M1746.91,2278.87c-200,29.41-459,38.33-718.91-38-66.34-19.48-476.12-139.78-455.2-321.68,7.37-64.07,62-81.67,73.31-167.16,13.45-101.3-54.59-141.43-114-257-35.48-69-139.31-270.78-28.64-406.08,66.13-80.85,205.86-134.29,319.36-124,166.47,15.05,243.88,164.2,370.49,418.82,112.23,225.71,100.06,286.68,183.72,447.8C1439.09,1951.13,1547.07,2112.62,1746.91,2278.87Z"/></clipPath><linearGradient id="linear-gradient-5" x1="1874.36" y1="1731.57" x2="1435.19" y2="1779.48" gradientUnits="userSpaceOnUse"><stop offset="0" stop-color="#444b8c"/><stop offset="1" stop-color="#26264f"/></linearGradient><linearGradient id="linear-gradient-6" x1="2261.31" y1="624.54" x2="1175.36" y2="4321.57" xlink:href="#linear-gradient-5"/><linearGradient id="linear-gradient-7" x1="1065.92" y1="4710.35" x2="2141.65" y2="1116.94" gradientUnits="userSpaceOnUse"><stop offset="0" stop-color="#f36f56"/><stop offset="1" stop-color="#ffc444"/></linearGradient><linearGradient id="linear-gradient-8" x1="1854.38" y1="533.48" x2="578.1" y2="3990.08" gradientUnits="userSpaceOnUse"><stop offset="0" stop-color="#311944"/><stop offset="1" stop-color="#893976"/></linearGradient><linearGradient id="linear-gradient-9" x1="142.45" y1="2160.6" x2="1758.31" y2="2160.6" xlink:href="#linear-gradient"/><linearGradient id="linear-gradient-10" x1="757.18" y1="3198.28" x2="888.9" y2="2898.69" gradientUnits="userSpaceOnUse"><stop offset="0" stop-color="#aa80f9"/><stop offset="1" stop-color="#6165d7"/></linearGradient><linearGradient id="linear-gradient-11" x1="1100.35" y1="3026.44" x2="2195.16" y2="3026.44" gradientUnits="userSpaceOnUse"><stop offset="0.49" stop-color="#ebeff2"/><stop offset="1" stop-color="#fff"/></linearGradient><linearGradient id="linear-gradient-12" x1="1073.93" y1="3026.95" x2="2214.41" y2="3026.95" xlink:href="#linear-gradient-10"/><linearGradient id="linear-gradient-13" x1="948.39" y1="2390.45" x2="717.47" y2="3168.3" xlink:href="#linear-gradient"/><linearGradient id="linear-gradient-14" x1="1100.35" y1="2699.19" x2="2195.16" y2="2699.19" xlink:href="#linear-gradient-11"/><linearGradient id="linear-gradient-15" x1="1073.93" y1="2702.57" x2="2214.41" y2="2702.57" xlink:href="#linear-gradient"/><linearGradient id="linear-gradient-16" x1="743.9" y1="2069.12" x2="1456.79" y2="2069.12" xlink:href="#linear-gradient-11"/><linearGradient id="linear-gradient-17" x1="769.44" y1="2307.33" x2="1431.25" y2="2307.33" xlink:href="#linear-gradient-10"/><linearGradient id="linear-gradient-18" x1="653.78" y1="1756.93" x2="808.71" y2="1549.59" xlink:href="#linear-gradient-10"/><linearGradient id="linear-gradient-19" x1="5637.55" y1="2302.37" x2="5653.93" y2="2336.05" gradientTransform="translate(-3322.93 -397.06)" gradientUnits="userSpaceOnUse"><stop offset="0" stop-color="#ffc444"/><stop offset="1" stop-color="#f36f56"/></linearGradient><linearGradient id="linear-gradient-20" x1="4346.29" y1="3160.06" x2="4346.29" y2="3054.4" gradientTransform="translate(-1637.57)" xlink:href="#linear-gradient-19"/><linearGradient id="linear-gradient-21" x1="4024.23" y1="3190.18" x2="4024.23" y2="3062.84" gradientTransform="translate(-1637.57)" xlink:href="#linear-gradient-19"/><linearGradient id="linear-gradient-22" x1="3952.99" y1="2689.96" x2="4369.6" y2="2689.96" gradientTransform="translate(-1637.57)" xlink:href="#linear-gradient-8"/><linearGradient id="linear-gradient-23" x1="3939.75" y1="2379.4" x2="4239.9" y2="2883.53" gradientTransform="translate(-1637.57)" xlink:href="#linear-gradient-8"/><linearGradient id="linear-gradient-24" x1="4057.91" y1="2309.05" x2="4358.06" y2="2813.18" gradientTransform="translate(-1637.57)" xlink:href="#linear-gradient-8"/><linearGradient id="linear-gradient-25" x1="-3168.41" y1="-2861.92" x2="-2850.54" y2="-2208.27" gradientTransform="translate(-95.81 -1269.08) rotate(-172.14)" gradientUnits="userSpaceOnUse"><stop offset="0" stop-color="#e38ddd"/><stop offset="1" stop-color="#9571f6"/></linearGradient><linearGradient id="linear-gradient-26" x1="5244.43" y1="1837.89" x2="5566.36" y2="2499.9" gradientTransform="translate(-2887.13)" xlink:href="#linear-gradient-25"/><linearGradient id="linear-gradient-27" x1="4135.07" y1="1755.06" x2="4196.6" y2="1852.85" gradientTransform="translate(-1637.57)" xlink:href="#linear-gradient-25"/><linearGradient id="linear-gradient-28" x1="5389.91" y1="1312.62" x2="5925.14" y2="2163.34" gradientTransform="translate(-2887.13)" xlink:href="#linear-gradient-5"/><linearGradient id="linear-gradient-29" x1="5208.6" y1="1853.33" x2="5525.23" y2="2504.43" gradientTransform="translate(-2887.13)" xlink:href="#linear-gradient-25"/><linearGradient id="linear-gradient-30" x1="5197.94" y1="1860.5" x2="5519.87" y2="2522.51" gradientTransform="translate(-2887.13)" xlink:href="#linear-gradient-10"/></defs><g class="cls-3"><g id="Illustration"><path class="cls-4" d="M728.12,973.94c42.69-58.43,408.16-541.65,1000.57-518.11,29.6,1.18,607.36,31.69,820.46,410.47,157.64,280.2-9.26,528.8,183,719.71,167.57,166.34,373.5,56.24,476.47,190.75,156.85,204.9-92.94,758.28-476.73,1066.9C2335.64,3162.32,1577.49,3396.11,988.23,2971,326.65,2493.61,333.37,1514.26,728.12,973.94Z" transform="translate(-435.8 -397.06)"/><path class="cls-1" d="M1560,1796c-64.21-60.26-148.94-158.12-187.28-296.5-50.28-181.47,23.41-273.18,15.1-580.42C1382.6,724.83,1377,589.3,1279,516.82c-76.75-56.81-201-68.1-276.41-15.45-62.7,43.78-99,136.89-110,203.36-9,54.17-1.77,93.5-33,122-31.91,29.16-66.36,12.65-96.2,34.25-60.51,43.81-25.47,188.9-19.81,212.35,63,260.85,303.35,436.78,409.12,512.25C1240.14,1648,1375.42,1731.18,1560,1796Z" transform="translate(-435.8 -397.06)"/><g class="cls-5"><g class="cls-6"><path class="cls-7" d="M1633.16,1844.92c-112-42.56-208.46-93.35-286.61-150.94-115.76-85.31-187.86-183.34-214.31-291.36-20.68-84.46-13-175.89-3.31-291.65,8-96,22.38-163.18,35-222.48,16.37-76.74,29.3-137.36,20.33-224.94-9.11-89-38.48-177.52-87.28-263.09l6-3.4c49.28,86.4,78.93,175.82,88.14,265.79,9.08,88.66-3.95,149.74-20.45,227.07-12.6,59.1-26.9,126.08-34.9,221.61-10,119.65-17.27,206.09,3.14,289.46,55.51,226.72,300.74,363.06,496.69,437.53Z" transform="translate(-435.8 -397.06)"/><path class="cls-7" d="M1137.79,1045.05l-1.11-3.71c-51.62-173.29-144.32-281.7-213-342.13-74.32-65.4-137.06-90.13-137.69-90.37l2.48-6.4c.63.25,64.52,25.43,139.74,91.62,68.84,60.59,161.57,168.88,213.88,341.51,14.09-6.83,68.31-35.2,122.56-91.09,57.81-59.57,127.51-163.55,131.22-320.6l6.86.16c-3.77,159.41-74.61,265-133.37,325.43-63.66,65.52-127.41,93.76-128,94Z" transform="translate(-435.8 -397.06)"/><path class="cls-7" d="M1124.22,1303.72l-2.39-.7c-84.6-24.83-180.55-122.09-285.19-289.08-77.73-124-131.44-242.37-132-243.55l6.25-2.83c2.11,4.68,213,467,410.48,528.16,9.85-14.11,69.18-97.58,143.85-170.84,82-80.47,266.78-107.39,274.61-108.5l1,6.79c-1.9.27-190.38,27.72-270.77,106.6-81,79.45-143.8,171-144.42,171.89Z" transform="translate(-435.8 -397.06)"/><path class="cls-7" d="M1317.47,1670.81l-6.79-.8c-.94-.12-95.93-11.75-220-55-114.51-39.92-278-115.74-406.5-250.21L436.34,1105.44l5-4.74,247.89,259.36c127.53,133.44,289.88,208.74,403.63,248.42,104.49,36.45,188.19,50.33,211.92,53.79-47.42-87.25-38.63-182.18,25.6-275,49.39-71.37,114.85-117,115.5-117.42l3.9,5.64c-.65.45-65.2,45.45-113.87,115.83-64.91,93.89-72.25,185.92-21.81,273.55Z" transform="translate(-435.8 -397.06)"/></g></g><path class="cls-2" d="M1746.91,2278.87c-200,29.41-459,38.33-718.91-38-66.34-19.48-476.12-139.78-455.2-321.68,7.37-64.07,62-81.67,73.31-167.16,13.45-101.3-54.59-141.43-114-257-35.48-69-139.31-270.78-28.64-406.08,66.13-80.85,205.86-134.29,319.36-124,166.47,15.05,243.88,164.2,370.49,418.82,112.23,225.71,100.06,286.68,183.72,447.8C1439.09,1951.13,1547.07,2112.62,1746.91,2278.87Z" transform="translate(-435.8 -397.06)"/><g class="cls-8"><g class="cls-6"><path class="cls-7" d="M2094,2328.39q-58.51,0-116.65-5.68c-279.21-27.32-536.06-156.19-763.41-383C977.55,1703.84,832.26,1421.12,752,1225.48c-55.91-136.29-70.89-293.62-44.52-467.64l6.78,1c-26.18,172.78-11.35,328.89,44.09,464,97.62,238,474.1,1020.07,1219.64,1093q57.77,5.65,116,5.65c171,0,344.12-36.58,516.22-109.22l2.66,6.32C2439.91,2291.63,2265.88,2328.39,2094,2328.39Z" transform="translate(-435.8 -397.06)"/><path class="cls-7" d="M951,1605.65l-2.8-1.29c-470.51-218.58-511.07-540-512.3-633.37,0-1.87,0-3.07-.09-3.58l6.79-1a43.58,43.58,0,0,1,.16,4.48C444,1063,484,1380,948.25,1596.82c8.28-14.51,47.94-86.88,74.93-187.48,27.76-103.43,47.42-258.74-16.54-411.26l6.33-2.65c64.73,154.38,44.85,311.37,16.78,415.88C999.37,1524.45,953,1602.24,952.58,1603Z" transform="translate(-435.8 -397.06)"/><path class="cls-7" d="M926.18,1980.82c-110,0-195.09-21.8-255.82-46.12-115-46.06-170-111-170.56-111.7l5.27-4.39c.53.64,54.66,64.51,168.26,109.89,104.64,41.81,282.54,76,536.32,2,6.83-23.29,76.58-274.77,8.21-589l-72.49-333.17,6.7-1.46L1224.56,1340c71.84,330.24-8.07,591.69-8.88,594.3l-.55,1.75-1.76.51C1103.75,1968.73,1008.06,1980.82,926.18,1980.82Z" transform="translate(-435.8 -397.06)"/></g></g><path class="cls-9" d="M2995.25,1242.07l-61,.1A434.37,434.37,0,0,0,2906,1126.92l51.55-29.89c14.09-8.17,18.9-26.6,10.78-41.2l-21.66-39c-8.17-14.69-26.31-20.09-40.55-12l-50.91,28.9a448.08,448.08,0,0,0-84-88.89l29.28-50.3c8.4-14.43,3.41-33.42-11.16-42.46l-39-24.18c-14.73-9.14-33.64-4.82-42.19,9.69l-29.35,49.79a455.57,455.57,0,0,0-121.43-37v-59c0-17.41-14.33-32.19-32.06-33l-47.44-2.16c-18-.82-32.56,12.79-32.56,30.39v59.69a461.51,461.51,0,0,0-127.16,29.06l-31.67-54c-9.31-15.85-30-22-46.21-13.68l-43.39,22.25c-16.4,8.42-22,28.22-12.55,44.18l32.82,55.21a458.12,458.12,0,0,0-95.22,90.25L2062.59,986c-16.83-9.52-38.43-4.58-48.21,11.08l-26.09,41.79c-9.84,15.77-4,36.23,13,45.65l61.42,34a438.81,438.81,0,0,0-33.54,125.23l-73.67.12c-19.83,0-36,15.07-36,33.57v49.21c0,18.51,16.13,33.31,36,33.06l75.63-.94a434.34,434.34,0,0,0,36.92,121.75l-66.76,37.88c-17,9.66-22.86,30.21-13,45.84l26.09,41.42c9.78,15.53,31.38,20.16,48.21,10.4l67.52-39.16a450.37,450.37,0,0,0,93.17,83.28l-38.93,66c-9.49,16.1-3.85,35.82,12.55,44l43.39,21.63c16.23,8.1,36.9,1.65,46.21-14.33l38.6-66.32a457.65,457.65,0,0,0,120.23,24.92V1810c0,17.61,14.6,31,32.56,29.94l47.44-2.84c17.73-1.06,32.06-16,32.06-33.45v-73.13a461,461,0,0,0,115-35.54l35.82,60.25c8.55,14.4,27.46,18.45,42.19,9.1l39-24.73c14.57-9.25,19.56-28.31,11.16-42.63l-34.78-59.23a457.25,457.25,0,0,0,82.41-84.64l58,32.09c14.24,7.88,32.38,2.22,40.55-12.58l21.66-39.27c8.12-14.71,3.31-33.07-10.78-41l-56.08-31.73a438.76,438.76,0,0,0,31.18-113.07l62.61-.78c16.13-.2,29.18-13.83,29.18-30.45v-44.19C3024.43,1255.49,3011.38,1242,2995.25,1242.07Zm-493.59,363.81c-180.4,6.69-331.37-133.32-331.37-312.94s151-321.57,331.37-317.18c174.28,4.24,311.26,144.35,311.26,313.07S2675.94,1599.41,2501.66,1605.88Z" transform="translate(-435.8 -397.06)"/><polygon class="cls-9" points="1864 408.3 1820.57 406.81 1805.6 445.74 1864 408.3"/><polygon class="cls-9" points="2294.57 426.27 2344.64 426.77 2344.64 463.7 2294.57 426.27"/><polygon class="cls-9" points="2485.39 604.43 2535.3 606.45 2522.83 634.4 2485.39 604.43"/><polygon class="cls-9" points="2563.76 845.53 2614.16 849.52 2597.7 873.98 2563.76 845.53"/><polygon class="cls-9" points="2479.9 1191.41 2528.82 1198.4 2534.81 1158.47 2479.9 1191.41"/><polygon class="cls-9" points="2292.74 1371.59 2336.66 1379.58 2340.15 1347.14 2292.74 1371.59"/><polygon class="cls-9" points="2073.13 1449.45 2033.69 1442.47 2067.64 1392.06 2073.13 1449.45"/><polygon class="cls-9" points="1859.5 1407.03 1813.59 1397.55 1849.02 1354.62 1859.5 1407.03"/><polygon class="cls-9" points="1601.46 584.49 1649.38 585.99 1630.41 620.92 1601.46 584.49"/><polygon class="cls-9" points="1506.13 960.32 1550.05 966.81 1546.56 930.88 1506.13 960.32"/><polygon class="cls-9" points="1600.46 1223.36 1643.39 1230.34 1646.88 1201.89 1600.46 1223.36"/><path class="cls-10" d="M3044.5,1246l-61.47.11a438.05,438.05,0,0,0-28.52-116.19l52-30.14c14.21-8.23,19.06-26.81,10.88-41.53L2995.52,1019c-8.24-14.82-26.54-20.26-40.89-12.11L2903.3,1036a452,452,0,0,0-84.69-89.61l29.52-50.71c8.47-14.55,3.44-33.69-11.25-42.81l-39.29-24.38c-14.86-9.21-33.92-4.86-42.55,9.78l-29.59,50.19A460.05,460.05,0,0,0,2603,851.14V791.63c0-17.56-14.45-32.45-32.33-33.27l-47.84-2.18c-18.1-.83-32.82,12.89-32.82,30.64V847a465.31,465.31,0,0,0-128.22,29.3l-31.93-54.4c-9.38-16-30.23-22.18-46.59-13.79l-43.75,22.43C2223,839,2217.32,859,2226.89,875.07L2260,930.73a462.11,462.11,0,0,0-96,91l-59.84-33.86c-17-9.59-38.75-4.62-48.61,11.17l-26.31,42.14c-9.93,15.89-4,36.52,13.13,46l61.93,34.27a442.24,442.24,0,0,0-33.82,126.24l-74.28.13c-20,0-36.26,15.18-36.26,33.84v49.61c0,18.66,16.27,33.58,36.26,33.33l76.26-.95a437.67,437.67,0,0,0,37.22,122.74l-67.31,38.19c-17.16,9.74-23.06,30.45-13.13,46.21l26.31,41.76c9.86,15.65,31.64,20.32,48.61,10.48l68.07-39.47a454.2,454.2,0,0,0,93.95,84l-39.25,66.57c-9.57,16.23-3.89,36.12,12.65,44.37l43.75,21.81c16.36,8.16,37.21,1.67,46.59-14.45l38.93-66.86A461.6,461.6,0,0,0,2490,1744.09v74.53c0,17.75,14.72,31.26,32.82,30.18l47.84-2.86c17.88-1.07,32.33-16.17,32.33-33.73v-73.72a465.14,465.14,0,0,0,115.91-35.83L2755,1763.4c8.63,14.51,27.69,18.6,42.55,9.17l39.29-24.93c14.69-9.32,19.72-28.54,11.25-43L2813.07,1645a461.27,461.27,0,0,0,83.09-85.33l58.47,32.35c14.35,8,32.65,2.25,40.89-12.68l21.84-39.58c8.18-14.84,3.33-33.35-10.88-41.38l-56.54-32a442.35,442.35,0,0,0,31.44-114l63.12-.78c16.28-.21,29.43-14,29.43-30.71v-44.55C3073.93,1259.56,3060.78,1246,3044.5,1246ZM2546.83,1612.8c-181.9,6.75-334.12-134.4-334.12-315.49s152.22-324.18,334.12-319.76c175.72,4.28,313.84,145.53,313.84,315.62S2722.55,1606.28,2546.83,1612.8Z" transform="translate(-435.8 -397.06)"/><path class="cls-11" d="M2398.76,625.09l267.55,2223.84c4,33.34-19,63.23-51.17,66.43L1500.76,3037.7c-68.27,4.25-105.65-30.63-109.86-66.09L1110,607.3c-4.19-35.26,29.3-67.19,97.86-67.19l1124.53,23.68C2364.94,564.34,2394.76,591.92,2398.76,625.09Z" transform="translate(-435.8 -397.06)"/><path class="cls-12" d="M2448.91,621.26l269,2235c4,33.52-19,63.56-51.34,66.78l-1155.3,115c-36.23,3.61-69.42-22.6-73.66-58.23L1155.16,603.25c-4.21-35.44,22.39-63.92,59-63.31l1168.11,19.71C2415,560.2,2444.9,587.93,2448.91,621.26Z" transform="translate(-435.8 -397.06)"/><path class="cls-13" d="M2427,744.54l249.35,2072.25c3.76,31.31-17.83,59.33-48.08,62.27L1541.73,2984.68c-33.67,3.27-64.52-21.19-68.47-54.36L1212.21,735c-3.92-33,20.78-59.7,54.79-59.34L2364.68,687.3C2395.24,687.63,2423.24,713.38,2427,744.54Z" transform="translate(-435.8 -397.06)"/><path class="cls-14" d="M1844.33,619.72c1.43,11.9-7.11,21.42-19.08,21.27s-22.86-9.93-24.29-21.86,7.15-21.44,19.13-21.26S1842.91,607.83,1844.33,619.72Z" transform="translate(-435.8 -397.06)"/><g class="cls-6"><path class="cls-7" d="M2239.14,2135.57c-222.44-411.26-554.73-534.36-654.77-958.2C1530.29,948.27,1567.14,729,1629.19,547l-415-7c-36.62-.61-63.22,27.87-59,63.31l282.47,2376.54c4.24,35.63,37.43,61.84,73.66,58.23l908.18-90.42C2426.19,2579.1,2338.29,2318.89,2239.14,2135.57Z" transform="translate(-435.8 -397.06)"/></g><path class="cls-15" d="M1649,1453.78c.7,3.42,3.9,20.77-7,37.64-11.69,18-30.53,21.62-33.67,22.17l-30.81-21,40.71-59.81Z" transform="translate(-435.8 -397.06)"/><path class="cls-16" d="M1577.45,1492.62l6.31,4.29a59.14,59.14,0,0,0,22.47-14.77c17.17-18.24,16.4-41.63,16.11-46.68l-10.27-6.8Z" transform="translate(-435.8 -397.06)"/><path class="cls-15" d="M1563.59,1341.69c37.84,25.75,69.32,92.06,43.57,129.9s-99,32.88-136.84,7.13a82.88,82.88,0,0,1,93.27-137Z" transform="translate(-435.8 -397.06)"/><path class="cls-17" d="M1451.7,1435.63s94-9.93,65.16-95.73c0,0,39.69,20.36,47.12,3.6,0,0-.37-8.18-26.61-22.08,0,0-83.95,30.11-78.7,51.54s-29.26,63.37-22.05,70.26,6.17,20.06,6.17,20.06,27.54,20.73,32.58,16.23S1479.18,1462.27,1451.7,1435.63Z" transform="translate(-435.8 -397.06)"/><path class="cls-18" d="M1329.59,1462.25l-8.88-6q19.53-80,39-160l129.54-84.43,7.35,5-16.89,40.84-21.46,31.52L1435.93,1322,1410,1365.4l-10.57,23.48-3.12,23.14Z" transform="translate(-435.8 -397.06)"/><path class="cls-19" d="M1395.83,1416.64l-66.22,45.62q21.57-78.6,43.16-157.18l123.64-88.43q-6.2,35.2-12.4,70.42Z" transform="translate(-435.8 -397.06)"/><path class="cls-20" d="M1541.12,1322.49a185.19,185.19,0,0,0-96.89,142.37l-63.13-43c-.91-7.4-7.13-65.8,35.73-107.35,24.47-23.72,52.82-30.22,65.2-32.27Z" transform="translate(-435.8 -397.06)"/><path class="cls-20" d="M1668,1438.72c34.77-42,52.15-63,67.68-71.26,81.29-43.35,215.66,66.73,235.38,83.22-37.61,54.7-69,101-92.59,136-25.41,37.71-36.6,53.88-59.25,87.38-36.69,54.28-67.26,99.29-90.19,132.21-7.72-2.91-160.57-62.6-164.48-161.21-1.27-32,13.35-63,30.15-98.66C1615.25,1502.77,1639.78,1472.77,1668,1438.72Z" transform="translate(-435.8 -397.06)"/><polygon class="cls-21" points="1183.73 1141.33 1383.15 1277.07 1442.62 1189.69 1266.8 1068.43 1237.09 1048.21 1183.73 1141.33"/><path class="cls-7" d="M1603.49,1520.32s-6.89,18.73,17.59,55.88l48.51-19.67L1655,1511.34l6.37-9.37,45.54-.25,2.69-55.54s-51.63-5.87-57.79,7.49S1603.49,1520.32,1603.49,1520.32Z" transform="translate(-435.8 -397.06)"/><path class="cls-22" d="M1637.22,1525.13s-22.55-46,30.77-45.21c0,0,25.58,32.72,22.79,36.81l108,52.22,36.85,58.16L1768,1614.16l-88.36-81.08S1647.44,1532.09,1637.22,1525.13Z" transform="translate(-435.8 -397.06)"/><path class="cls-23" d="M1992.31,2578.16l-121,15.2a40.5,40.5,0,0,1-45.23-35.13L1687.79,1457.74a40.5,40.5,0,0,1,35.14-45.23h0a162.44,162.44,0,0,1,181.43,140.93l123.08,979.49A40.5,40.5,0,0,1,1992.31,2578.16Z" transform="translate(-435.8 -397.06)"/><path class="cls-22" d="M2280.45,1323.71c.43-7.26,45.9-11.81,45.9-11.81-24.22-67-63.2-76.59-63.2-76.59l-92.79,322,94.77-159,5.76-9.67,29.9-27.33C2301.66,1346.82,2280.45,1323.71,2280.45,1323.71Z" transform="translate(-435.8 -397.06)"/><path class="cls-22" d="M2096.32,1275.74s41.88,18.28,40.07,25.32c0,0-27.29,15.49-30.91,29.56l20.06,35.18s2.52,11,2.52,11c1.58,6.9,39.81,173.51,41.4,180.44q5.25-167.49,10.51-335S2139.93,1219.42,2096.32,1275.74Z" transform="translate(-435.8 -397.06)"/><path class="cls-15" d="M2180,1222.23l-3.75,54.15q5.47,13.55,11,27.09l43-.33,17.78-15.47,15.15-52.36-44.06-5.76Z" transform="translate(-435.8 -397.06)"/><path class="cls-21" d="M2248,1287.67h0l-77.64,269.68-.9-.14q3.38-140.42,6.76-280.83c2,2.68,13.5,17.87,34.79,20.69A52.55,52.55,0,0,0,2248,1287.67Z" transform="translate(-435.8 -397.06)"/><path class="cls-15" d="M2261.72,1237.72c-3.19,2.39-19.54,14.16-42.29,11.09-24.29-3.28-37.22-21-39.32-23.92l6.61-42,81.61,12.83Z" transform="translate(-435.8 -397.06)"/><path class="cls-16" d="M2186.72,1182.85l-1.35,8.6a67.44,67.44,0,0,0,26.21,16c27.21,8.83,51-3.38,56.05-6.14q1-7,2-13.92Z" transform="translate(-435.8 -397.06)"/><path class="cls-15" d="M2335.74,1094.89c-8.12,51.62-61.2,116.47-112.82,108.36s-82.24-86.13-74.13-137.76a94.62,94.62,0,0,1,186.95,29.4Z" transform="translate(-435.8 -397.06)"/><circle class="cls-24" cx="1918.81" cy="532.42" r="53.04"/><path class="cls-25" d="M2315.1,893.92c-5.71,27.8,5.58,55.21,27.32,68.08,22.28,13.19,46.17,5.55,50.09,4.23A47.85,47.85,0,0,1,2379.35,977c-21.23,11.76-44.53,2.68-48.82.92a62.36,62.36,0,0,1-14.06-10.8c-3.64-3.74-9.34-9.67-12.73-19.19a48.58,48.58,0,0,1-2.29-21.83A60.49,60.49,0,0,1,2315.1,893.92Z" transform="translate(-435.8 -397.06)"/><path class="cls-26" d="M2374.22,889.87s-20.46-2.3-30.61,14.93c0,0-10.77,26.16-6.15,37.24,0,0-4.76-23.37,1.77-32.92S2357,879.72,2374.22,889.87Z" transform="translate(-435.8 -397.06)"/><path class="cls-27" d="M2367.37,896.39s-7.44,1-10,4.8c-1.69,2.56-5.39,4.93-7.69,6.23a5.07,5.07,0,0,0-2.46,3.35l-4.85,23.08S2343.41,914.06,2367.37,896.39Z" transform="translate(-435.8 -397.06)"/><path class="cls-28" d="M2369.42,902.18l-.3.24-14.23,11.29s-5.74,13.36-5,14.78c0,0,0,0,.05,0,.64.27,4.14-8.35,8.51-14.8A49.8,49.8,0,0,1,2369.42,902.18Z" transform="translate(-435.8 -397.06)"/><path class="cls-29" d="M2365.85,912.23s-6.07,4.84-6.66,6.52-2.44,5.26-2,5.82S2359.19,918.75,2365.85,912.23Z" transform="translate(-435.8 -397.06)"/><path class="cls-30" d="M2372.56,903.33s-.19,14.55-6,19.87a138.72,138.72,0,0,0-10.52,10.89S2371.82,915.5,2372.56,903.33Z" transform="translate(-435.8 -397.06)"/><path class="cls-31" d="M2376.78,901s5.18,16.8,2.22,21-11.13,12.09-11.66,15.47-11.2,5.17-11.2,5.17a50.37,50.37,0,0,0,12.44-13A51.64,51.64,0,0,0,2376.78,901Z" transform="translate(-435.8 -397.06)"/><path class="cls-32" d="M2386.45,899.63l7.06,23.8s-.24,9.87-14,20.64-20.14,5.48-22,8.06S2396.94,937.29,2386.45,899.63Z" transform="translate(-435.8 -397.06)"/><path class="cls-31" d="M2395,902.17s8.15,41.65-3.14,48.76-33.43,7.41-37.29,2.4c0,0,21.39,15.94,43.14-2.28C2397.71,951.05,2414.06,908.24,2395,902.17Z" transform="translate(-435.8 -397.06)"/><path class="cls-31" d="M2356.57,884.06s-23.6,5.51-26.76,16.47-10.8,14.05,3.41,42.06c0,0-11.47-9-12.07-23.38s7.51-28.45,8.86-28.46S2345.54,880.27,2356.57,884.06Z" transform="translate(-435.8 -397.06)"/><path class="cls-33" d="M2300.57,948.22l-5.23,10.42s54,17.87,58.55,36.29l8.76-6.74S2331.55,952.25,2300.57,948.22Z" transform="translate(-435.8 -397.06)"/><path class="cls-34" d="M2298.89,951.51A197.85,197.85,0,0,1,2358.55,991l-5.07,4.93-58.7-36.43Z" transform="translate(-435.8 -397.06)"/><path class="cls-24" d="M2235.65,953a71.88,71.88,0,0,0-35.15-4.1c-31.52,4.54-58.24,31.79-69.91,69.19a129.13,129.13,0,0,0,24.18,120.47c-2.88-5.68-14.3-29.86-5.9-59.26a81.82,81.82,0,0,1,27.57-41.11s21.24-16.71,30.8-13.77c0,0-3.07,19.56-19.54,24.13,0,0,21,3.29,47-25.55,0,0-8.15,24.49-20.2,28.32,0,0,12.64,10.64,36.71-15l27.6-20.74s-3.57,41,6.43,41.1c0,0,6.09-12.08,15.52-12.24,2.52,0,6.89.72,13,7.39,2.67,2.9,14.16,16.14,15.27,43.08,1.19,28.67-10.28,51.41-17.54,63.18,13.51-9.9,33.53-27.79,46.86-56,4.41-9.36,11.52-24.85,12.34-46.25.35-9.07.9-31.21-12.49-53.51a87.94,87.94,0,0,0-22.88-25.21C2299.28,950,2254.91,951.26,2235.65,953Z" transform="translate(-435.8 -397.06)"/><path class="cls-35" d="M2245.07,966c-7.16,1.91-14.26,3.94-21.27,6.2-7.13,1.82-14.17,3.92-21.07,6.41A107.61,107.61,0,0,0,2183,987.8c-1.48,1-3,2-4.41,3.09s-2.81,2.28-4.13,3.53a73.1,73.1,0,0,0-7.47,7.87,94,94,0,0,0-11.63,18.42,150.59,150.59,0,0,0-8.51,20.22,124.52,124.52,0,0,0-4.93,21.31c-.73,3.59-1.35,7.21-1.77,10.87s-.71,7.33-.89,11a119.66,119.66,0,0,1-.31-22.32,126.61,126.61,0,0,1,5-21.83,154.6,154.6,0,0,1,8.67-20.62,96.63,96.63,0,0,1,12-19,75.18,75.18,0,0,1,7.77-8.19c1.37-1.29,2.84-2.47,4.3-3.67s3.1-2.21,4.66-3.27a110,110,0,0,1,20.34-9.52c7-2.54,14.15-4.64,21.33-6.52C2230.34,967.8,2237.69,966.64,2245.07,966Z" transform="translate(-435.8 -397.06)"/><path class="cls-25" d="M2251.56,974.89c-10.22,3.52-20.45,7-30.48,11-2.5,1-5,2-7.4,3.21a24.31,24.31,0,0,0-3.46,2,6.54,6.54,0,0,0-.74.64,3.7,3.7,0,0,0-.33.36l-.25.39a3.75,3.75,0,0,1-1.34,1.61,9.06,9.06,0,0,1-3.94,1.09l-4,.38a18.39,18.39,0,0,0-7.6,2.3,14,14,0,0,0-3.07,2.5,36.13,36.13,0,0,0-2.43,3.19c-1.61,2.19-3.35,4.27-5.12,6.32a116.15,116.15,0,0,0-10,12.62,164,164,0,0,0-14.23,29l-.09,0a133.5,133.5,0,0,1,5.8-15.15,117.56,117.56,0,0,1,7.66-14.35,69,69,0,0,1,4.84-6.57c1.73-2.09,3.55-4.09,5.34-6.11s3.56-4,5.19-6.18a30.67,30.67,0,0,1,2.58-3.18,14.76,14.76,0,0,1,3.28-2.5,19.71,19.71,0,0,1,7.84-2.18l4-.33a8.42,8.42,0,0,0,3.79-1.08,3.4,3.4,0,0,0,1.19-1.48l.28-.47c.11-.14.24-.26.36-.39a7.16,7.16,0,0,1,.77-.69,24.54,24.54,0,0,1,3.45-2.2c2.39-1.29,4.86-2.42,7.35-3.49,5-2.1,10.1-3.88,15.23-5.6s10.31-3.27,15.54-4.67Z" transform="translate(-435.8 -397.06)"/><path class="cls-35" d="M2281.45,977.79c-5.6,2.25-11.17,4.6-16.66,7.1s-11,5-16.29,7.83q-4,2.09-7.85,4.4c-2.57,1.53-5.13,3.06-7.65,4.63a73,73,0,0,0-7.29,5c-2.26,1.87-4.42,3.89-5.6,6.66l-.3-.07a10.91,10.91,0,0,1,1.59-4.41,23.08,23.08,0,0,1,1.34-1.94c.48-.62,1-1.18,1.53-1.78a46.8,46.8,0,0,1,7.07-6c5-3.58,10.61-6.12,16.1-8.69s11.12-4.86,16.77-7.06,11.37-4.19,17.14-6Z" transform="translate(-435.8 -397.06)"/><path class="cls-25" d="M2308,976.23a38.48,38.48,0,0,1,1.24,6.61c.13,1.11.21,2.22.27,3.34a31.22,31.22,0,0,1,0,3.35c-.08,2.24-.43,4.47-.57,6.69s-.17,4.45-.17,6.69a50.16,50.16,0,0,1-.41,6.71c-.16,1.12-.24,2.24-.46,3.34s-.44,2.21-.67,3.32a39.43,39.43,0,0,1-5.4,12.33l-.18-.09c1.4-4.26,2.54-8.45,3.5-12.73.43-2.15,1-4.28,1.35-6.45.21-1.08.41-2.16.58-3.25s.43-2.18.6-3.27.34-2.2.45-3.3.14-2.21.16-3.32a31,31,0,0,0-.17-3.33l-.28-3.31c-.14-2.21-.16-4.42-.18-6.63s0-4.43.11-6.68Z" transform="translate(-435.8 -397.06)"/><path class="cls-35" d="M2331.57,985.53c.64,3,1.15,6,1.69,9q.54,4.56,1,9.13,1,9.12,1.54,18.3c.4,6.11.61,12.24.57,18.37,0,3.07-.16,6.14-.34,9.2l-.7,4.56c-.32,1.51-.69,3-1,4.49l.52-4.56.22-4.56c.18-3,.34-6.09.34-9.14,0-6.1-.17-12.2-.57-18.3s-.89-12.18-1.53-18.26q-.48-4.56-1-9.11Z" transform="translate(-435.8 -397.06)"/><path class="cls-25" d="M2355.28,1016.9c.75,4.3,1.13,8.64,1.47,13s.27,8.72.17,13.09-.47,8.73-1,13.08-1.25,8.67-2.11,13a150,150,0,0,1-7.54,25.11q-2.46,6.07-5.36,11.95c-2,3.86-4.11,7.69-6.49,11.33l-.18-.09a182,182,0,0,0,20.79-100.4Z" transform="translate(-435.8 -397.06)"/><path class="cls-36" d="M2332.51,1465.56h0c7,55.61-24.15,134.13-79.76,141.12l-544.7,12.25-20.26-161.19a40.5,40.5,0,0,1,35.14-45.23l504.52-7.2C2283.05,1398.32,2325.52,1410,2332.51,1465.56Z" transform="translate(-435.8 -397.06)"/><path class="cls-36" d="M2454.89,2417.76l9,55.07a101.46,101.46,0,0,1-88,113.33l-504.52,7.2a40.5,40.5,0,0,1-45.23-35.13l-20.26-161.18,544.71-12.25C2406.13,2377.81,2447.91,2362.15,2454.89,2417.76Z" transform="translate(-435.8 -397.06)"/><path class="cls-37" d="M2103.84,1817.3c1.36-7.14,47-5.87,47-5.87-15.51-69.52-53-84-53-84l-133,307.62,114.23-145.68,6.94-8.85,33.12-23.31C2121.94,1842.92,2103.84,1817.3,2103.84,1817.3Z" transform="translate(-435.8 -397.06)"/><path class="cls-37" d="M1927.31,1746.3s39.22,23.46,36.52,30.21c0,0-29,11.9-34.41,25.4q7.71,18.72,15.43,37.44s1.1,11.18,1.1,11.2c.69,7,17.41,177.16,18.11,184.24q26.52-165.46,53-330.93S1977.73,1696,1927.31,1746.3Z" transform="translate(-435.8 -397.06)"/><path class="cls-15" d="M2017.09,1703.86q-5.31,26.63-10.61,53.24,3.72,14.13,7.43,28.26l42.74,5.15,19.59-13.08,21.69-50-43-11.32Z" transform="translate(-435.8 -397.06)"/><path class="cls-21" d="M2076.24,1777.43h0L1964.94,2035l-.88-.25,42.42-277.69c1.61,2.91,11.12,19.44,31.88,25A52.58,52.58,0,0,0,2076.24,1777.43Z" transform="translate(-435.8 -397.06)"/><path class="cls-15" d="M2096.2,1729.62c-3.46,2-21.17,11.57-43.35,5.62-23.68-6.34-34.25-25.51-36-28.72l11.9-40.86,79.31,23.11Z" transform="translate(-435.8 -397.06)"/><path class="cls-16" d="M2028.79,1665.66l-2.43,8.37a67.57,67.57,0,0,0,24,19.18c25.87,12.21,51,3.12,56.38,1q1.88-6.78,3.76-13.55Z" transform="translate(-435.8 -397.06)"/><path class="cls-15" d="M2187.79,1597.37c-14.62,50.17-75.51,107.74-125.69,93.13s-70.62-95.89-56-146.06a94.62,94.62,0,1,1,181.69,52.93Z" transform="translate(-435.8 -397.06)"/><circle class="cls-24" cx="1791.74" cy="1038.65" r="53.04"/><path class="cls-25" d="M2192.88,1395.41c-9.21,26.84-1.49,55.47,18.44,71,20.42,15.91,45.08,11.37,49.14,10.56A47.89,47.89,0,0,1,2246,1486c-22.56,9-44.51-3-48.54-5.31a62.28,62.28,0,0,1-12.57-12.5c-3.13-4.17-8-10.77-10.19-20.64a48.62,48.62,0,0,1,.51-21.95A60.4,60.4,0,0,1,2192.88,1395.41Z" transform="translate(-435.8 -397.06)"/><path class="cls-26" d="M2252,1398.91s-20-4.89-32.26,10.92c0,0-14,24.57-10.84,36.15,0,0-1.75-23.79,6-32.43S2236.23,1386.65,2252,1398.91Z" transform="translate(-435.8 -397.06)"/><path class="cls-27" d="M2244.41,1404.51s-7.5,0-10.51,3.49c-2,2.32-6,4.2-8.41,5.2a5,5,0,0,0-2.87,3l-7.74,22.27S2218.39,1419,2244.41,1404.51Z" transform="translate(-435.8 -397.06)"/><path class="cls-28" d="M2245.7,1410.51l-.33.2-15.55,9.39s-7.38,12.52-6.87,14c0,0,0,.06,0,.07.6.35,5.17-7.77,10.32-13.61A49.76,49.76,0,0,1,2245.7,1410.51Z" transform="translate(-435.8 -397.06)"/><path class="cls-29" d="M2240.89,1420s-6.65,4-7.44,5.62-3.09,4.9-2.73,5.52S2233.45,1425.65,2240.89,1420Z" transform="translate(-435.8 -397.06)"/><path class="cls-30" d="M2248.67,1412.05s-2,14.41-8.46,19a137.84,137.84,0,0,0-11.83,9.46S2246.39,1424,2248.67,1412.05Z" transform="translate(-435.8 -397.06)"/><path class="cls-31" d="M2253.16,1410.23s3,17.33-.46,21.07-12.59,10.59-13.54,13.87-11.77,3.7-11.77,3.7a50.11,50.11,0,0,0,14-11.36A51.66,51.66,0,0,0,2253.16,1410.23Z" transform="translate(-435.8 -397.06)"/><path class="cls-32" d="M2262.92,1410.14l4,24.51s-1.48,9.76-16.55,18.69-20.67,2.88-22.82,5.2S2268.54,1448.83,2262.92,1410.14Z" transform="translate(-435.8 -397.06)"/><path class="cls-31" d="M2271.07,1413.76s2.8,42.34-9.31,48-34.1,3.1-37.29-2.36c0,0,19.19,18.53,43.07,3.23C2267.54,1462.58,2289.21,1422.2,2271.07,1413.76Z" transform="translate(-435.8 -397.06)"/><path class="cls-31" d="M2235.26,1390.91s-24.11,2.45-28.63,12.92-12.5,12.57-2,42.15c0,0-10.24-10.35-9-24.72s11.07-27.26,12.4-27.1S2224.81,1385.74,2235.26,1390.91Z" transform="translate(-435.8 -397.06)"/><path class="cls-33" d="M2171.56,1447.42l-6.52,9.67s51.27,24.59,53.47,43.44l9.54-5.57S2201.78,1455.36,2171.56,1447.42Z" transform="translate(-435.8 -397.06)"/><path class="cls-34" d="M2169.47,1450.46a198,198,0,0,1,54.16,46.72l-5.65,4.24-53.6-43.6Q2166.93,1454.15,2169.47,1450.46Z" transform="translate(-435.8 -397.06)"/><path class="cls-24" d="M2106.56,1443.92a72,72,0,0,0-34.35-8.53c-31.84.49-61.81,24.13-78.14,59.74a129.13,129.13,0,0,0,8.66,122.56c-2.13-6-10.38-31.43,1.68-59.53a81.9,81.9,0,0,1,32.58-37.27s23.19-13.87,32.3-9.74c0,0-5.53,19-22.45,21.45,0,0,20.37,5.93,49.84-19.37,0,0-11.2,23.26-23.64,25.52,0,0,11.19,12.16,38.32-10.16l30-17.07s-8.75,40.17,1.15,41.58c0,0,7.58-11.2,16.95-10.16,2.51.28,6.75,1.59,12,9,2.28,3.22,12,17.82,9.68,44.67-2.48,28.6-16.74,49.69-25.44,60.44,14.66-8.1,36.79-23.29,53.6-49.62,5.58-8.73,14.6-23.19,18.13-44.31,1.5-8.95,4.86-30.84-5.58-54.66a87.71,87.71,0,0,0-19.5-27.91C2170,1449.05,2125.88,1444.63,2106.56,1443.92Z" transform="translate(-435.8 -397.06)"/><path class="cls-35" d="M2114.26,1458c-7.35,1-14.65,2.09-21.9,3.44-7.29.9-14.55,2.09-21.7,3.68a106.91,106.91,0,0,0-20.78,6.65c-1.6.82-3.19,1.63-4.76,2.51s-3.09,1.9-4.55,3a72.86,72.86,0,0,0-8.42,6.86,93.8,93.8,0,0,0-13.87,16.79,149.39,149.39,0,0,0-11,19,122.66,122.66,0,0,0-7.6,20.52c-1.19,3.46-2.26,7-3.14,10.55s-1.64,7.18-2.29,10.83a119.86,119.86,0,0,1,2.53-22.18,127.46,127.46,0,0,1,7.79-21,154.56,154.56,0,0,1,11.22-19.34,97.09,97.09,0,0,1,14.31-17.31,76.78,76.78,0,0,1,8.75-7.14c1.53-1.11,3.14-2.09,4.74-3.09s3.35-1.79,5-2.65a109.75,109.75,0,0,1,21.38-6.85c7.27-1.63,14.62-2.81,22-3.76A220.69,220.69,0,0,1,2114.26,1458Z" transform="translate(-435.8 -397.06)"/><path class="cls-25" d="M2119.56,1467.64c-10.59,2.19-21.18,4.32-31.63,7-2.61.67-5.21,1.37-7.75,2.25a25.09,25.09,0,0,0-3.69,1.57,6.84,6.84,0,0,0-.82.54c-.12.11-.26.2-.37.31l-.3.36a3.7,3.7,0,0,1-1.53,1.43,9.1,9.1,0,0,1-4,.58l-4.05-.14a18.32,18.32,0,0,0-7.84,1.32,13.84,13.84,0,0,0-3.35,2.09,33,33,0,0,0-2.82,2.85c-1.87,2-3.87,3.81-5.88,5.61a117,117,0,0,0-11.55,11.25,163.91,163.91,0,0,0-17.8,26.93l-.09,0a132.84,132.84,0,0,1,7.68-14.3,116.55,116.55,0,0,1,9.42-13.25,68.36,68.36,0,0,1,5.63-5.91c2-1.85,4-3.61,6.08-5.38s4.05-3.56,5.94-5.47a30.57,30.57,0,0,1,3-2.82,14.16,14.16,0,0,1,3.57-2.07,19.65,19.65,0,0,1,8.06-1.16l4,.18a8.28,8.28,0,0,0,3.88-.58,3.35,3.35,0,0,0,1.37-1.32l.35-.43c.12-.12.27-.23.4-.34a6.81,6.81,0,0,1,.85-.59,26,26,0,0,1,3.7-1.75c2.54-1,5.13-1.78,7.74-2.52,5.22-1.45,10.52-2.57,15.82-3.61s10.64-1.94,16-2.67Z" transform="translate(-435.8 -397.06)"/><path class="cls-35" d="M2148.83,1474.32c-5.84,1.52-11.66,3.14-17.43,4.92s-11.51,3.61-17.15,5.69c-2.82,1-5.6,2.17-8.34,3.38s-5.48,2.38-8.18,3.61a71.32,71.32,0,0,0-7.87,4.07c-2.48,1.56-4.88,3.29-6.4,5.88l-.29-.1a10.9,10.9,0,0,1,2.14-4.17,21.7,21.7,0,0,1,1.57-1.76c.55-.55,1.16-1,1.74-1.57a47.23,47.23,0,0,1,7.78-5c5.43-2.92,11.3-4.72,17.08-6.57s11.65-3.41,17.53-4.87,11.8-2.71,17.76-3.77Z" transform="translate(-435.8 -397.06)"/><path class="cls-35" d="M2158.66,1479a63.87,63.87,0,0,1-3.92,9.13,58.82,58.82,0,0,1-5.27,8.46,34.33,34.33,0,0,1-7,7.13,19.65,19.65,0,0,1-4.41,2.4,12.73,12.73,0,0,1-4.91.8,16.51,16.51,0,0,0,8.86-3.81,40.29,40.29,0,0,0,6.68-7.12,85,85,0,0,0,5.39-8.23c.83-1.42,1.62-2.87,2.37-4.33S2158,1480.48,2158.66,1479Z" transform="translate(-435.8 -397.06)"/><path class="cls-25" d="M2175.41,1476.15a38.74,38.74,0,0,1,.38,6.71c0,1.12-.07,2.24-.16,3.35a30.86,30.86,0,0,1-.39,3.33c-.37,2.21-1,4.38-1.42,6.56s-.73,4.4-1,6.62a51.23,51.23,0,0,1-1.27,6.6c-.29,1.09-.52,2.19-.88,3.26s-.71,2.13-1.08,3.2a39.21,39.21,0,0,1-6.93,11.55l-.17-.12c1.94-4,3.6-8.06,5.1-12.18.7-2.08,1.52-4.11,2.15-6.22.35-1,.69-2.1,1-3.16s.71-2.1,1-3.16.61-2.14.86-3.22.42-2.17.58-3.27a30.72,30.72,0,0,0,.26-3.32l.14-3.33c.14-2.2.41-4.39.67-6.59s.55-4.4,1-6.61Z" transform="translate(-435.8 -397.06)"/><path class="cls-35" d="M2197.56,1488.37c.26,3.06.38,6.12.53,9.18q0,4.59-.15,9.18-.21,9.18-.8,18.35c-.38,6.12-.95,12.22-1.78,18.3-.38,3-.93,6.06-1.5,9.08l-1.28,4.43c-.5,1.46-1.06,2.89-1.6,4.32l1.1-4.45.8-4.5c.56-3,1.11-6,1.49-9,.82-6,1.39-12.13,1.77-18.22s.66-12.2.8-18.31c.07-3.06.12-6.11.14-9.17Z" transform="translate(-435.8 -397.06)"/><path class="cls-25" d="M2217.09,1522.5c.2,4.35,0,8.71-.19,13.07s-.85,8.68-1.5,13-1.58,8.6-2.6,12.85-2.35,8.44-3.75,12.58a148.77,148.77,0,0,1-10.67,24c-2.15,3.81-4.41,7.55-6.83,11.17s-5.06,7.11-7.89,10.42l-.16-.12a181,181,0,0,0,13.5-22.18,182.88,182.88,0,0,0,19.89-74.75Z" transform="translate(-435.8 -397.06)"/><path class="cls-38" d="M2080.45,1586.2s9,9.24,19.86,5.94" transform="translate(-435.8 -397.06)"/><rect class="cls-39" x="2007.35" y="1551.1" width="74.45" height="50.3" rx="7.36" transform="translate(102.19 -917.25) rotate(16.67)"/><polygon class="cls-40" points="1603.14 1199.49 1583.87 1193.72 1614.49 1154.58 1633.77 1160.35 1603.14 1199.49"/><rect class="cls-41" x="2007.35" y="1551.1" width="74.45" height="50.3" rx="7.36" transform="translate(102.19 -917.25) rotate(16.67)"/><rect class="cls-42" x="2098.75" y="1577.67" width="74.45" height="50.3" rx="7.36" transform="translate(113.65 -942.35) rotate(16.67)"/><polygon class="cls-40" points="1694.85 1228.54 1675.58 1222.77 1706.2 1183.63 1725.47 1189.4 1694.85 1228.54"/><rect class="cls-41" x="2098.75" y="1577.67" width="74.45" height="50.3" rx="7.36" transform="translate(113.65 -942.35) rotate(16.67)"/><path class="cls-36" d="M2393.35,1928l9,55.06a101.47,101.47,0,0,1-88,113.34l-544.7,12.25-25.31-201.37L2289,1895.05C2344.59,1888.07,2386.37,1872.41,2393.35,1928Z" transform="translate(-435.8 -397.06)"/><path class="cls-36" d="M2346.93,2265.63a15,15,0,0,0,3.68-25.73l-36.2-28.43L2278.22,2183a15,15,0,0,0-24.13,9.68l-6.52,45.56-6.53,45.57a15,15,0,0,0,20.44,16l.53-.21a15,15,0,0,1,19.51,8.35l40.31,100.54a15,15,0,0,0,19.51,8.35l29.22-11.72a15,15,0,0,0,8.34-19.51l-40.32-100.55a15,15,0,0,1,8.35-19.51Z" transform="translate(-435.8 -397.06)"/><path class="cls-23" d="M2081.38,2216.18a15,15,0,0,0,23.23-11.66l2.68-45.95,2.69-46a15,15,0,0,0-21.71-14.28L2047.13,2119,2006,2139.63a15,15,0,0,0-1.52,25.94l.48.31a15,15,0,0,1,4.28,20.79l-59.55,90.49A15,15,0,0,0,1954,2298l26.29,17.3a15,15,0,0,0,20.79-4.29l59.55-90.5a15,15,0,0,1,20.78-4.28Z" transform="translate(-435.8 -397.06)"/><path class="cls-36" d="M2286.42,1775.9a15,15,0,0,0,5.85-25.32l-33.67-31.39-33.67-31.39a15,15,0,0,0-24.86,7.6l-10.34,44.85-10.35,44.86a15,15,0,0,0,19,17.72l.54-.17a15,15,0,0,1,18.74,10l31.69,103.6a15,15,0,0,0,18.73,10l30.1-9.2a15,15,0,0,0,10-18.74l-31.69-103.59a15,15,0,0,1,10-18.74Z" transform="translate(-435.8 -397.06)"/><polygon class="cls-43" points="142.45 2084.82 893.26 2052.17 1758.31 2082.48 904.92 2269.02 142.45 2084.82"/><path class="cls-44" d="M1183.19,3205.38,575,3041.69c-61.25-16.48-108.84-77.16-108.84-136V2905c0-58.85,47.59-98.34,108.84-87.53l652.28,106.74Z" transform="translate(-435.8 -397.06)"/><path class="cls-45" d="M2195.16,3082.45,1212.5,3192.19c-61.55,6.88-112.15-36-112.15-96v-40.64c0-59.92,50.6-112.52,112.15-117.42L2195.16,2860C2151.68,2940.9,2141.64,3016.63,2195.16,3082.45Z" transform="translate(-435.8 -397.06)"/><path class="cls-46" d="M2203.71,3093.35l-983,111.46c-80.28,9.1-146.8-47.13-146.8-125.51v-.86c0-78.39,66.52-147.35,146.8-153.61l983-76.67c5.92-.46,10.7,4.46,10.7,11s-4.78,12.22-10.7,12.71l-983,80c-64.58,5.25-117.91,60.82-117.91,123.77v.86c0,63,53.33,108.31,117.91,101.21l983-108.09c5.92-.65,10.7,4.12,10.7,10.65S2209.63,3092.68,2203.71,3093.35Z" transform="translate(-435.8 -397.06)"/><path class="cls-47" d="M1208.74,2924.9,575,2817.5c-61.25-10.81-108.84-91.09-108.84-179.45v-1c0-88.36,47.59-158.48,108.84-156.21l672.24,25Z" transform="translate(-435.8 -397.06)"/><path class="cls-48" d="M2195.16,2831l-927.59,70c-91.48,6.9-167.22-60.31-167.22-150.28v-61c0-90,75.74-165,167.22-167.45l927.59-25.29C2151.54,2618.22,2141.79,2731.8,2195.16,2831Z" transform="translate(-435.8 -397.06)"/><path class="cls-49" d="M2203.71,2848.16l-983,76.67c-80.28,6.26-146.8-84.3-146.8-202v-1.3c0-117.69,66.52-215.1,146.8-217.09l983-24.43c5.92-.15,10.7,7.68,10.7,17.5s-4.78,17.91-10.7,18.09l-983,29.48c-64.58,1.93-117.91,80.44-117.91,175v1.29c0,94.53,53.33,167.55,117.91,162.85l983-71.62c5.92-.43,10.7,7.17,10.7,17S2209.63,2847.7,2203.71,2848.16Z" transform="translate(-435.8 -397.06)"/><path class="cls-50" d="M1012.23,2836.34l-135.46-23.67c-31.63-86.34-29.25-165.64,0-260.43l135.46,9.62C984.47,2661.61,988.67,2752,1012.23,2836.34Z" transform="translate(-435.8 -397.06)"/><path class="cls-51" d="M1177.23,1880.41v-237H1023.47v237A54.77,54.77,0,0,1,987.28,1932C845.85,1982.81,743.9,2122.39,743.9,2251c0,161,159.59,243.83,356.45,243.83S1456.79,2412,1456.79,2251c0-128.65-102-268.23-243.38-319.09A54.76,54.76,0,0,1,1177.23,1880.41Z" transform="translate(-435.8 -397.06)"/><path class="cls-52" d="M804.93,2139.59c-22.69,31.33-35.49,66.74-35.49,104.25,0,127.7,148.15,231.23,330.91,231.23s330.9-103.53,330.9-231.23c0-37.51-12.8-72.92-35.48-104.25Z" transform="translate(-435.8 -397.06)"/><ellipse class="cls-53" cx="664.54" cy="1742.53" rx="295.29" ry="25.63"/><g class="cls-54"><path class="cls-7" d="M1131.21,2388.87c-39.8-.14-122-.41-185.21-61.74-38.25-37.12-85.94-112.48-62.9-174.73,35-94.42,204.91-83.58,216.66-161.91,5.35-35.62-29.18-41.94-37.27-103.67-8.92-68.06,28.5-95.08,28-157.26-.2-22.32-5.32-51.5-25-86.19h-41.94v237A54.77,54.77,0,0,1,987.28,1932C845.85,1982.81,743.9,2122.39,743.9,2251c0,161,159.59,243.83,356.45,243.83S1456.79,2412,1456.79,2251a253.43,253.43,0,0,0-1.56-27.71C1400,2285.06,1284.57,2389.38,1131.21,2388.87Z" transform="translate(-435.8 -397.06)"/></g><path class="cls-7" d="M1170.82,1672.49h-141a24.46,24.46,0,0,1-24.46-24.46h0a24.47,24.47,0,0,1,24.46-24.47h141a24.47,24.47,0,0,1,24.46,24.47h0A24.46,24.46,0,0,1,1170.82,1672.49Z" transform="translate(-435.8 -397.06)"/><path class="cls-7" d="M2170.56,1592.74a74.54,74.54,0,0,0,12.11-38.2c.93-35.44-25.35-63.08-28.88-61.49-1.91.85.51,11.24,1.86,15.84,2.82,9.58,5.84,10.5,5.59,14.9-.52,9.06-13.6,9.41-20.5,21.43-5,8.66-5.36,21,0,30.75C2149.64,1592.16,2169.71,1592.73,2170.56,1592.74Z" transform="translate(-435.8 -397.06)"/><polygon class="cls-55" points="2296.23 1965.43 2286.13 1930.67 2328.31 1899.41 2354.6 1889.58 2339.04 1938.22 2296.23 1965.43"/><path class="cls-56" d="M2679.83,3062.69s23.07,58,17,83.78c24.77-.49,40.79-3.65,40.79-3.65s-9.95-26.47-11.89-39.58c-2.63-17.72-2.43-46.38-2.43-46.38Z" transform="translate(-435.8 -397.06)"/><path class="cls-57" d="M2425.52,3198.43a18.23,18.23,0,0,1,4.36,10.66,17.32,17.32,0,0,1-1.31,7.15c-3.93,10.35-10.11,11.72-16.78,22.7-4.07,6.71-3.3,8.73-7,11.76-4.91,4-10.87,4.22-16,4.28a285.33,285.33,0,0,1-37.07-2.09q12.42-16,26.45-32.46,6.16-7.2,12.3-14.06l24.34-8.23Z" transform="translate(-435.8 -397.06)"/><path class="cls-58" d="M2405.27,3080.24s-13.91,72.61,3.79,92.94c15.09,20.33-7.28,5.83-7.28,5.83l-26.71,23.31L2359,3230s14.75-71.06,10.82-99.26-5.9-47.22-5.9-47.22Z" transform="translate(-435.8 -397.06)"/><path class="cls-59" d="M2352.81,2286.06s-37.38,33.44-37.38,171.16,17.7,436.77,17.7,436.77l28.34,214.11s29.38,1,49.05-4.86c17.71-80.66,46.56-217.12,32.79-331.23-5.9-124,49.19-279.37,49.19-279.37s47.21,157.39,80.66,236.09,97.12,325.23,103,342.94c39.13,3.55,55.85-6.8,55.85-6.8s-25.1-265.31-48.7-365.65-21.65-342.34-61-411.2C2533.81,2252.61,2352.81,2286.06,2352.81,2286.06Z" transform="translate(-435.8 -397.06)"/><path class="cls-60" d="M2352.81,2286.06s-37.38,33.44-37.38,171.16,17.7,436.77,17.7,436.77l28.34,214.11s29.38,1,49.05-4.86c17.71-80.66,46.56-217.12,32.79-331.23-5.9-124,49.19-279.37,49.19-279.37s47.21,157.39,80.66,236.09,97.13,325.23,103,342.94c39.13,3.55,55.85-6.8,55.85-6.8s-25.1-265.31-48.7-365.65-21.65-342.34-61-411.2C2533.81,2252.61,2352.81,2286.06,2352.81,2286.06Z" transform="translate(-435.8 -397.06)"/><path class="cls-61" d="M2547,2538.4c11.65,75.77,35,116.56,93.25,169,46.62,35,11.65,110.73,29.14,169,5.82,17.48,23.31,35,29.14,52.45,21.68,43.38,1.43,96.43,11.26,142.36,15.3-2.11,22.25-6.37,22.25-6.37s-25.1-265.31-48.7-365.65-21.65-342.34-61-411.2c-88.54-35.41-269.54-2-269.54-2s-37.38,33.44-37.38,171.16c0,11.18.11,23.43.33,36.48,38.81,34.34,118.18,42,167.13,3.9a23.13,23.13,0,0,1,9.35-4.23c.15-.44.26-.73.26-.73l.2.68C2515,2489.25,2541.94,2518.18,2547,2538.4Z" transform="translate(-435.8 -397.06)"/><path class="cls-57" d="M2690.76,3168.49s-5.75,0-5.27,7.43-2.59,33,26.64,34.17,33.73-2.07,34.69-2.07-7.67-24.44-7.67-24.44l-9.34-12-25.16-2.63Z" transform="translate(-435.8 -397.06)"/><path class="cls-62" d="M2755.56,3194.13c-.62-6.17-4.07-15.88-7.54-23.69-5.16-11.61-.93-16-5.86-26.53-1.7-3.66-3.36-7.12-7-10.56-.83-.79-8.9-8.24-20.64-7.86a20.91,20.91,0,0,0-9.72,2.28c-4.53,2.41-6.8,6-8.74,9.22-3,5-2.35,6.55-7,20.89a50.52,50.52,0,0,0-1.84,7.11,49.66,49.66,0,0,0-.77,6.37c7.66,0,37.13,1.2,43.36,5.76s9.34,12.21,9.34,19.88,3.84,11.26,7.67,11C2750.24,3207.81,2757.05,3201.46,2755.56,3194.13Z" transform="translate(-435.8 -397.06)"/><path class="cls-62" d="M2401.54,3163c6.58.1,11.41,5.34,15.05,18s21.13,23.8.73,21.12-35.21,26.23-42.49,36.92-26.85,20.18-26.36,9.73,9.11-15.32,11.54-26S2386.52,3162.74,2401.54,3163Z" transform="translate(-435.8 -397.06)"/><path class="cls-63" d="M2747.52,2302.68c4.84-13.46,35.05-101.86-13.78-182.48-40-66-109.14-87.53-119-90.45-60-17.73-90.12,5-109.07-15.91-32.14-35.58,4.27-156.75,74.7-181,79.39-27.35,174.63,77.84,213.23,146.94,50.63,90.65,38.17,180.75,35.24,199.3a311.27,311.27,0,0,1-38.43,107.58Z" transform="translate(-435.8 -397.06)"/><path class="cls-64" d="M2540.2,1815.72c-70.87-2.84-125.52-1.71-156.39,29.14-32.61,32.58.34,69.37-6.74,154.61-10.84,130.49-94,162.38-100.25,294.77a338.11,338.11,0,0,0,11.3,103c18.25,22.73,48.12,54.8,92.21,81.62,64.15,39,101.35,32.23,193.48,57.44,150.69,41.24,164.1,90.36,238.82,77.85,75.52-12.65,141.77-76.2,133.77-111.1-4.79-20.9-35.24-15-70.29-46.86-45.17-41.08-27.75-80.3-62.09-124.45-49.34-63.41-118.06-24.65-160.1-79.61-42.53-55.59-25.66-165.15,10.18-224.86,23.42-39,33.44-84.71,53.37-125.61a28.42,28.42,0,0,0,2.73-15.93c-3.24-26.64-47.63-41.09-81.26-51.68C2587.65,1817.9,2546,1816,2540.2,1815.72Z" transform="translate(-435.8 -397.06)"/><path class="cls-65" d="M2480.51,1812.79l14-4.3s3.66,18.92,48.6,21.28a67.18,67.18,0,0,0,41.07-14l9.55,7s-21,26.17-54.28,25.51C2496.42,1847.41,2480.51,1812.79,2480.51,1812.79Z" transform="translate(-435.8 -397.06)"/><path class="cls-7" d="M2509,1755.23c2.69-20.79,19.12-34.1,22.7-37,15-11.93,18.07-13.13,23.22-14.11l7-1.07.77,0c4.12.25,16.48,5.07,18.72,6.65,7.18,5,1.89,40.78-19.85,85.22q-1.29,5.64-2.57,11.29c19,3.33,23.65,6.75,23.8,9.48.32,5.91-20.43,13.46-39.67,14-24.12.62-49.73-9.76-49.24-17.51.2-3.13,4.75-7,22.26-10.8q4.11-5.78,8.21-11.54C2521.88,1786.85,2507,1770.54,2509,1755.23Z" transform="translate(-435.8 -397.06)"/><path class="cls-7" d="M2538.79,1747.4c5.47-3.27,9.64,3.77,7.06,9.92s-11.24,10-16.49,6.33S2531.42,1751.81,2538.79,1747.4Z" transform="translate(-435.8 -397.06)"/><path class="cls-66" d="M3152.66,1755.73c-55.59-50-167.09-38.65-237.25-2.39-55.49,28.69-64.79,63.59-116.39,66.51-38.79,2.2-100.51-12.39-133-54.41-4.1-5.3-20.48-27.5-45.07-55.51-10.84-12.34-21.62-23.93-38.34-26.55-4.24-.66-18.37-3-27.71,6.16-7.56,7.39-9.42,20.25-7.18,29.51,1.34,5.54,3.07,6.12,2.82,9.75-.69,10.19-19.25,14.62-18.22,19.76.74,3.66,10.4,2.32,12.07,6.92,1.82,5-8.79,9.39-13.35,22.07-8.54,5.71-13.93,19.94-15.8,39-2.74,28,.07,50.71,5.37,67.83,30,96.74,44.89,145.12,88,174.32,46.84,31.76,99.66,29.47,141.88,27.64,62.19-2.69,72.84-20.7,126.72-27.55,112.32-14.27,150.55,53.22,209.37,33.06C3180.18,2059.73,3240.55,1834.81,3152.66,1755.73Z" transform="translate(-435.8 -397.06)"/><path class="cls-67" d="M2179.17,1587.78c-1.82,17-8,92.47,44.06,156.15,48.61,59.5,117.45,71.39,130.25,73.32,61.89,9.36,88.59-17.32,110.22.86,36.7,30.84,17.2,155.85-49.25,189.52-74.9,38-183.63-53.23-231.31-116.4-62.55-82.87-62.53-173.83-62.16-192.61a310.9,310.9,0,0,1,23.36-111.82,55.18,55.18,0,0,1,34.83,1Z" transform="translate(-435.8 -397.06)"/><path class="cls-68" d="M2814.9,2564.29c-18.12-18.58,1.82-56-24.94-83.89-24.85-25.85-53-5-93-27.21-51.29-28.53-37.15-80.76-86.15-108.83-35.24-20.19-51.79,1.51-106.57-9.07S2383,2287,2350.1,2219.65a198.82,198.82,0,0,1-19.82-82.52c-24.59,43.94-50.1,86-53.46,157.11a338.11,338.11,0,0,0,11.3,103c18.25,22.73,48.12,54.8,92.21,81.62,64.15,39,101.35,32.23,193.48,57.44,150.69,41.24,164.1,90.36,238.82,77.85,48.26-8.09,92.64-37,116.37-65.86C2859.36,2579.31,2828.05,2577.77,2814.9,2564.29Z" transform="translate(-435.8 -397.06)"/></g></g></svg>